SeymourHeavy.ufo
<glyph name="exclam" format="1">
  <advance width="550"/>
  <unicode hex="0021"/>
  <outline>
    <contour>
      <point x="386" y="482" type="curve" smooth="yes"/>
      <point x="420" y="488"/>
      <point x="498" y="996"/>
      <point x="534" y="1170" type="curve"/>
      <point x="562" y="1287"/>
      <point x="613" y="1589"/>
      <point x="613" y="1592" type="curve" smooth="yes"/>
      <point x="613" y="1599"/>
      <point x="609" y="1602"/>
      <point x="602" y="1602" type="curve" smooth="yes"/>
      <point x="598" y="1602"/>
      <point x="595" y="1602"/>
      <point x="593" y="1601" type="curve" smooth="yes"/>
      <point x="499" y="1576" type="line" smooth="yes"/>
      <point x="407" y="1551"/>
      <point x="322" y="1527"/>
      <point x="237" y="1508" type="curve" smooth="yes"/>
      <point x="214" y="1503"/>
      <point x="211" y="1489"/>
      <point x="208" y="1446" type="curve"/>
      <point x="217" y="548" type="line" smooth="yes"/>
      <point x="217" y="520"/>
      <point x="211" y="448"/>
      <point x="229" y="448" type="curve"/>
      <point x="285" y="463"/>
      <point x="334" y="473"/>
    </contour>
    <contour>
      <point x="488" y="352" type="curve" smooth="yes"/>
      <point x="472" y="352"/>
      <point x="453" y="345"/>
      <point x="437" y="342" type="curve" smooth="yes"/>
      <point x="325" y="318"/>
      <point x="223" y="296"/>
      <point x="123" y="278" type="curve" smooth="yes"/>
      <point x="99" y="273"/>
      <point x="97" y="259"/>
      <point x="94" y="216" type="curve" smooth="yes"/>
      <point x="72" y="-58" type="line"/>
      <point x="72" y="-58"/>
      <point x="73" y="-59"/>
      <point x="74" y="-60" type="curve" smooth="yes"/>
      <point x="83" y="-68" type="line"/>
      <point x="87" y="-68"/>
      <point x="90" y="-68"/>
      <point x="92" y="-67" type="curve" smooth="yes"/>
      <point x="208" y="-28"/>
      <point x="337" y="-7"/>
      <point x="450" y="16" type="curve" smooth="yes"/>
      <point x="504" y="27"/>
      <point x="496" y="306"/>
      <point x="499" y="342" type="curve" smooth="yes"/>
      <point x="499" y="349"/>
      <point x="495" y="352"/>
    </contour>
  </outline>
</glyph>
<glyph name="quotedbl" format="1">
  <advance width="1101"/>
  <unicode hex="0022"/>
  <outline>
    <contour>
      <point x="200" y="785" type="curve"/>
      <point x="200" y="771"/>
      <point x="201" y="721"/>
      <point x="221" y="721" type="curve" smooth="yes"/>
      <point x="301" y="721"/>
      <point x="365" y="723"/>
      <point x="437" y="723" type="curve" smooth="yes"/>
      <point x="462" y="723"/>
      <point x="462" y="740"/>
      <point x="473" y="783" type="curve" smooth="yes"/>
      <point x="629" y="1420" type="line"/>
      <point x="629" y="1426" type="line" smooth="yes"/>
      <point x="629" y="1445"/>
      <point x="620" y="1450"/>
      <point x="608" y="1450" type="curve" smooth="yes"/>
      <point x="485" y="1450"/>
      <point x="331" y="1448"/>
      <point x="203" y="1448" type="curve"/>
      <point x="180" y="1444"/>
      <point x="174" y="1435"/>
      <point x="174" y="1400" type="curve" smooth="yes"/>
      <point x="174" y="1387" type="line"/>
      <point x="183" y="1186"/>
      <point x="191" y="973"/>
    </contour>
    <contour>
      <point x="753" y="785" type="curve"/>
      <point x="753" y="771"/>
      <point x="754" y="721"/>
      <point x="774" y="721" type="curve" smooth="yes"/>
      <point x="854" y="721"/>
      <point x="918" y="723"/>
      <point x="990" y="723" type="curve" smooth="yes"/>
      <point x="1015" y="723"/>
      <point x="1015" y="740"/>
      <point x="1026" y="783" type="curve" smooth="yes"/>
      <point x="1182" y="1420" type="line"/>
      <point x="1182" y="1426" type="line" smooth="yes"/>
      <point x="1182" y="1445"/>
      <point x="1173" y="1450"/>
      <point x="1161" y="1450" type="curve" smooth="yes"/>
      <point x="1038" y="1450"/>
      <point x="884" y="1448"/>
      <point x="756" y="1448" type="curve"/>
      <point x="733" y="1444"/>
      <point x="727" y="1435"/>
      <point x="727" y="1400" type="curve" smooth="yes"/>
      <point x="727" y="1387" type="line"/>
      <point x="736" y="1186"/>
      <point x="744" y="973"/>
    </contour>
  </outline>
</glyph>
<glyph name="percent" format="1">
  <advance width="2414"/>
  <unicode hex="0025"/>
  <outline>
    <contour>
      <point x="554" y="1348" type="curve" smooth="yes"/>
      <point x="662" y="1348"/>
      <point x="712" y="1229"/>
      <point x="712" y="1083" type="curve" smooth="yes"/>
      <point x="712" y="931"/>
      <point x="665" y="812"/>
      <point x="547" y="812" type="curve" smooth="yes"/>
      <point x="432" y="812"/>
      <point x="389" y="923"/>
      <point x="389" y="1073" type="curve" smooth="yes"/>
      <point x="389" y="1229"/>
      <point x="438" y="1348"/>
    </contour>
    <contour>
      <point x="545" y="618" type="curve" smooth="yes"/>
      <point x="821" y="618"/>
      <point x="979" y="828"/>
      <point x="979" y="1086" type="curve" smooth="yes"/>
      <point x="979" y="1315"/>
      <point x="843" y="1538"/>
      <point x="557" y="1538" type="curve" smooth="yes"/>
      <point x="263" y="1538"/>
      <point x="118" y="1317"/>
      <point x="118" y="1069" type="curve" smooth="yes"/>
      <point x="118" y="825"/>
      <point x="275" y="618"/>
    </contour>
    <contour>
      <point x="699" y="93" type="curve"/>
      <point x="729" y="87"/>
      <point x="760" y="82"/>
      <point x="795" y="79" type="curve"/>
      <point x="800" y="74"/>
      <point x="809" y="72"/>
      <point x="874" y="19" type="curve"/>
      <point x="911" y="17"/>
      <point x="944" y="16"/>
      <point x="978" y="16" type="curve" smooth="yes"/>
      <point x="1006" y="68"/>
      <point x="1027" y="122"/>
      <point x="1055" y="179" type="curve" smooth="yes"/>
      <point x="1258" y="521"/>
      <point x="1462" y="862"/>
      <point x="1665" y="1204" type="curve" smooth="yes"/>
      <point x="1689" y="1257"/>
      <point x="1712" y="1309"/>
      <point x="1735" y="1362" type="curve" smooth="yes"/>
      <point x="1704" y="1364"/>
      <point x="1609" y="1407"/>
      <point x="1548" y="1431" type="curve" smooth="yes"/>
      <point x="1547" y="1432"/>
      <point x="1546" y="1432"/>
      <point x="1544" y="1432" type="curve" smooth="yes"/>
      <point x="1508" y="1432"/>
      <point x="1476" y="1428"/>
      <point x="1438" y="1419" type="curve" smooth="yes"/>
      <point x="1185" y="967"/>
      <point x="943" y="524"/>
    </contour>
    <contour>
      <point x="1929" y="680" type="curve" smooth="yes"/>
      <point x="2037" y="680"/>
      <point x="2086" y="562"/>
      <point x="2086" y="415" type="curve" smooth="yes"/>
      <point x="2086" y="264"/>
      <point x="2039" y="144"/>
      <point x="1921" y="144" type="curve" smooth="yes"/>
      <point x="1807" y="144"/>
      <point x="1763" y="256"/>
      <point x="1763" y="406" type="curve" smooth="yes"/>
      <point x="1763" y="561"/>
      <point x="1812" y="680"/>
    </contour>
    <contour>
      <point x="1919" y="-49" type="curve" smooth="yes"/>
      <point x="2196" y="-49"/>
      <point x="2354" y="161"/>
      <point x="2354" y="418" type="curve" smooth="yes"/>
      <point x="2354" y="647"/>
      <point x="2218" y="871"/>
      <point x="1931" y="871" type="curve" smooth="yes"/>
      <point x="1638" y="871"/>
      <point x="1493" y="649"/>
      <point x="1493" y="402" type="curve" smooth="yes"/>
      <point x="1493" y="158"/>
      <point x="1650" y="-49"/>
    </contour>
  </outline>
</glyph>
<glyph name="ampersand" format="1">
  <advance width="1560"/>
  <unicode hex="0026"/>
  <outline>
    <contour>
      <point x="1190" y="1149" type="curve" smooth="yes"/>
      <point x="1190" y="1376"/>
      <point x="977" y="1448"/>
      <point x="869" y="1448" type="curve" smooth="yes"/>
      <point x="825" y="1448"/>
      <point x="785" y="1446"/>
      <point x="746" y="1441" type="curve" smooth="yes"/>
      <point x="476" y="1407"/>
      <point x="328" y="1260"/>
      <point x="328" y="1085" type="curve" smooth="yes"/>
      <point x="328" y="977"/>
      <point x="367" y="862"/>
      <point x="451" y="750" type="curve"/>
      <point x="92" y="502"/>
      <point x="80" y="422"/>
      <point x="80" y="297" type="curve" smooth="yes"/>
      <point x="80" y="61"/>
      <point x="303" y="-51"/>
      <point x="526" y="-51" type="curve" smooth="yes"/>
      <point x="584" y="-51"/>
      <point x="634" y="-48"/>
      <point x="684" y="-40" type="curve" smooth="yes"/>
      <point x="808" y="-21"/>
      <point x="924" y="28"/>
      <point x="1116" y="131" type="curve"/>
      <point x="1324" y="3" type="line" smooth="yes"/>
      <point x="1326" y="2"/>
      <point x="1328" y="2"/>
      <point x="1331" y="2" type="curve" smooth="yes"/>
      <point x="1334" y="2"/>
      <point x="1337" y="2"/>
      <point x="1341" y="4" type="curve" smooth="yes"/>
      <point x="1353" y="12"/>
      <point x="1550" y="195"/>
      <point x="1550" y="258" type="curve" smooth="yes"/>
      <point x="1550" y="288"/>
      <point x="1423" y="364"/>
      <point x="1418" y="368" type="curve" smooth="yes"/>
      <point x="1407" y="377" type="line"/>
      <point x="1452" y="425"/>
      <point x="1592" y="545"/>
      <point x="1592" y="587" type="curve" smooth="yes"/>
      <point x="1592" y="639"/>
      <point x="1481" y="743"/>
      <point x="1432" y="762" type="curve"/>
      <point x="1356" y="692"/>
      <point x="1281" y="621"/>
      <point x="1205" y="551" type="curve"/>
      <point x="1197" y="551"/>
      <point x="1190" y="552"/>
      <point x="1183" y="541" type="curve"/>
      <point x="1167" y="540"/>
      <point x="1154" y="555"/>
      <point x="1139" y="568" type="curve"/>
      <point x="901" y="759" type="line"/>
      <point x="1098" y="935"/>
      <point x="1190" y="1009"/>
    </contour>
    <contour>
      <point x="514" y="361" type="curve" smooth="yes"/>
      <point x="514" y="481"/>
      <point x="579" y="524"/>
      <point x="638" y="556" type="curve"/>
      <point x="876" y="325" type="line"/>
      <point x="772" y="237"/>
      <point x="685" y="233"/>
      <point x="649" y="233" type="curve" smooth="yes"/>
      <point x="541" y="233"/>
      <point x="514" y="303"/>
    </contour>
    <contour>
      <point x="667" y="1094" type="curve" smooth="yes"/>
      <point x="667" y="1157"/>
      <point x="706" y="1214"/>
      <point x="791" y="1214" type="curve" smooth="yes"/>
      <point x="844" y="1214"/>
      <point x="877" y="1185"/>
      <point x="877" y="1140" type="curve" smooth="yes"/>
      <point x="877" y="1089"/>
      <point x="836" y="1020"/>
      <point x="732" y="951" type="curve"/>
      <point x="689" y="990"/>
      <point x="667" y="1045"/>
    </contour>
  </outline>
</glyph>
<glyph name="parenleft" format="1">
  <advance width="927"/>
  <unicode hex="0028"/>
  <outline>
    <contour>
      <point x="810" y="121" type="curve" smooth="yes"/>
      <point x="757" y="131"/>
      <point x="715" y="174"/>
      <point x="684" y="236" type="curve" smooth="yes"/>
      <point x="585" y="319"/>
      <point x="544" y="476"/>
      <point x="544" y="635" type="curve" smooth="yes"/>
      <point x="544" y="832"/>
      <point x="623" y="1033"/>
      <point x="738" y="1119" type="curve"/>
      <point x="773" y="1183"/>
      <point x="816" y="1226"/>
      <point x="868" y="1236" type="curve" smooth="yes"/>
      <point x="868" y="1375"/>
      <point x="858" y="1471"/>
      <point x="851" y="1523" type="curve"/>
      <point x="601" y="1513"/>
      <point x="401" y="1378"/>
      <point x="284" y="1232" type="curve" smooth="yes"/>
      <point x="138" y="1053"/>
      <point x="85" y="811"/>
      <point x="85" y="623" type="curve" smooth="yes"/>
      <point x="85" y="271"/>
      <point x="261" y="-61"/>
      <point x="641" y="-150" type="curve" smooth="yes"/>
      <point x="643" y="-150"/>
      <point x="643" y="-150"/>
      <point x="644" y="-150" type="curve" smooth="yes"/>
      <point x="689" y="-162"/>
      <point x="736" y="-167"/>
      <point x="786" y="-161" type="curve" smooth="yes"/>
      <point x="795" y="-61"/>
      <point x="810" y="18"/>
    </contour>
  </outline>
</glyph>
<glyph name="parenright" format="1">
  <advance width="929"/>
  <unicode hex="0029"/>
  <outline>
    <contour>
      <point x="139" y="-169" type="curve" smooth="yes"/>
      <point x="189" y="-169"/>
      <point x="233" y="-162"/>
      <point x="275" y="-150" type="curve" smooth="yes"/>
      <point x="695" y="-57"/>
      <point x="891" y="324"/>
      <point x="891" y="706" type="curve" smooth="yes"/>
      <point x="891" y="848"/>
      <point x="862" y="1002"/>
      <point x="792" y="1133" type="curve" smooth="yes"/>
      <point x="692" y="1331"/>
      <point x="486" y="1513"/>
      <point x="188" y="1523" type="curve"/>
      <point x="181" y="1497"/>
      <point x="165" y="1431"/>
      <point x="149" y="1314" type="curve"/>
      <point x="148" y="1287"/>
      <point x="148" y="1259"/>
      <point x="148" y="1231" type="curve" smooth="yes"/>
      <point x="200" y="1224"/>
      <point x="243" y="1182"/>
      <point x="276" y="1119" type="curve" smooth="yes"/>
      <point x="374" y="1036"/>
      <point x="431" y="867"/>
      <point x="431" y="689" type="curve" smooth="yes"/>
      <point x="431" y="431"/>
      <point x="337" y="163"/>
      <point x="139" y="135" type="curve" smooth="yes"/>
      <point x="130" y="106"/>
      <point x="128" y="73"/>
      <point x="128" y="12" type="curve" smooth="yes"/>
      <point x="128" y="-34"/>
      <point x="128" y="-143"/>
    </contour>
  </outline>
</glyph>
<glyph name="asterisk" format="1">
  <advance width="1275"/>
  <unicode hex="002A"/>
  <outline>
    <contour>
      <point x="501" y="-74" type="curve" smooth="yes"/>
      <point x="605" y="-79"/>
      <point x="661" y="-85"/>
      <point x="692" y="-85" type="curve" smooth="yes"/>
      <point x="705" y="-85"/>
      <point x="714" y="-84"/>
      <point x="722" y="-84" type="curve" smooth="yes"/>
      <point x="729" y="-84"/>
      <point x="735" y="-84"/>
      <point x="742" y="-84" type="curve" smooth="yes"/>
      <point x="765" y="-84"/>
      <point x="771" y="-78"/>
      <point x="776" y="-19" type="curve" smooth="yes"/>
      <point x="782" y="63"/>
      <point x="789" y="144"/>
      <point x="795" y="226" type="curve"/>
      <point x="862" y="174"/>
      <point x="1008" y="36"/>
      <point x="1050" y="36" type="curve" smooth="yes"/>
      <point x="1059" y="36"/>
      <point x="1066" y="40"/>
      <point x="1071" y="47" type="curve" smooth="yes"/>
      <point x="1142" y="144"/>
      <point x="1176" y="188"/>
      <point x="1191" y="212" type="curve" smooth="yes"/>
      <point x="1206" y="237"/>
      <point x="1218" y="248"/>
      <point x="1218" y="259" type="curve"/>
      <point x="1215" y="291"/>
      <point x="1005" y="440"/>
      <point x="912" y="512" type="curve"/>
      <point x="1201" y="725"/>
      <point x="1231" y="724"/>
      <point x="1231" y="758" type="curve" smooth="yes"/>
      <point x="1231" y="771"/>
      <point x="1187" y="839"/>
      <point x="1091" y="975" type="curve"/>
      <point x="1083" y="982"/>
      <point x="1076" y="987"/>
      <point x="1067" y="987" type="curve" smooth="yes"/>
      <point x="1035" y="987"/>
      <point x="927" y="875"/>
      <point x="831" y="784" type="curve"/>
      <point x="845" y="909"/>
      <point x="873" y="1006"/>
      <point x="873" y="1093" type="curve" smooth="yes"/>
      <point x="873" y="1105"/>
      <point x="871" y="1113"/>
      <point x="866" y="1118" type="curve" smooth="yes"/>
      <point x="856" y="1128"/>
      <point x="654" y="1132"/>
      <point x="603" y="1132" type="curve"/>
      <point x="598" y="1131"/>
      <point x="594" y="1130"/>
      <point x="590" y="1127" type="curve" smooth="yes"/>
      <point x="582" y="1122"/>
      <point x="576" y="1110"/>
      <point x="571" y="1082" type="curve" smooth="yes"/>
      <point x="562" y="1037"/>
      <point x="550" y="947"/>
      <point x="538" y="772" type="curve"/>
      <point x="471" y="829"/>
      <point x="312" y="977"/>
      <point x="280" y="977" type="curve" smooth="yes"/>
      <point x="254" y="977"/>
      <point x="222" y="914"/>
      <point x="200" y="883" type="curve" smooth="yes"/>
      <point x="138" y="795"/>
      <point x="116" y="762"/>
      <point x="116" y="748" type="curve" smooth="yes"/>
      <point x="116" y="717"/>
      <point x="228" y="653"/>
      <point x="434" y="512" type="curve"/>
      <point x="340" y="440"/>
      <point x="129" y="287"/>
      <point x="129" y="259" type="curve" smooth="yes"/>
      <point x="129" y="249"/>
      <point x="141" y="235"/>
      <point x="156" y="212" type="curve" smooth="yes"/>
      <point x="167" y="193"/>
      <point x="201" y="160"/>
      <point x="266" y="87" type="curve"/>
      <point x="271" y="80"/>
      <point x="278" y="76"/>
      <point x="287" y="76" type="curve" smooth="yes"/>
      <point x="319" y="76"/>
      <point x="443" y="176"/>
      <point x="502" y="219" type="curve"/>
      <point x="493" y="135"/>
      <point x="482" y="52"/>
      <point x="474" y="-32" type="curve"/>
      <point x="474" y="-59"/>
      <point x="485" y="-73"/>
    </contour>
  </outline>
</glyph>
<glyph name="plus" format="1">
  <advance width="1062"/>
  <unicode hex="002B"/>
  <outline>
    <contour>
      <point x="74" y="464" type="curve" smooth="yes"/>
      <point x="108" y="454"/>
      <point x="159" y="452"/>
      <point x="228" y="452" type="curve" smooth="yes"/>
      <point x="275" y="452"/>
      <point x="331" y="452"/>
      <point x="395" y="453" type="curve"/>
      <point x="386" y="199" type="line"/>
      <point x="386" y="168"/>
      <point x="390" y="143"/>
      <point x="398" y="124" type="curve"/>
      <point x="485" y="124"/>
      <point x="599" y="123"/>
      <point x="681" y="123" type="curve" smooth="yes"/>
      <point x="693" y="159"/>
      <point x="700" y="205"/>
      <point x="703" y="284" type="curve"/>
      <point x="709" y="455" type="line"/>
      <point x="872" y="456" type="line"/>
      <point x="946" y="457"/>
      <point x="982" y="456"/>
      <point x="1023" y="471" type="curve"/>
      <point x="1028" y="571" type="line" smooth="yes"/>
      <point x="1031" y="646"/>
      <point x="1034" y="707"/>
      <point x="1034" y="747" type="curve"/>
      <point x="1017" y="757"/>
      <point x="993" y="759"/>
      <point x="971" y="759" type="curve" smooth="yes"/>
      <point x="910" y="759"/>
      <point x="813" y="757"/>
      <point x="719" y="757" type="curve"/>
      <point x="727" y="920"/>
      <point x="727" y="965"/>
      <point x="727" y="1023" type="curve" smooth="yes"/>
      <point x="727" y="1051"/>
      <point x="723" y="1071"/>
      <point x="715" y="1091" type="curve"/>
      <point x="612" y="1090" type="line"/>
      <point x="570" y="1090"/>
      <point x="527" y="1089"/>
      <point x="499" y="1089" type="curve" smooth="yes"/>
      <point x="477" y="1089"/>
      <point x="455" y="1089"/>
      <point x="433" y="1089" type="curve" smooth="yes"/>
      <point x="409" y="1035"/>
      <point x="413" y="949"/>
      <point x="407" y="817" type="curve" smooth="yes"/>
      <point x="407" y="755" type="line"/>
      <point x="167" y="753" type="line" smooth="yes"/>
      <point x="137" y="753"/>
      <point x="112" y="746"/>
      <point x="94" y="739" type="curve" smooth="yes"/>
      <point x="88" y="653"/>
      <point x="74" y="533"/>
    </contour>
  </outline>
</glyph>
<glyph name="comma" format="1">
  <advance width="625"/>
  <unicode hex="002C"/>
  <outline>
    <contour>
      <point x="131" y="-288" type="curve" smooth="yes"/>
      <point x="143" y="-291"/>
      <point x="161" y="-294"/>
      <point x="183" y="-297" type="curve" smooth="yes"/>
      <point x="247" y="-323"/>
      <point x="261" y="-324"/>
      <point x="286" y="-320" type="curve" smooth="yes"/>
      <point x="355" y="-300"/>
      <point x="508" y="-169"/>
      <point x="525" y="18" type="curve" smooth="yes"/>
      <point x="526" y="40"/>
      <point x="528" y="64"/>
      <point x="529" y="92" type="curve"/>
      <point x="537" y="290" type="line"/>
      <point x="537" y="309"/>
      <point x="537" y="327"/>
      <point x="535" y="344" type="curve" smooth="yes"/>
      <point x="520" y="346"/>
      <point x="503" y="347"/>
      <point x="486" y="347" type="curve" smooth="yes"/>
      <point x="378" y="347"/>
      <point x="260" y="346"/>
      <point x="150" y="346" type="curve"/>
      <point x="130" y="293"/>
      <point x="128" y="113"/>
      <point x="127" y="43" type="curve" smooth="yes"/>
      <point x="127" y="-9" type="line" smooth="yes"/>
      <point x="153" y="-15"/>
      <point x="217" y="-13"/>
      <point x="266" y="-13" type="curve"/>
      <point x="249" y="-68"/>
      <point x="227" y="-119"/>
      <point x="133" y="-171" type="curve" smooth="yes"/>
      <point x="132" y="-210"/>
      <point x="131" y="-249"/>
    </contour>
  </outline>
</glyph>
<glyph name="period" format="1">
  <advance width="645"/>
  <unicode hex="002E"/>
  <outline>
    <contour>
      <point x="532" y="341" type="line"/>
      <point x="514" y="349"/>
      <point x="492" y="351"/>
      <point x="469" y="351" type="curve" smooth="yes"/>
      <point x="366" y="350"/>
      <point x="253" y="350"/>
      <point x="149" y="350" type="curve"/>
      <point x="125" y="296"/>
      <point x="130" y="97"/>
      <point x="130" y="32" type="curve" smooth="yes"/>
      <point x="130" y="14"/>
      <point x="130" y="-4"/>
      <point x="131" y="-21" type="curve" smooth="yes"/>
      <point x="150" y="-21"/>
      <point x="169" y="-21"/>
      <point x="189" y="-21" type="curve" smooth="yes"/>
      <point x="299" y="-21"/>
      <point x="404" y="-20"/>
      <point x="507" y="-20" type="curve"/>
      <point x="518" y="-2"/>
      <point x="518" y="21"/>
      <point x="520" y="56" type="curve"/>
    </contour>
  </outline>
</glyph>
<glyph name="slash" format="1">
  <advance width="1179"/>
  <unicode hex="002F"/>
  <outline>
    <contour>
      <point x="50" y="-82" type="curve"/>
      <point x="88" y="-101"/>
      <point x="198" y="-121"/>
      <point x="251" y="-127" type="curve"/>
      <point x="332" y="-129"/>
      <point x="412" y="-130"/>
      <point x="493" y="-131" type="curve"/>
      <point x="517" y="-91"/>
      <point x="531" y="-44"/>
      <point x="551" y="6" type="curve" smooth="yes"/>
      <point x="1142" y="1436" type="line"/>
      <point x="1157" y="1480"/>
      <point x="1170" y="1519"/>
      <point x="1181" y="1561" type="curve"/>
      <point x="1074" y="1566"/>
      <point x="967" y="1584"/>
      <point x="859" y="1596" type="curve"/>
      <point x="820" y="1596"/>
      <point x="780" y="1596"/>
      <point x="741" y="1596" type="curve"/>
      <point x="679" y="1478"/>
      <point x="561" y="1173"/>
      <point x="487" y="993" type="curve"/>
      <point x="341" y="644"/>
      <point x="226" y="351"/>
      <point x="97" y="44" type="curve"/>
      <point x="81" y="1"/>
      <point x="65" y="-40"/>
    </contour>
  </outline>
</glyph>
<glyph name="zero" format="1">
  <advance width="1629"/>
  <unicode hex="0030"/>
  <outline>
    <contour>
      <point x="865" y="255" type="curve" smooth="yes"/>
      <point x="627" y="255"/>
      <point x="570" y="504"/>
      <point x="570" y="717" type="curve" smooth="yes"/>
      <point x="570" y="940"/>
      <point x="640" y="1200"/>
      <point x="900" y="1200" type="curve" smooth="yes"/>
      <point x="1119" y="1200"/>
      <point x="1192" y="938"/>
      <point x="1192" y="758" type="curve" smooth="yes"/>
      <point x="1192" y="537"/>
      <point x="1120" y="255"/>
    </contour>
    <contour>
      <point x="856" y="-52" type="curve" smooth="yes"/>
      <point x="1309" y="-52"/>
      <point x="1616" y="247"/>
      <point x="1616" y="752" type="curve" smooth="yes"/>
      <point x="1616" y="1133"/>
      <point x="1396" y="1494"/>
      <point x="910" y="1494" type="curve" smooth="yes"/>
      <point x="396" y="1494"/>
      <point x="138" y="1135"/>
      <point x="138" y="678" type="curve" smooth="yes"/>
      <point x="138" y="234"/>
      <point x="435" y="-52"/>
    </contour>
  </outline>
</glyph>
<glyph name="one" format="1">
  <advance width="690"/>
  <unicode hex="0031"/>
  <outline>
    <contour>
      <point x="544" y="80" type="line"/>
      <point x="577" y="91"/>
      <point x="589" y="105"/>
      <point x="592" y="167" type="curve" smooth="yes"/>
      <point x="611" y="552"/>
      <point x="628" y="937"/>
      <point x="647" y="1322" type="curve" smooth="yes"/>
      <point x="648" y="1349"/>
      <point x="650" y="1377"/>
      <point x="651" y="1404" type="curve" smooth="yes"/>
      <point x="651" y="1420"/>
      <point x="650" y="1431"/>
      <point x="646" y="1438" type="curve" smooth="yes"/>
      <point x="642" y="1445"/>
      <point x="635" y="1447"/>
      <point x="626" y="1447" type="curve" smooth="yes"/>
      <point x="619" y="1447"/>
      <point x="610" y="1446"/>
      <point x="600" y="1443" type="curve" smooth="yes"/>
      <point x="531" y="1426"/>
      <point x="461" y="1410"/>
      <point x="392" y="1393" type="curve" smooth="yes"/>
      <point x="254" y="1360" type="line"/>
      <point x="254" y="1360"/>
      <point x="254" y="1360"/>
      <point x="254" y="1360" type="curve"/>
      <point x="254" y="1360"/>
      <point x="254" y="1360"/>
      <point x="254" y="1360" type="curve"/>
      <point x="227" y="1355"/>
      <point x="228" y="1339"/>
      <point x="225" y="1292" type="curve"/>
      <point x="168" y="98"/>
      <point x="165" y="36"/>
      <point x="165" y="30" type="curve" smooth="yes"/>
      <point x="165" y="-5"/>
      <point x="185" y="-15"/>
      <point x="208" y="-15" type="curve" smooth="yes"/>
      <point x="215" y="-15"/>
      <point x="223" y="-14"/>
      <point x="231" y="-12" type="curve" smooth="yes"/>
    </contour>
  </outline>
</glyph>
<glyph name="two" format="1">
  <advance width="1132"/>
  <unicode hex="0032"/>
  <outline>
    <contour>
      <point x="99" y="54" type="curve" smooth="yes"/>
      <point x="99" y="15"/>
      <point x="142" y="-5"/>
      <point x="270" y="-5" type="curve" smooth="yes"/>
      <point x="466" y="-5"/>
      <point x="547" y="-3"/>
      <point x="887" y="1" type="curve"/>
      <point x="903" y="4"/>
      <point x="926" y="0"/>
      <point x="953" y="27" type="curve"/>
      <point x="961" y="27"/>
      <point x="1043" y="196"/>
      <point x="1066" y="238" type="curve" smooth="yes"/>
      <point x="1083" y="270"/>
      <point x="1117" y="307"/>
      <point x="1117" y="349" type="curve" smooth="yes"/>
      <point x="1117" y="364"/>
      <point x="1100" y="371"/>
      <point x="1066" y="371" type="curve" smooth="yes"/>
      <point x="969" y="371"/>
      <point x="716" y="340"/>
      <point x="668" y="340" type="curve" smooth="yes"/>
      <point x="663" y="340"/>
      <point x="660" y="340"/>
      <point x="660" y="341" type="curve"/>
      <point x="659" y="341"/>
      <point x="963" y="815"/>
      <point x="1005" y="904" type="curve"/>
      <point x="1034" y="952"/>
      <point x="1051" y="998"/>
      <point x="1060" y="1042" type="curve" smooth="yes"/>
      <point x="1064" y="1064"/>
      <point x="1067" y="1086"/>
      <point x="1067" y="1108" type="curve" smooth="yes"/>
      <point x="1067" y="1325"/>
      <point x="856" y="1493"/>
      <point x="663" y="1493" type="curve" smooth="yes"/>
      <point x="338" y="1493"/>
      <point x="220" y="1373"/>
      <point x="214" y="1373" type="curve"/>
      <point x="214" y="1360"/>
      <point x="149" y="1163"/>
      <point x="149" y="1059" type="curve" smooth="yes"/>
      <point x="149" y="1048"/>
      <point x="152" y="1033"/>
      <point x="167" y="1033" type="curve" smooth="yes"/>
      <point x="175" y="1033"/>
      <point x="186" y="1037"/>
      <point x="199" y="1046" type="curve" smooth="yes"/>
      <point x="275" y="1095"/>
      <point x="355" y="1118"/>
      <point x="431" y="1118" type="curve" smooth="yes"/>
      <point x="431" y="1118"/>
      <point x="431" y="1118"/>
      <point x="431" y="1118" type="curve"/>
      <point x="491" y="1118"/>
      <point x="544" y="1103"/>
      <point x="583" y="1075" type="curve" smooth="yes"/>
      <point x="622" y="1047"/>
      <point x="646" y="1004"/>
      <point x="646" y="951" type="curve" smooth="yes"/>
      <point x="646" y="837"/>
      <point x="401" y="517"/>
      <point x="147" y="156" type="curve"/>
      <point x="119" y="113"/>
      <point x="99" y="81"/>
    </contour>
  </outline>
</glyph>
<glyph name="four" format="1">
  <advance width="1352"/>
  <unicode hex="0034"/>
  <outline>
    <contour>
      <point x="1347" y="571" type="curve" smooth="yes"/>
      <point x="1348" y="573"/>
      <point x="1348" y="577"/>
      <point x="1348" y="582" type="curve" smooth="yes"/>
      <point x="1348" y="610"/>
      <point x="1328" y="615"/>
      <point x="1312" y="618" type="curve"/>
      <point x="1301" y="618"/>
      <point x="1239" y="617"/>
      <point x="1150" y="614" type="curve"/>
      <point x="1166" y="986"/>
      <point x="1183" y="1124"/>
      <point x="1199" y="1494" type="curve" smooth="yes"/>
      <point x="1199" y="1505" type="line" smooth="yes"/>
      <point x="1199" y="1530"/>
      <point x="1190" y="1537"/>
      <point x="1175" y="1537" type="curve" smooth="yes"/>
      <point x="1167" y="1537"/>
      <point x="1158" y="1536"/>
      <point x="1148" y="1533" type="curve" smooth="yes"/>
      <point x="832" y="1450" type="line"/>
      <point x="620" y="1408"/>
      <point x="586" y="1244"/>
      <point x="485" y="1076" type="curve" smooth="yes"/>
      <point x="277" y="733" type="line"/>
      <point x="34" y="330" type="line" smooth="yes"/>
      <point x="27" y="319"/>
      <point x="24" y="310"/>
      <point x="24" y="302" type="curve" smooth="yes"/>
      <point x="24" y="273"/>
      <point x="73" y="268"/>
      <point x="190" y="268" type="curve" smooth="yes"/>
      <point x="261" y="268"/>
      <point x="493" y="269"/>
      <point x="719" y="272" type="curve"/>
      <point x="708" y="143"/>
      <point x="702" y="44"/>
      <point x="702" y="-20" type="curve" smooth="yes"/>
      <point x="702" y="-48"/>
      <point x="718" y="-56"/>
      <point x="737" y="-56" type="curve" smooth="yes"/>
      <point x="779" y="-56"/>
      <point x="1055" y="50"/>
      <point x="1083" y="62" type="curve" smooth="yes"/>
      <point x="1096" y="67"/>
      <point x="1099" y="81"/>
      <point x="1100" y="93" type="curve" smooth="yes"/>
      <point x="1118" y="276" type="line"/>
      <point x="1281" y="276"/>
      <point x="1287" y="272"/>
      <point x="1295" y="312" type="curve" smooth="yes"/>
      <point x="1318" y="426" type="line"/>
      <point x="1329" y="486"/>
      <point x="1342" y="550"/>
    </contour>
    <contour>
      <point x="437" y="601" type="line"/>
      <point x="801" y="1210" type="line"/>
      <point x="793" y="1016"/>
      <point x="779" y="785"/>
      <point x="747" y="601" type="curve"/>
    </contour>
  </outline>
</glyph>
<glyph name="five" format="1">
  <advance width="1079"/>
  <unicode hex="0035"/>
  <outline>
    <contour>
      <point x="329" y="285" type="curve" smooth="yes"/>
      <point x="266" y="285"/>
      <point x="226" y="294"/>
      <point x="171" y="294" type="curve" smooth="yes"/>
      <point x="155" y="294"/>
      <point x="145" y="284"/>
      <point x="142" y="277" type="curve"/>
      <point x="61" y="1" type="line"/>
      <point x="61" y="-39"/>
      <point x="228" y="-52"/>
      <point x="304" y="-52" type="curve" smooth="yes"/>
      <point x="383" y="-52"/>
      <point x="465" y="-45"/>
      <point x="545" y="-29" type="curve" smooth="yes"/>
      <point x="812" y="24"/>
      <point x="1054" y="179"/>
      <point x="1054" y="531" type="curve" smooth="yes"/>
      <point x="1054" y="793"/>
      <point x="903" y="932"/>
      <point x="687" y="985" type="curve" smooth="yes"/>
      <point x="633" y="998"/>
      <point x="576" y="1006"/>
      <point x="515" y="1009" type="curve"/>
      <point x="515" y="1103"/>
      <point x="542" y="1114"/>
      <point x="603" y="1114" type="curve" smooth="yes"/>
      <point x="643" y="1114"/>
      <point x="689" y="1113"/>
      <point x="732" y="1113" type="curve" smooth="yes"/>
      <point x="835" y="1113"/>
      <point x="944" y="1123"/>
      <point x="970" y="1210" type="curve"/>
      <point x="994" y="1286"/>
      <point x="1046" y="1485"/>
      <point x="1052" y="1503" type="curve" smooth="yes"/>
      <point x="1054" y="1508"/>
      <point x="1055" y="1514"/>
      <point x="1055" y="1521" type="curve" smooth="yes"/>
      <point x="1055" y="1535"/>
      <point x="1051" y="1542"/>
      <point x="1042" y="1542" type="curve"/>
      <point x="786" y="1509"/>
      <point x="545" y="1483"/>
      <point x="292" y="1454" type="curve"/>
      <point x="257" y="1215"/>
      <point x="199" y="973"/>
      <point x="190" y="732" type="curve"/>
      <point x="187" y="716"/>
      <point x="186" y="704"/>
      <point x="186" y="695" type="curve" smooth="yes"/>
      <point x="186" y="682"/>
      <point x="190" y="675"/>
      <point x="198" y="671" type="curve" smooth="yes"/>
      <point x="206" y="667"/>
      <point x="219" y="666"/>
      <point x="240" y="666" type="curve" smooth="yes"/>
      <point x="257" y="666"/>
      <point x="277" y="667"/>
      <point x="304" y="667" type="curve" smooth="yes"/>
      <point x="385" y="667"/>
      <point x="475" y="664"/>
      <point x="534" y="621" type="curve" smooth="yes"/>
      <point x="573" y="592"/>
      <point x="599" y="546"/>
      <point x="599" y="472" type="curve" smooth="yes"/>
      <point x="599" y="314"/>
      <point x="465" y="285"/>
    </contour>
  </outline>
</glyph>
<glyph name="six" format="1">
  <advance width="1288"/>
  <unicode hex="0036"/>
  <outline>
    <contour>
      <point x="1014" y="1468" type="curve" smooth="yes"/>
      <point x="1025" y="1481"/>
      <point x="1030" y="1492"/>
      <point x="1030" y="1501" type="curve" smooth="yes"/>
      <point x="1030" y="1546"/>
      <point x="819" y="1530"/>
      <point x="718" y="1530" type="curve" smooth="yes"/>
      <point x="682" y="1530"/>
      <point x="658" y="1492"/>
      <point x="637" y="1465" type="curve" smooth="yes"/>
      <point x="481" y="1255"/>
      <point x="266" y="1046"/>
      <point x="168" y="797" type="curve" smooth="yes"/>
      <point x="135" y="714"/>
      <point x="116" y="627"/>
      <point x="116" y="533" type="curve" smooth="yes"/>
      <point x="116" y="212"/>
      <point x="295" y="-51"/>
      <point x="663" y="-51" type="curve" smooth="yes"/>
      <point x="1075" y="-51"/>
      <point x="1290" y="190"/>
      <point x="1290" y="549" type="curve" smooth="yes"/>
      <point x="1290" y="776"/>
      <point x="1150" y="1028"/>
      <point x="857" y="1028" type="curve" smooth="yes"/>
      <point x="808" y="1028"/>
      <point x="766" y="1023"/>
      <point x="718" y="1010" type="curve"/>
      <point x="760" y="1094"/>
      <point x="805" y="1175"/>
      <point x="854" y="1251" type="curve" smooth="yes"/>
      <point x="903" y="1327"/>
      <point x="955" y="1399"/>
    </contour>
    <contour>
      <point x="743" y="783" type="curve" smooth="yes"/>
      <point x="858" y="783"/>
      <point x="866" y="672"/>
      <point x="866" y="580" type="curve" smooth="yes"/>
      <point x="866" y="566"/>
      <point x="866" y="550"/>
      <point x="865" y="534" type="curve" smooth="yes"/>
      <point x="860" y="419"/>
      <point x="833" y="260"/>
      <point x="698" y="260" type="curve" smooth="yes"/>
      <point x="594" y="260"/>
      <point x="571" y="403"/>
      <point x="571" y="479" type="curve" smooth="yes"/>
      <point x="571" y="512"/>
      <point x="573" y="551"/>
      <point x="579" y="590" type="curve" smooth="yes"/>
      <point x="582" y="609"/>
      <point x="586" y="629"/>
      <point x="591" y="648" type="curve" smooth="yes"/>
      <point x="613" y="722"/>
      <point x="656" y="783"/>
    </contour>
  </outline>
</glyph>
<glyph name="seven" format="1">
  <advance width="1066"/>
  <unicode hex="0037"/>
  <outline>
    <contour>
      <point x="1129" y="1454" type="curve" smooth="yes"/>
      <point x="881" y="1454"/>
      <point x="772" y="1452"/>
      <point x="332" y="1448" type="curve" smooth="yes"/>
      <point x="307" y="1448"/>
      <point x="296" y="1445"/>
      <point x="264" y="1413" type="curve"/>
      <point x="213" y="1298"/>
      <point x="165" y="1208"/>
      <point x="114" y="1094" type="curve"/>
      <point x="114" y="1091"/>
      <point x="102" y="1070"/>
      <point x="102" y="1053" type="curve" smooth="yes"/>
      <point x="102" y="1034"/>
      <point x="123" y="1031"/>
      <point x="163" y="1031" type="curve" smooth="yes"/>
      <point x="290" y="1031"/>
      <point x="506" y="1031"/>
      <point x="676" y="1034" type="curve"/>
      <point x="470" y="534" type="line" smooth="yes"/>
      <point x="319" y="167"/>
      <point x="213" y="-107"/>
      <point x="213" y="-94" type="curve" smooth="yes"/>
      <point x="213" y="-114"/>
      <point x="223" y="-129"/>
      <point x="246" y="-129" type="curve" smooth="yes"/>
      <point x="251" y="-129"/>
      <point x="254" y="-129"/>
      <point x="256" y="-128" type="curve"/>
      <point x="336" y="-117"/>
      <point x="459" y="-96"/>
      <point x="560" y="-72" type="curve" smooth="yes"/>
      <point x="597" y="-64"/>
      <point x="721" y="273"/>
      <point x="915" y="762" type="curve"/>
      <point x="1136" y="1323" type="line"/>
      <point x="1156" y="1370"/>
      <point x="1167" y="1401"/>
      <point x="1167" y="1422" type="curve" smooth="yes"/>
      <point x="1167" y="1443"/>
      <point x="1154" y="1454"/>
    </contour>
  </outline>
</glyph>
<glyph name="eight" format="1">
  <advance width="1280"/>
  <unicode hex="0038"/>
  <outline>
    <contour>
      <point x="1191" y="1128" type="curve" smooth="yes"/>
      <point x="1191" y="1360"/>
      <point x="971" y="1494"/>
      <point x="775" y="1494" type="curve" smooth="yes"/>
      <point x="489" y="1494"/>
      <point x="202" y="1366"/>
      <point x="202" y="1071" type="curve" smooth="yes"/>
      <point x="202" y="954"/>
      <point x="245" y="859"/>
      <point x="345" y="790" type="curve"/>
      <point x="219" y="669"/>
      <point x="112" y="562"/>
      <point x="112" y="370" type="curve" smooth="yes"/>
      <point x="112" y="71"/>
      <point x="383" y="-52"/>
      <point x="626" y="-52" type="curve" smooth="yes"/>
      <point x="905" y="-52"/>
      <point x="1251" y="108"/>
      <point x="1251" y="427" type="curve" smooth="yes"/>
      <point x="1251" y="630"/>
      <point x="1160" y="741"/>
      <point x="1047" y="822" type="curve"/>
      <point x="1119" y="896"/>
      <point x="1191" y="997"/>
    </contour>
    <contour>
      <point x="831" y="424" type="curve" smooth="yes"/>
      <point x="831" y="355"/>
      <point x="812" y="137"/>
      <point x="705" y="137" type="curve" smooth="yes"/>
      <point x="582" y="137"/>
      <point x="562" y="297"/>
      <point x="562" y="396" type="curve" smooth="yes"/>
      <point x="562" y="484"/>
      <point x="576" y="666"/>
      <point x="690" y="666" type="curve" smooth="yes"/>
      <point x="790" y="666"/>
      <point x="831" y="515"/>
    </contour>
    <contour>
      <point x="577" y="1094" type="curve" smooth="yes"/>
      <point x="577" y="1171"/>
      <point x="603" y="1289"/>
      <point x="697" y="1289" type="curve" smooth="yes"/>
      <point x="788" y="1289"/>
      <point x="816" y="1189"/>
      <point x="816" y="1115" type="curve" smooth="yes"/>
      <point x="816" y="1050"/>
      <point x="810" y="899"/>
      <point x="713" y="899" type="curve" smooth="yes"/>
      <point x="615" y="899"/>
      <point x="577" y="1017"/>
    </contour>
  </outline>
</glyph>
<glyph name="nine" format="1">
  <advance width="1326"/>
  <unicode hex="0039"/>
  <outline>
    <contour>
      <point x="1334" y="905" type="curve" smooth="yes"/>
      <point x="1334" y="1185"/>
      <point x="1132" y="1493"/>
      <point x="821" y="1493" type="curve" smooth="yes"/>
      <point x="783" y="1493"/>
      <point x="743" y="1490"/>
      <point x="705" y="1484" type="curve" smooth="yes"/>
      <point x="398" y="1438"/>
      <point x="109" y="1213"/>
      <point x="109" y="873" type="curve" smooth="yes"/>
      <point x="109" y="619"/>
      <point x="307" y="385"/>
      <point x="566" y="385" type="curve" smooth="yes"/>
      <point x="635" y="385"/>
      <point x="709" y="398"/>
      <point x="777" y="418" type="curve"/>
      <point x="751" y="328"/>
      <point x="708" y="216"/>
      <point x="655" y="118" type="curve" smooth="yes"/>
      <point x="637" y="85"/>
      <point x="618" y="55"/>
      <point x="598" y="27" type="curve" smooth="yes"/>
      <point x="591" y="18"/>
      <point x="588" y="10"/>
      <point x="588" y="3" type="curve" smooth="yes"/>
      <point x="588" y="-13"/>
      <point x="722" y="-61"/>
      <point x="790" y="-97" type="curve" smooth="yes"/>
      <point x="795" y="-100"/>
      <point x="799" y="-101"/>
      <point x="804" y="-101" type="curve" smooth="yes"/>
      <point x="813" y="-101"/>
      <point x="819" y="-96"/>
      <point x="823" y="-92" type="curve" smooth="yes"/>
      <point x="1038" y="178"/>
      <point x="1334" y="511"/>
    </contour>
    <contour>
      <point x="762" y="678" type="curve" smooth="yes"/>
      <point x="607" y="678"/>
      <point x="547" y="807"/>
      <point x="547" y="946" type="curve" smooth="yes"/>
      <point x="547" y="1067"/>
      <point x="588" y="1231"/>
      <point x="738" y="1231" type="curve" smooth="yes"/>
      <point x="865" y="1231"/>
      <point x="877" y="1043"/>
      <point x="877" y="953" type="curve" smooth="yes"/>
      <point x="877" y="903"/>
      <point x="875" y="868"/>
      <point x="870" y="831" type="curve" smooth="yes"/>
      <point x="865" y="794"/>
      <point x="856" y="754"/>
      <point x="842" y="694" type="curve"/>
      <point x="807" y="682"/>
      <point x="791" y="678"/>
    </contour>
  </outline>
</glyph>
<glyph name="colon" format="1">
  <advance width="668"/>
  <unicode hex="003A"/>
  <outline>
    <contour>
      <point x="609" y="1093" type="line"/>
      <point x="609" y="1128"/>
      <point x="565" y="1117"/>
      <point x="538" y="1117" type="curve" smooth="yes"/>
      <point x="436" y="1116"/>
      <point x="323" y="1115"/>
      <point x="223" y="1115" type="curve"/>
      <point x="168" y="1106"/>
      <point x="181" y="778"/>
      <point x="179" y="727" type="curve" smooth="yes"/>
      <point x="179" y="723" type="line" smooth="yes"/>
      <point x="179" y="719"/>
      <point x="179" y="718"/>
      <point x="181" y="717" type="curve" smooth="yes"/>
      <point x="183" y="716"/>
      <point x="186" y="716"/>
      <point x="190" y="716" type="curve" smooth="yes"/>
      <point x="245" y="716" type="line" smooth="yes"/>
      <point x="353" y="716"/>
      <point x="454" y="718"/>
      <point x="551" y="719" type="curve"/>
      <point x="576" y="722"/>
      <point x="576" y="735"/>
      <point x="581" y="779" type="curve"/>
    </contour>
    <contour>
      <point x="589" y="328" type="line"/>
      <point x="589" y="363"/>
      <point x="545" y="352"/>
      <point x="518" y="352" type="curve" smooth="yes"/>
      <point x="416" y="351"/>
      <point x="303" y="350"/>
      <point x="203" y="350" type="curve"/>
      <point x="148" y="341"/>
      <point x="161" y="13"/>
      <point x="159" y="-38" type="curve" smooth="yes"/>
      <point x="159" y="-42" type="line" smooth="yes"/>
      <point x="159" y="-50"/>
      <point x="163" y="-49"/>
      <point x="170" y="-49" type="curve" smooth="yes"/>
      <point x="225" y="-49" type="line" smooth="yes"/>
      <point x="333" y="-49"/>
      <point x="434" y="-47"/>
      <point x="531" y="-46" type="curve"/>
      <point x="556" y="-43"/>
      <point x="556" y="-30"/>
      <point x="561" y="14" type="curve"/>
    </contour>
  </outline>
</glyph>
<glyph name="semicolon" format="1">
  <advance width="647"/>
  <unicode hex="003B"/>
  <outline>
    <contour>
      <point x="189" y="-286" type="curve" smooth="yes"/>
      <point x="201" y="-289"/>
      <point x="219" y="-292"/>
      <point x="241" y="-295" type="curve" smooth="yes"/>
      <point x="305" y="-321"/>
      <point x="319" y="-322"/>
      <point x="344" y="-318" type="curve" smooth="yes"/>
      <point x="413" y="-298"/>
      <point x="566" y="-167"/>
      <point x="583" y="20" type="curve" smooth="yes"/>
      <point x="584" y="42"/>
      <point x="586" y="66"/>
      <point x="587" y="94" type="curve"/>
      <point x="595" y="292" type="line"/>
      <point x="595" y="311"/>
      <point x="595" y="329"/>
      <point x="593" y="346" type="curve" smooth="yes"/>
      <point x="578" y="348"/>
      <point x="561" y="349"/>
      <point x="544" y="349" type="curve" smooth="yes"/>
      <point x="436" y="349"/>
      <point x="318" y="348"/>
      <point x="208" y="348" type="curve"/>
      <point x="188" y="295"/>
      <point x="186" y="115"/>
      <point x="185" y="45" type="curve" smooth="yes"/>
      <point x="185" y="-7" type="line" smooth="yes"/>
      <point x="211" y="-13"/>
      <point x="275" y="-11"/>
      <point x="324" y="-11" type="curve"/>
      <point x="307" y="-66"/>
      <point x="285" y="-117"/>
      <point x="191" y="-169" type="curve" smooth="yes"/>
      <point x="190" y="-208"/>
      <point x="189" y="-247"/>
    </contour>
    <contour>
      <point x="604" y="1105" type="line"/>
      <point x="586" y="1113"/>
      <point x="564" y="1115"/>
      <point x="541" y="1115" type="curve" smooth="yes"/>
      <point x="438" y="1114"/>
      <point x="325" y="1114"/>
      <point x="221" y="1114" type="curve"/>
      <point x="197" y="1060"/>
      <point x="202" y="861"/>
      <point x="202" y="796" type="curve" smooth="yes"/>
      <point x="202" y="778"/>
      <point x="202" y="760"/>
      <point x="203" y="743" type="curve" smooth="yes"/>
      <point x="222" y="743"/>
      <point x="241" y="743"/>
      <point x="261" y="743" type="curve" smooth="yes"/>
      <point x="371" y="743"/>
      <point x="476" y="744"/>
      <point x="579" y="744" type="curve"/>
      <point x="590" y="762"/>
      <point x="590" y="785"/>
      <point x="592" y="820" type="curve"/>
    </contour>
  </outline>
</glyph>
<glyph name="equal" format="1">
  <advance width="1062"/>
  <unicode hex="003D"/>
  <outline>
    <contour>
      <point x="990" y="398" type="curve"/>
      <point x="990" y="421"/>
      <point x="973" y="427"/>
      <point x="962" y="427" type="curve" smooth="yes"/>
      <point x="926" y="427"/>
      <point x="800" y="420"/>
      <point x="650" y="418" type="curve" smooth="yes"/>
      <point x="271" y="413" type="line"/>
      <point x="242" y="412"/>
      <point x="235" y="392"/>
      <point x="220" y="380" type="curve"/>
      <point x="196" y="319"/>
      <point x="164" y="204"/>
      <point x="164" y="185" type="curve" smooth="yes"/>
      <point x="164" y="162"/>
      <point x="203" y="157"/>
      <point x="283" y="157" type="curve" smooth="yes"/>
      <point x="384" y="157"/>
      <point x="638" y="162"/>
      <point x="878" y="167" type="curve"/>
      <point x="917" y="167"/>
      <point x="924" y="178"/>
      <point x="933" y="201" type="curve"/>
      <point x="957" y="280" type="line" smooth="yes"/>
      <point x="977" y="348"/>
      <point x="991" y="389"/>
    </contour>
    <contour>
      <point x="990" y="867" type="curve"/>
      <point x="990" y="890"/>
      <point x="973" y="896"/>
      <point x="962" y="896" type="curve" smooth="yes"/>
      <point x="920" y="896"/>
      <point x="755" y="887"/>
      <point x="573" y="887" type="curve"/>
      <point x="271" y="882" type="line" smooth="yes"/>
      <point x="242" y="881"/>
      <point x="235" y="862"/>
      <point x="220" y="849" type="curve"/>
      <point x="196" y="788"/>
      <point x="164" y="673"/>
      <point x="164" y="654" type="curve" smooth="yes"/>
      <point x="164" y="631"/>
      <point x="203" y="626"/>
      <point x="283" y="626" type="curve" smooth="yes"/>
      <point x="384" y="626"/>
      <point x="638" y="631"/>
      <point x="878" y="636" type="curve"/>
      <point x="917" y="636"/>
      <point x="924" y="647"/>
      <point x="933" y="670" type="curve"/>
      <point x="957" y="749" type="line" smooth="yes"/>
      <point x="977" y="817"/>
      <point x="991" y="858"/>
    </contour>
  </outline>
</glyph>
<glyph name="A" format="1">
  <advance width="2058"/>
  <unicode hex="0041"/>
  <outline>
    <contour>
      <point x="79" y="31" type="curve"/>
      <point x="171" y="17"/>
      <point x="268" y="1"/>
      <point x="376" y="-15" type="curve" smooth="yes"/>
      <point x="459" y="-27" type="line"/>
      <point x="509" y="-27"/>
      <point x="558" y="-24"/>
      <point x="604" y="-19" type="curve"/>
      <point x="637" y="54"/>
      <point x="666" y="124"/>
      <point x="696" y="201" type="curve"/>
      <point x="764" y="201"/>
      <point x="830" y="199"/>
      <point x="898" y="199" type="curve" smooth="yes"/>
      <point x="969" y="199"/>
      <point x="1017" y="200"/>
      <point x="1103" y="200" type="curve" smooth="yes"/>
      <point x="1159" y="200"/>
      <point x="1222" y="199"/>
      <point x="1268" y="193" type="curve"/>
      <point x="1291" y="111"/>
      <point x="1316" y="52"/>
      <point x="1354" y="-24" type="curve"/>
      <point x="1397" y="-27"/>
      <point x="1441" y="-27"/>
      <point x="1488" y="-27" type="curve" smooth="yes"/>
      <point x="1540" y="-27"/>
      <point x="1610" y="-16"/>
      <point x="1677" y="-6" type="curve" smooth="yes"/>
      <point x="1891" y="24" type="line"/>
      <point x="1938" y="26"/>
      <point x="1981" y="28"/>
      <point x="2022" y="30" type="curve"/>
      <point x="2003" y="75"/>
      <point x="1972" y="118"/>
      <point x="1943" y="198" type="curve"/>
      <point x="1783" y="578"/>
      <point x="1611" y="1011"/>
      <point x="1453" y="1370" type="curve" smooth="yes"/>
      <point x="1442" y="1394"/>
      <point x="1432" y="1418"/>
      <point x="1422" y="1441" type="curve"/>
      <point x="1370" y="1457"/>
      <point x="1310" y="1456"/>
      <point x="1251" y="1456" type="curve" smooth="yes"/>
      <point x="1221" y="1456"/>
      <point x="1191" y="1455"/>
      <point x="1162" y="1454" type="curve" smooth="yes"/>
      <point x="987" y="1447"/>
      <point x="828" y="1424"/>
      <point x="702" y="1414" type="curve"/>
      <point x="589" y="1172"/>
      <point x="452" y="852"/>
      <point x="331" y="580" type="curve"/>
      <point x="331" y="579"/>
      <point x="240" y="579"/>
      <point x="240" y="575" type="curve"/>
      <point x="221" y="501"/>
      <point x="226" y="420"/>
      <point x="228" y="350" type="curve"/>
      <point x="178" y="243"/>
      <point x="126" y="129"/>
    </contour>
    <contour>
      <point x="1007" y="1012" type="curve"/>
      <point x="1055" y="832"/>
      <point x="1105" y="685"/>
      <point x="1153" y="535" type="curve"/>
      <point x="832" y="535" type="line"/>
      <point x="845" y="567"/>
      <point x="857" y="603"/>
      <point x="870" y="636" type="curve" smooth="yes"/>
      <point x="902" y="721"/>
      <point x="954" y="848"/>
    </contour>
  </outline>
</glyph>
<glyph name="C" format="1">
  <advance width="1971"/>
  <unicode hex="0043"/>
  <outline>
    <contour>
      <point x="121" y="701" type="curve" smooth="yes"/>
      <point x="121" y="166"/>
      <point x="601" y="-46"/>
      <point x="1105" y="-46" type="curve" smooth="yes"/>
      <point x="1323" y="-46"/>
      <point x="1658" y="-19"/>
      <point x="1781" y="125" type="curve" smooth="yes"/>
      <point x="1840" y="194"/>
      <point x="1877" y="295"/>
      <point x="1877" y="398" type="curve" smooth="yes"/>
      <point x="1877" y="423"/>
      <point x="1873" y="442"/>
      <point x="1865" y="459" type="curve"/>
      <point x="1824" y="463"/>
      <point x="1782" y="465"/>
      <point x="1743" y="468" type="curve"/>
      <point x="1616" y="449"/>
      <point x="1505" y="448"/>
      <point x="1361" y="455" type="curve"/>
      <point x="1346" y="381"/>
      <point x="1300" y="332"/>
      <point x="1136" y="332" type="curve"/>
      <point x="911" y="335"/>
      <point x="782" y="463"/>
      <point x="782" y="710" type="curve" smooth="yes"/>
      <point x="782" y="969"/>
      <point x="960" y="1087"/>
      <point x="1219" y="1068" type="curve" smooth="yes"/>
      <point x="1300" y="1062"/>
      <point x="1351" y="1034"/>
      <point x="1392" y="985" type="curve"/>
      <point x="1551" y="990"/>
      <point x="1681" y="937"/>
      <point x="1781" y="943" type="curve" smooth="yes"/>
      <point x="1824" y="946"/>
      <point x="1867" y="950"/>
      <point x="1907" y="954" type="curve"/>
      <point x="1909" y="959"/>
      <point x="1910" y="964"/>
      <point x="1910" y="968" type="curve" smooth="yes"/>
      <point x="1910" y="1009"/>
      <point x="1902" y="1092"/>
      <point x="1902" y="1109" type="curve" smooth="yes"/>
      <point x="1902" y="1114"/>
      <point x="1902" y="1116"/>
      <point x="1903" y="1118" type="curve"/>
      <point x="1860" y="1374"/>
      <point x="1493" y="1492"/>
      <point x="1088" y="1466" type="curve"/>
      <point x="586" y="1438"/>
      <point x="121" y="1218"/>
    </contour>
  </outline>
</glyph>
<glyph name="D" format="1">
  <advance width="2058"/>
  <unicode hex="0044"/>
  <outline>
    <contour>
      <point x="150" y="1290" type="curve"/>
      <point x="170" y="1235"/>
      <point x="208" y="1189"/>
      <point x="238" y="1141" type="curve"/>
      <point x="232" y="888" type="line"/>
      <point x="225" y="685"/>
      <point x="221" y="422"/>
      <point x="209" y="263" type="curve"/>
      <point x="191" y="229"/>
      <point x="174" y="195"/>
      <point x="156" y="162" type="curve" smooth="yes"/>
      <point x="155" y="160"/>
      <point x="155" y="158"/>
      <point x="155" y="155" type="curve" smooth="yes"/>
      <point x="155" y="94"/>
      <point x="157" y="34"/>
      <point x="164" y="-22" type="curve"/>
      <point x="521" y="-22" type="line" smooth="yes"/>
      <point x="653" y="-22"/>
      <point x="786" y="-20"/>
      <point x="920" y="-14" type="curve" smooth="yes"/>
      <point x="1487" y="14"/>
      <point x="1990" y="107"/>
      <point x="1990" y="781" type="curve" smooth="yes"/>
      <point x="1990" y="1241"/>
      <point x="1616" y="1451"/>
      <point x="1105" y="1451" type="curve" smooth="yes"/>
      <point x="1056" y="1451"/>
      <point x="1010" y="1451"/>
      <point x="967" y="1450" type="curve" smooth="yes"/>
      <point x="881" y="1449"/>
      <point x="805" y="1446"/>
      <point x="733" y="1440" type="curve" smooth="yes"/>
      <point x="553" y="1425"/>
      <point x="431" y="1374"/>
      <point x="280" y="1311" type="curve" smooth="yes"/>
      <point x="278" y="1310"/>
      <point x="277" y="1307"/>
      <point x="277" y="1303" type="curve"/>
      <point x="231" y="1297"/>
      <point x="189" y="1290"/>
    </contour>
    <contour>
      <point x="834" y="972" type="curve"/>
      <point x="840" y="1102" type="line"/>
      <point x="865" y="1105"/>
      <point x="967" y="1110"/>
      <point x="1020" y="1110" type="curve" smooth="yes"/>
      <point x="1219" y="1110"/>
      <point x="1379" y="996"/>
      <point x="1379" y="742" type="curve" smooth="yes"/>
      <point x="1379" y="388"/>
      <point x="1177" y="325"/>
      <point x="806" y="325" type="curve"/>
      <point x="806" y="410"/>
      <point x="821" y="721"/>
    </contour>
  </outline>
</glyph>
<glyph name="E" format="1">
  <advance width="1868"/>
  <unicode hex="0045"/>
  <outline>
    <contour>
      <point x="297" y="6" type="curve" smooth="yes"/>
      <point x="495" y="-15"/>
      <point x="948" y="-22"/>
      <point x="1217" y="-22" type="curve" smooth="yes"/>
      <point x="1330" y="-22"/>
      <point x="1403" y="-7"/>
      <point x="1509" y="24" type="curve" smooth="yes"/>
      <point x="1601" y="52"/>
      <point x="1697" y="87"/>
      <point x="1772" y="89" type="curve"/>
      <point x="1772" y="321" type="line"/>
      <point x="816" y="321" type="line"/>
      <point x="828" y="567" type="line"/>
      <point x="921" y="568"/>
      <point x="1015" y="568"/>
      <point x="1108" y="568" type="curve" smooth="yes"/>
      <point x="1166" y="568"/>
      <point x="1232" y="570"/>
      <point x="1281" y="570" type="curve"/>
      <point x="1328" y="571"/>
      <point x="1366" y="573"/>
      <point x="1405" y="584" type="curve"/>
      <point x="1427" y="664"/>
      <point x="1451" y="741"/>
      <point x="1451" y="780" type="curve" smooth="yes"/>
      <point x="1451" y="813"/>
      <point x="1449" y="846"/>
      <point x="1447" y="877" type="curve"/>
      <point x="1393" y="877"/>
      <point x="1336" y="879"/>
      <point x="1282" y="879" type="curve" smooth="yes"/>
      <point x="1164" y="879"/>
      <point x="1004" y="877"/>
      <point x="841" y="875" type="curve"/>
      <point x="847" y="960"/>
      <point x="847" y="1029"/>
      <point x="853" y="1086" type="curve"/>
      <point x="1167" y="1088"/>
      <point x="1493" y="1084"/>
      <point x="1733" y="1108" type="curve"/>
      <point x="1752" y="1267" type="line"/>
      <point x="1759" y="1282"/>
      <point x="1765" y="1296"/>
      <point x="1769" y="1308" type="curve"/>
      <point x="1775" y="1440" type="line"/>
      <point x="1721" y="1453"/>
      <point x="1654" y="1453"/>
      <point x="1599" y="1453" type="curve"/>
      <point x="965" y="1437" type="line"/>
      <point x="392" y="1437" type="line"/>
      <point x="322" y="1411"/>
      <point x="207" y="1323"/>
      <point x="153" y="1309" type="curve"/>
      <point x="153" y="1245"/>
      <point x="164" y="1188"/>
      <point x="191" y="1133" type="curve"/>
      <point x="200" y="1133"/>
      <point x="211" y="1133"/>
      <point x="223" y="1134" type="curve"/>
      <point x="221" y="1008"/>
      <point x="218" y="881"/>
      <point x="215" y="754" type="curve" smooth="yes"/>
      <point x="210" y="590"/>
      <point x="155" y="393"/>
      <point x="155" y="246" type="curve" smooth="yes"/>
      <point x="155" y="236"/>
      <point x="171" y="235"/>
      <point x="206" y="234" type="curve"/>
      <point x="255" y="238"/>
      <point x="298" y="147"/>
      <point x="344" y="89" type="curve"/>
      <point x="322" y="49"/>
      <point x="293" y="6"/>
    </contour>
  </outline>
</glyph>
<glyph name="F" format="1">
  <advance width="1750"/>
  <unicode hex="0046"/>
  <outline>
    <contour>
      <point x="151" y="1308" type="curve"/>
      <point x="151" y="1221"/>
      <point x="161" y="1140"/>
      <point x="189" y="1062" type="curve"/>
      <point x="201" y="1062"/>
      <point x="210" y="1063"/>
      <point x="232" y="1063" type="curve"/>
      <point x="224" y="828" type="line"/>
      <point x="220" y="784"/>
      <point x="147" y="633"/>
      <point x="147" y="586" type="curve" smooth="yes"/>
      <point x="147" y="576"/>
      <point x="166" y="574"/>
      <point x="214" y="574" type="curve"/>
      <point x="211" y="421" type="line"/>
      <point x="206" y="286"/>
      <point x="196" y="122"/>
      <point x="197" y="-14" type="curve"/>
      <point x="247" y="-23"/>
      <point x="302" y="-27"/>
      <point x="359" y="-29" type="curve" smooth="yes"/>
      <point x="388" y="-30"/>
      <point x="417" y="-30"/>
      <point x="446" y="-30" type="curve" smooth="yes"/>
      <point x="550" y="-30"/>
      <point x="732" y="18"/>
      <point x="812" y="21" type="curve"/>
      <point x="817" y="57"/>
      <point x="819" y="94"/>
      <point x="820" y="132" type="curve" smooth="yes"/>
      <point x="835" y="517" type="line"/>
      <point x="1195" y="519" type="line" smooth="yes"/>
      <point x="1290" y="520"/>
      <point x="1371" y="524"/>
      <point x="1453" y="534" type="curve"/>
      <point x="1476" y="644"/>
      <point x="1499" y="759"/>
      <point x="1499" y="826" type="curve"/>
      <point x="1459" y="836"/>
      <point x="1413" y="838"/>
      <point x="1370" y="838" type="curve" smooth="yes"/>
      <point x="1234" y="838"/>
      <point x="1041" y="835"/>
      <point x="849" y="833" type="curve"/>
      <point x="851" y="923"/>
      <point x="851" y="988"/>
      <point x="859" y="1087" type="curve"/>
      <point x="1321" y="1093" type="line"/>
      <point x="1461" y="1093"/>
      <point x="1620" y="1091"/>
      <point x="1738" y="1111" type="curve"/>
      <point x="1757" y="1270" type="line"/>
      <point x="1772" y="1345"/>
      <point x="1780" y="1401"/>
      <point x="1780" y="1441" type="curve"/>
      <point x="1743" y="1453"/>
      <point x="1694" y="1453"/>
      <point x="1656" y="1453" type="curve" smooth="yes"/>
      <point x="1521" y="1452"/>
      <point x="1303" y="1447"/>
      <point x="1091" y="1444" type="curve"/>
      <point x="450" y="1437" type="line"/>
      <point x="340" y="1401"/>
      <point x="219" y="1324"/>
    </contour>
  </outline>
</glyph>
<glyph name="G" format="1">
  <advance width="2046"/>
  <unicode hex="0047"/>
  <outline>
    <contour>
      <point x="119" y="688" type="curve" smooth="yes"/>
      <point x="119" y="192"/>
      <point x="556" y="-46"/>
      <point x="1046" y="-46" type="curve" smooth="yes"/>
      <point x="1240" y="-46"/>
      <point x="1549" y="-8"/>
      <point x="1718" y="229" type="curve"/>
      <point x="1750" y="185"/>
      <point x="1782" y="179"/>
      <point x="1815" y="170" type="curve"/>
      <point x="1848" y="178"/>
      <point x="1882" y="187"/>
      <point x="1920" y="187" type="curve"/>
      <point x="1953" y="261"/>
      <point x="1951" y="337"/>
      <point x="1963" y="447" type="curve" smooth="yes"/>
      <point x="1984" y="631" type="line"/>
      <point x="1986" y="678"/>
      <point x="1987" y="722"/>
      <point x="1987" y="765" type="curve"/>
      <point x="1951" y="775"/>
      <point x="1909" y="775"/>
      <point x="1860" y="775" type="curve" smooth="yes"/>
      <point x="1312" y="775" type="line" smooth="yes"/>
      <point x="1275" y="775"/>
      <point x="1238" y="775"/>
      <point x="1202" y="775" type="curve"/>
      <point x="1179" y="730"/>
      <point x="1170" y="676"/>
      <point x="1145" y="493" type="curve"/>
      <point x="1402" y="493" type="line"/>
      <point x="1375" y="392"/>
      <point x="1263" y="313"/>
      <point x="1112" y="313" type="curve" smooth="yes"/>
      <point x="899" y="313"/>
      <point x="781" y="453"/>
      <point x="781" y="697" type="curve" smooth="yes"/>
      <point x="781" y="941"/>
      <point x="907" y="1058"/>
      <point x="1113" y="1087" type="curve"/>
      <point x="1278" y="1093"/>
      <point x="1348" y="1062"/>
      <point x="1390" y="997" type="curve"/>
      <point x="1549" y="1002"/>
      <point x="1679" y="949"/>
      <point x="1779" y="955" type="curve" smooth="yes"/>
      <point x="1823" y="958"/>
      <point x="1864" y="961"/>
      <point x="1905" y="966" type="curve"/>
      <point x="1907" y="971"/>
      <point x="1908" y="975"/>
      <point x="1908" y="979" type="curve" smooth="yes"/>
      <point x="1908" y="1209"/>
      <point x="1903" y="1165"/>
      <point x="1866" y="1228" type="curve" smooth="yes"/>
      <point x="1762" y="1403"/>
      <point x="1459" y="1472"/>
      <point x="1147" y="1472" type="curve" smooth="yes"/>
      <point x="614" y="1472"/>
      <point x="119" y="1234"/>
    </contour>
  </outline>
</glyph>
<glyph name="H" format="1">
  <advance width="2040"/>
  <unicode hex="0048"/>
  <outline>
    <contour>
      <point x="222" y="1386" type="curve"/>
      <point x="219" y="1285"/>
      <point x="214" y="1147"/>
      <point x="214" y="1076" type="curve"/>
      <point x="204" y="869" type="line"/>
      <point x="202" y="849"/>
      <point x="197" y="824"/>
      <point x="189" y="796" type="curve" smooth="yes"/>
      <point x="166" y="711"/>
      <point x="126" y="598"/>
      <point x="126" y="540" type="curve" smooth="yes"/>
      <point x="126" y="530"/>
      <point x="146" y="528"/>
      <point x="192" y="528" type="curve"/>
      <point x="184" y="344"/>
      <point x="175" y="147"/>
      <point x="175" y="-14" type="curve"/>
      <point x="209" y="-26"/>
      <point x="251" y="-30"/>
      <point x="294" y="-30" type="curve" smooth="yes"/>
      <point x="401" y="-30"/>
      <point x="629" y="10"/>
      <point x="754" y="21" type="curve"/>
      <point x="761" y="59"/>
      <point x="761" y="99"/>
      <point x="762" y="140" type="curve"/>
      <point x="779" y="539" type="line"/>
      <point x="1316" y="539" type="line"/>
      <point x="1305" y="394"/>
      <point x="1298" y="236"/>
      <point x="1298" y="92" type="curve" smooth="yes"/>
      <point x="1298" y="44"/>
      <point x="1305" y="6"/>
      <point x="1313" y="-30" type="curve"/>
      <point x="1402" y="-30"/>
      <point x="1591" y="16"/>
      <point x="1673" y="21" type="curve"/>
      <point x="1749" y="23"/>
      <point x="1820" y="29"/>
      <point x="1892" y="34" type="curve"/>
      <point x="1893" y="63"/>
      <point x="1894" y="92"/>
      <point x="1895" y="121" type="curve" smooth="yes"/>
      <point x="1915" y="642" type="line" smooth="yes"/>
      <point x="1918" y="728"/>
      <point x="1921" y="810"/>
      <point x="1925" y="888" type="curve"/>
      <point x="1928" y="970" type="line"/>
      <point x="1932" y="1052" type="line"/>
      <point x="1944" y="1133"/>
      <point x="1945" y="1238"/>
      <point x="1950" y="1331" type="curve"/>
      <point x="1950" y="1373"/>
      <point x="1950" y="1412"/>
      <point x="1948" y="1449" type="curve"/>
      <point x="1911" y="1452"/>
      <point x="1873" y="1453"/>
      <point x="1834" y="1453" type="curve" smooth="yes"/>
      <point x="1830" y="1453"/>
      <point x="1826" y="1452"/>
      <point x="1822" y="1451" type="curve"/>
      <point x="1464" y="1415" type="line"/>
      <point x="1423" y="1414"/>
      <point x="1384" y="1411"/>
      <point x="1347" y="1407" type="curve"/>
      <point x="1343" y="1300"/>
      <point x="1344" y="1222"/>
      <point x="1328" y="888" type="curve"/>
      <point x="1148" y="888"/>
      <point x="968" y="887"/>
      <point x="788" y="887" type="curve"/>
      <point x="796" y="1052" type="line"/>
      <point x="807" y="1139"/>
      <point x="807" y="1219"/>
      <point x="815" y="1335" type="curve"/>
      <point x="815" y="1376"/>
      <point x="814" y="1413"/>
      <point x="813" y="1449" type="curve"/>
      <point x="776" y="1452"/>
      <point x="740" y="1453"/>
      <point x="701" y="1453" type="curve" smooth="yes"/>
      <point x="618" y="1453"/>
      <point x="524" y="1427"/>
      <point x="441" y="1415" type="curve"/>
      <point x="361" y="1412"/>
      <point x="292" y="1406"/>
    </contour>
  </outline>
</glyph>
<glyph name="I" format="1">
  <advance width="903"/>
  <unicode hex="0049"/>
  <outline>
    <contour>
      <point x="801" y="1453" type="curve"/>
      <point x="749" y="1453"/>
      <point x="697" y="1452"/>
      <point x="644" y="1451" type="curve"/>
      <point x="351" y="1415" type="line"/>
      <point x="291" y="1413"/>
      <point x="243" y="1407"/>
      <point x="193" y="1386" type="curve"/>
      <point x="193" y="1350"/>
      <point x="192" y="1304"/>
      <point x="191" y="1247" type="curve" smooth="yes"/>
      <point x="188" y="1133"/>
      <point x="182" y="977"/>
      <point x="172" y="773" type="curve"/>
      <point x="151" y="151" type="line"/>
      <point x="151" y="84"/>
      <point x="157" y="25"/>
      <point x="166" y="-30" type="curve"/>
      <point x="281" y="-30"/>
      <point x="507" y="12"/>
      <point x="612" y="12" type="curve"/>
      <point x="667" y="15"/>
      <point x="716" y="21"/>
      <point x="765" y="26" type="curve"/>
      <point x="766" y="63"/>
      <point x="768" y="100"/>
      <point x="769" y="137" type="curve" smooth="yes"/>
      <point x="784" y="580" type="line"/>
      <point x="797" y="839"/>
      <point x="795" y="1014"/>
      <point x="812" y="1269" type="curve"/>
      <point x="812" y="1339"/>
      <point x="809" y="1398"/>
    </contour>
  </outline>
</glyph>
<glyph name="J" format="1">
  <advance width="1145"/>
  <unicode hex="004A"/>
  <outline>
    <contour>
      <point x="1074" y="1449" type="curve"/>
      <point x="1031" y="1452"/>
      <point x="987" y="1453"/>
      <point x="942" y="1453" type="curve" smooth="yes"/>
      <point x="938" y="1453"/>
      <point x="935" y="1452"/>
      <point x="931" y="1451" type="curve"/>
      <point x="538" y="1415" type="line"/>
      <point x="491" y="1414"/>
      <point x="447" y="1412"/>
      <point x="405" y="1408" type="curve"/>
      <point x="403" y="1363"/>
      <point x="403" y="1316"/>
      <point x="403" y="1266" type="curve"/>
      <point x="380" y="597" type="line"/>
      <point x="380" y="597"/>
      <point x="380" y="597"/>
      <point x="380" y="597" type="curve"/>
      <point x="380" y="597"/>
      <point x="380" y="597"/>
      <point x="380" y="597" type="curve"/>
      <point x="380" y="597"/>
      <point x="380" y="597"/>
      <point x="380" y="597" type="curve"/>
      <point x="378" y="528"/>
      <point x="371" y="471"/>
      <point x="358" y="425" type="curve" smooth="yes"/>
      <point x="339" y="356"/>
      <point x="309" y="310"/>
      <point x="263" y="279" type="curve" smooth="yes"/>
      <point x="217" y="248"/>
      <point x="157" y="231"/>
      <point x="82" y="220" type="curve"/>
      <point x="80" y="162"/>
      <point x="77" y="103"/>
      <point x="76" y="44" type="curve" smooth="yes"/>
      <point x="75" y="24"/>
      <point x="75" y="5"/>
      <point x="75" y="-14" type="curve"/>
      <point x="133" y="-57"/>
      <point x="207" y="-130"/>
      <point x="277" y="-130" type="curve"/>
      <point x="376" y="-125"/>
      <point x="472" y="-107"/>
      <point x="561" y="-77" type="curve" smooth="yes"/>
      <point x="761" y="-9"/>
      <point x="925" y="124"/>
      <point x="998" y="329" type="curve"/>
      <point x="1045" y="466"/>
      <point x="1041" y="586"/>
      <point x="1055" y="854" type="curve"/>
      <point x="1067" y="1117" type="line" smooth="yes"/>
      <point x="1070" y="1183"/>
      <point x="1073" y="1248"/>
      <point x="1076" y="1314" type="curve"/>
      <point x="1076" y="1361"/>
      <point x="1076" y="1406"/>
    </contour>
  </outline>
</glyph>
<glyph name="K" format="1">
  <advance width="1945"/>
  <unicode hex="004B"/>
  <outline>
    <contour>
      <point x="1449" y="1424" type="curve" smooth="yes"/>
      <point x="1449" y="1434"/>
      <point x="1438" y="1436"/>
      <point x="1418" y="1436" type="curve" smooth="yes"/>
      <point x="1413" y="1436"/>
      <point x="1410" y="1436"/>
      <point x="1409" y="1435" type="curve"/>
      <point x="1360" y="1431"/>
      <point x="1310" y="1427"/>
      <point x="1261" y="1423" type="curve" smooth="yes"/>
      <point x="965" y="1398" type="line"/>
      <point x="960" y="1393"/>
      <point x="887" y="1303"/>
      <point x="818" y="1215" type="curve" smooth="yes"/>
      <point x="771" y="1156" type="line" smooth="yes"/>
      <point x="731" y="1107"/>
      <point x="691" y="1060"/>
      <point x="650" y="1013" type="curve"/>
      <point x="625" y="987" type="line"/>
      <point x="633" y="1059"/>
      <point x="648" y="1279"/>
      <point x="656" y="1384" type="curve" smooth="yes"/>
      <point x="660" y="1431" type="line"/>
      <point x="660" y="1448"/>
      <point x="659" y="1460"/>
      <point x="655" y="1466" type="curve" smooth="yes"/>
      <point x="651" y="1472"/>
      <point x="645" y="1474"/>
      <point x="636" y="1474" type="curve" smooth="yes"/>
      <point x="627" y="1474"/>
      <point x="618" y="1473"/>
      <point x="609" y="1470" type="curve"/>
      <point x="563" y="1459"/>
      <point x="517" y="1448"/>
      <point x="471" y="1437" type="curve" smooth="yes"/>
      <point x="263" y="1387" type="line" smooth="yes"/>
      <point x="250" y="1384"/>
      <point x="244" y="1379"/>
      <point x="241" y="1369" type="curve" smooth="yes"/>
      <point x="236" y="1352"/>
      <point x="235" y="1293"/>
      <point x="231" y="1249" type="curve"/>
      <point x="198" y="771"/>
      <point x="166" y="303"/>
      <point x="148" y="63" type="curve" smooth="yes"/>
      <point x="145" y="26"/>
      <point x="143" y="-6"/>
      <point x="141" y="-32" type="curve"/>
      <point x="141" y="-46"/>
      <point x="145" y="-55"/>
      <point x="151" y="-61" type="curve" smooth="yes"/>
      <point x="157" y="-67"/>
      <point x="166" y="-69"/>
      <point x="176" y="-69" type="curve" smooth="yes"/>
      <point x="199" y="-69"/>
      <point x="225" y="-58"/>
      <point x="240" y="-53" type="curve" smooth="yes"/>
      <point x="263" y="-45"/>
      <point x="287" y="-37"/>
      <point x="311" y="-28" type="curve" smooth="yes"/>
      <point x="382" y="-3"/>
      <point x="452" y="23"/>
      <point x="523" y="49" type="curve" smooth="yes"/>
      <point x="538" y="54"/>
      <point x="539" y="68"/>
      <point x="540" y="80" type="curve" smooth="yes"/>
      <point x="569" y="438" type="line" smooth="yes"/>
      <point x="573" y="482"/>
      <point x="566" y="497"/>
      <point x="609" y="540" type="curve"/>
      <point x="652" y="489"/>
      <point x="743" y="370"/>
      <point x="838" y="251" type="curve" smooth="yes"/>
      <point x="1004" y="42"/>
      <point x="1063" y="-55"/>
      <point x="1119" y="-55" type="curve" smooth="yes"/>
      <point x="1227" y="-55"/>
      <point x="1441" y="131"/>
      <point x="1441" y="128" type="curve" smooth="yes"/>
      <point x="1441" y="142"/>
      <point x="1406" y="144"/>
      <point x="1393" y="160" type="curve" smooth="yes"/>
      <point x="1281" y="289"/>
      <point x="1174" y="430"/>
      <point x="1054" y="550" type="curve"/>
      <point x="851" y="764" type="line"/>
      <point x="918" y="825"/>
      <point x="972" y="875"/>
      <point x="1015" y="916" type="curve" smooth="yes"/>
      <point x="1078" y="976" type="line"/>
      <point x="1095" y="999"/>
      <point x="1230" y="1157"/>
      <point x="1330" y="1274" type="curve" smooth="yes"/>
      <point x="1423" y="1383" type="line" smooth="yes"/>
      <point x="1440" y="1403"/>
      <point x="1449" y="1415"/>
    </contour>
  </outline>
</glyph>
<glyph name="L" format="1">
  <advance width="1633"/>
  <unicode hex="004C"/>
  <outline>
    <contour>
      <point x="126" y="-15" type="curve"/>
      <point x="186" y="-20"/>
      <point x="252" y="-22"/>
      <point x="327" y="-22" type="curve" smooth="yes"/>
      <point x="634" y="-20"/>
      <point x="1078" y="-17"/>
      <point x="1366" y="-12" type="curve"/>
      <point x="1464" y="-9"/>
      <point x="1530" y="13"/>
      <point x="1603" y="50" type="curve"/>
      <point x="1612" y="187" type="line"/>
      <point x="1625" y="262"/>
      <point x="1626" y="301"/>
      <point x="1626" y="340" type="curve"/>
      <point x="1574" y="349"/>
      <point x="1520" y="353"/>
      <point x="1455" y="353" type="curve" smooth="yes"/>
      <point x="1450" y="353"/>
      <point x="1443" y="352"/>
      <point x="1435" y="351" type="curve"/>
      <point x="785" y="333" type="line"/>
      <point x="799" y="615"/>
      <point x="808" y="765"/>
      <point x="814" y="972" type="curve"/>
      <point x="814" y="1019"/>
      <point x="823" y="1125"/>
      <point x="827" y="1212" type="curve" smooth="yes"/>
      <point x="828" y="1241"/>
      <point x="829" y="1268"/>
      <point x="829" y="1290" type="curve" smooth="yes"/>
      <point x="829" y="1351"/>
      <point x="827" y="1404"/>
      <point x="821" y="1454" type="curve"/>
      <point x="766" y="1454"/>
      <point x="712" y="1454"/>
      <point x="659" y="1453" type="curve"/>
      <point x="433" y="1426" type="line" smooth="yes"/>
      <point x="340" y="1415"/>
      <point x="266" y="1415"/>
      <point x="195" y="1388" type="curve"/>
      <point x="195" y="1331"/>
      <point x="194" y="1253"/>
      <point x="191" y="1145" type="curve" smooth="yes"/>
      <point x="183" y="867" type="line" smooth="yes"/>
      <point x="180" y="762"/>
      <point x="175" y="652"/>
      <point x="170" y="545" type="curve"/>
      <point x="159" y="229" type="line"/>
      <point x="144" y="144"/>
      <point x="126" y="53"/>
    </contour>
  </outline>
</glyph>
<glyph name="M" format="1">
  <advance width="2399"/>
  <unicode hex="004D"/>
  <outline>
    <contour>
      <point x="482" y="1347" type="curve"/>
      <point x="393" y="1324"/>
      <point x="305" y="1300"/>
      <point x="216" y="1277" type="curve"/>
      <point x="164" y="562" type="line" smooth="yes"/>
      <point x="156" y="450"/>
      <point x="147" y="300"/>
      <point x="132" y="183" type="curve"/>
      <point x="127" y="128"/>
      <point x="119" y="60"/>
      <point x="119" y="17" type="curve"/>
      <point x="175" y="4"/>
      <point x="272" y="-13"/>
      <point x="365" y="-22" type="curve" smooth="yes"/>
      <point x="412" y="-27"/>
      <point x="457" y="-29"/>
      <point x="496" y="-29" type="curve" smooth="yes"/>
      <point x="545" y="-29"/>
      <point x="590" y="-27"/>
      <point x="633" y="-24" type="curve"/>
      <point x="708" y="725" type="line"/>
      <point x="816" y="472"/>
      <point x="930" y="170"/>
      <point x="1044" y="28" type="curve"/>
      <point x="1130" y="28"/>
      <point x="1218" y="34"/>
      <point x="1305" y="48" type="curve"/>
      <point x="1706" y="764" type="line"/>
      <point x="1723" y="533" type="line"/>
      <point x="1729" y="369"/>
      <point x="1738" y="77"/>
      <point x="1770" y="-29" type="curve"/>
      <point x="1898" y="-29"/>
      <point x="2153" y="2"/>
      <point x="2283" y="14" type="curve"/>
      <point x="2288" y="145" type="line"/>
      <point x="2259" y="611" type="line"/>
      <point x="2253" y="818"/>
      <point x="2235" y="1045"/>
      <point x="2209" y="1431" type="curve"/>
      <point x="2123" y="1448"/>
      <point x="2031" y="1453"/>
      <point x="1940" y="1453" type="curve" smooth="yes"/>
      <point x="1938" y="1453"/>
      <point x="1935" y="1453"/>
      <point x="1932" y="1453" type="curve" smooth="yes"/>
      <point x="1549" y="1417" type="line"/>
      <point x="1194" y="743" type="line"/>
      <point x="1106" y="941"/>
      <point x="1018" y="1139"/>
      <point x="930" y="1337" type="curve"/>
      <point x="929" y="1341"/>
      <point x="928" y="1344"/>
      <point x="925" y="1345" type="curve" smooth="yes"/>
      <point x="922" y="1346"/>
      <point x="918" y="1346"/>
      <point x="914" y="1346" type="curve"/>
      <point x="748" y="1420" type="line"/>
      <point x="664" y="1417"/>
      <point x="574" y="1382"/>
    </contour>
  </outline>
</glyph>
<glyph name="N" format="1">
  <advance width="2093"/>
  <unicode hex="004E"/>
  <outline>
    <contour>
      <point x="159" y="1389" type="curve"/>
      <point x="159" y="1336"/>
      <point x="194" y="1235"/>
      <point x="194" y="1184" type="curve"/>
      <point x="193" y="1150"/>
      <point x="192" y="1115"/>
      <point x="191" y="1080" type="curve" smooth="yes"/>
      <point x="182" y="764"/>
      <point x="167" y="419"/>
      <point x="156" y="125" type="curve"/>
      <point x="156" y="67"/>
      <point x="163" y="17"/>
      <point x="171" y="-29" type="curve"/>
      <point x="335" y="-29"/>
      <point x="554" y="17"/>
      <point x="681" y="26" type="curve"/>
      <point x="682" y="58"/>
      <point x="683" y="89"/>
      <point x="684" y="121" type="curve" smooth="yes"/>
      <point x="699" y="691" type="line"/>
      <point x="1398" y="-40" type="line"/>
      <point x="1471" y="-41"/>
      <point x="1636" y="14"/>
      <point x="1727" y="25" type="curve"/>
      <point x="1821" y="38"/>
      <point x="1897" y="42"/>
      <point x="1971" y="54" type="curve"/>
      <point x="1971" y="107"/>
      <point x="1971" y="161"/>
      <point x="1971" y="220" type="curve" smooth="yes"/>
      <point x="1971" y="220"/>
      <point x="1971" y="220"/>
      <point x="1971" y="220" type="curve"/>
      <point x="1971" y="222"/>
      <point x="1971" y="224"/>
      <point x="1971" y="227" type="curve" smooth="yes"/>
      <point x="1974" y="440" type="line" smooth="yes"/>
      <point x="1976" y="614"/>
      <point x="1978" y="819"/>
      <point x="1978" y="983" type="curve" smooth="yes"/>
      <point x="1978" y="1080"/>
      <point x="1980" y="1221"/>
      <point x="1987" y="1295" type="curve"/>
      <point x="1987" y="1355"/>
      <point x="1983" y="1406"/>
      <point x="1976" y="1452" type="curve"/>
      <point x="1931" y="1452"/>
      <point x="1885" y="1451"/>
      <point x="1841" y="1450" type="curve"/>
      <point x="1482" y="1424" type="line"/>
      <point x="1470" y="1386"/>
      <point x="1469" y="1342"/>
      <point x="1465" y="1288" type="curve"/>
      <point x="1465" y="753" type="line"/>
      <point x="973" y="1376" type="line"/>
      <point x="940" y="1407"/>
      <point x="906" y="1437"/>
      <point x="873" y="1466" type="curve"/>
      <point x="833" y="1466"/>
      <point x="792" y="1467"/>
      <point x="751" y="1467" type="curve" smooth="yes"/>
      <point x="711" y="1467"/>
      <point x="669" y="1466"/>
      <point x="629" y="1466" type="curve"/>
      <point x="600" y="1460"/>
      <point x="571" y="1455"/>
      <point x="543" y="1450" type="curve" smooth="yes"/>
      <point x="287" y="1401" type="line"/>
      <point x="244" y="1397"/>
      <point x="202" y="1393"/>
    </contour>
  </outline>
</glyph>
<glyph name="O" format="1">
  <advance width="2247"/>
  <unicode hex="004F"/>
  <outline>
    <contour>
      <point x="1150" y="322" type="curve"/>
      <point x="916" y="322"/>
      <point x="799" y="460"/>
      <point x="799" y="704" type="curve"/>
      <point x="801" y="939"/>
      <point x="925" y="1108"/>
      <point x="1161" y="1108" type="curve" smooth="yes"/>
      <point x="1381" y="1108"/>
      <point x="1509" y="985"/>
      <point x="1509" y="742" type="curve" smooth="yes"/>
      <point x="1509" y="491"/>
      <point x="1399" y="329"/>
    </contour>
    <contour>
      <point x="1101" y="-46" type="curve" smooth="yes"/>
      <point x="1609" y="-46"/>
      <point x="2181" y="164"/>
      <point x="2181" y="753" type="curve" smooth="yes"/>
      <point x="2181" y="1323"/>
      <point x="1638" y="1491"/>
      <point x="1113" y="1514" type="curve"/>
      <point x="1098" y="1514"/>
      <point x="1101" y="1462"/>
      <point x="1087" y="1462" type="curve"/>
      <point x="633" y="1423"/>
      <point x="119" y="1210"/>
      <point x="119" y="687" type="curve" smooth="yes"/>
      <point x="119" y="157"/>
      <point x="627" y="-46"/>
    </contour>
  </outline>
</glyph>
<glyph name="P" format="1">
  <advance width="1924"/>
  <unicode hex="0050"/>
  <outline>
    <contour>
      <point x="149" y="1292" type="line"/>
      <point x="149" y="1195"/>
      <point x="152" y="1102"/>
      <point x="158" y="1010" type="curve"/>
      <point x="167" y="1010"/>
      <point x="185" y="1013"/>
      <point x="216" y="1020" type="curve"/>
      <point x="211" y="817"/>
      <point x="197" y="527"/>
      <point x="188" y="293" type="curve"/>
      <point x="182" y="90" type="line" smooth="yes"/>
      <point x="181" y="55"/>
      <point x="181" y="20"/>
      <point x="180" y="-15" type="curve"/>
      <point x="228" y="-27"/>
      <point x="279" y="-30"/>
      <point x="335" y="-30" type="curve" smooth="yes"/>
      <point x="449" y="-30"/>
      <point x="671" y="12"/>
      <point x="770" y="20" type="curve"/>
      <point x="777" y="162" type="line"/>
      <point x="791" y="448" type="line"/>
      <point x="861" y="448"/>
      <point x="930" y="447"/>
      <point x="998" y="447" type="curve" smooth="yes"/>
      <point x="1471" y="447"/>
      <point x="1914" y="521"/>
      <point x="1916" y="977" type="curve"/>
      <point x="1916" y="1376"/>
      <point x="1608" y="1457"/>
      <point x="1166" y="1457" type="curve" smooth="yes"/>
      <point x="826" y="1457"/>
      <point x="519" y="1425"/>
      <point x="321" y="1399" type="curve"/>
      <point x="303" y="1333" type="line"/>
    </contour>
    <contour>
      <point x="818" y="1083" type="curve"/>
      <point x="892" y="1087"/>
      <point x="973" y="1105"/>
      <point x="1043" y="1105" type="curve" smooth="yes"/>
      <point x="1151" y="1105"/>
      <point x="1297" y="1106"/>
      <point x="1297" y="964" type="curve" smooth="yes"/>
      <point x="1297" y="940"/>
      <point x="1293" y="921"/>
      <point x="1287" y="904" type="curve" smooth="yes"/>
      <point x="1258" y="827"/>
      <point x="1139" y="800"/>
      <point x="1067" y="778" type="curve" smooth="yes"/>
      <point x="983" y="753"/>
      <point x="892" y="740"/>
      <point x="814" y="740" type="curve"/>
      <point x="804" y="768"/>
      <point x="803" y="802"/>
      <point x="803" y="836" type="curve" smooth="yes"/>
      <point x="804" y="873"/>
      <point x="811" y="965"/>
      <point x="815" y="1030" type="curve" smooth="yes"/>
      <point x="816" y="1052"/>
      <point x="817" y="1070"/>
    </contour>
  </outline>
</glyph>
<glyph name="Q" format="1">
  <advance width="2243"/>
  <unicode hex="0051"/>
  <outline>
    <contour>
      <point x="1128" y="362" type="curve"/>
      <point x="1128" y="356"/>
      <point x="1138" y="344"/>
      <point x="1151" y="329" type="curve" smooth="yes"/>
      <point x="1156" y="323" type="line"/>
      <point x="1153" y="323"/>
      <point x="1151" y="323"/>
      <point x="1148" y="322" type="curve"/>
      <point x="915" y="322"/>
      <point x="799" y="462"/>
      <point x="799" y="704" type="curve" smooth="yes"/>
      <point x="799" y="947"/>
      <point x="917" y="1109"/>
      <point x="1151" y="1109" type="curve" smooth="yes"/>
      <point x="1387" y="1109"/>
      <point x="1507" y="977"/>
      <point x="1507" y="742" type="curve" smooth="yes"/>
      <point x="1507" y="742"/>
      <point x="1507" y="742"/>
      <point x="1507" y="742" type="curve"/>
      <point x="1507" y="742"/>
      <point x="1507" y="742"/>
      <point x="1507" y="742" type="curve"/>
      <point x="1507" y="701"/>
      <point x="1501" y="653"/>
      <point x="1485" y="615" type="curve"/>
      <point x="1452" y="426"/>
      <point x="1245" y="414"/>
    </contour>
    <contour>
      <point x="1265" y="-14" type="curve"/>
      <point x="1282" y="-32"/>
      <point x="1317" y="-73"/>
      <point x="1329" y="-73" type="curve" smooth="yes"/>
      <point x="1332" y="-73"/>
      <point x="1433" y="-22"/>
      <point x="1433" y="-4" type="curve" smooth="yes"/>
      <point x="1433" y="4"/>
      <point x="1409" y="32"/>
      <point x="1379" y="65" type="curve"/>
      <point x="1587" y="125"/>
      <point x="1799" y="221"/>
      <point x="1938" y="382" type="curve"/>
      <point x="1938" y="382"/>
      <point x="1938" y="382"/>
      <point x="1938" y="382" type="curve"/>
      <point x="2078" y="472"/>
      <point x="2179" y="608"/>
      <point x="2175" y="813" type="curve"/>
      <point x="2175" y="1014"/>
      <point x="2062" y="1154"/>
      <point x="1913" y="1238" type="curve"/>
      <point x="1819" y="1324"/>
      <point x="1718" y="1384"/>
      <point x="1590" y="1427" type="curve" smooth="yes"/>
      <point x="1462" y="1470"/>
      <point x="1308" y="1495"/>
      <point x="1106" y="1512" type="curve"/>
      <point x="1095" y="1504"/>
      <point x="1098" y="1462"/>
      <point x="1085" y="1462" type="curve"/>
      <point x="630" y="1423"/>
      <point x="117" y="1211"/>
      <point x="117" y="687" type="curve" smooth="yes"/>
      <point x="117" y="242"/>
      <point x="451" y="6"/>
      <point x="870" y="-30" type="curve" smooth="yes"/>
      <point x="1008" y="-42"/>
      <point x="1140" y="-34"/>
    </contour>
  </outline>
</glyph>
<glyph name="R" format="1">
  <advance width="2048"/>
  <unicode hex="0052"/>
  <outline>
    <contour>
      <point x="339" y="1421" type="curve"/>
      <point x="270" y="1300" type="line"/>
      <point x="270" y="1300"/>
      <point x="270" y="1300"/>
      <point x="270" y="1300" type="curve"/>
      <point x="269" y="1300"/>
      <point x="269" y="1299"/>
      <point x="269" y="1298" type="curve" smooth="yes"/>
      <point x="269" y="1295"/>
      <point x="274" y="1293"/>
      <point x="279" y="1293" type="curve"/>
      <point x="317" y="1298"/>
      <point x="353" y="1307"/>
      <point x="362" y="1307" type="curve" smooth="yes"/>
      <point x="321" y="1307"/>
      <point x="280" y="1306"/>
      <point x="238" y="1306" type="curve"/>
      <point x="228" y="814" type="line"/>
      <point x="222" y="649" type="line" smooth="yes"/>
      <point x="214" y="407"/>
      <point x="201" y="166"/>
      <point x="201" y="-15" type="curve"/>
      <point x="258" y="-26"/>
      <point x="322" y="-30"/>
      <point x="387" y="-30" type="curve" smooth="yes"/>
      <point x="475" y="-30"/>
      <point x="684" y="10"/>
      <point x="791" y="21" type="curve"/>
      <point x="797" y="55"/>
      <point x="798" y="92"/>
      <point x="798" y="129" type="curve"/>
      <point x="819" y="554" type="line"/>
      <point x="840" y="509"/>
      <point x="952" y="466"/>
      <point x="1006" y="421" type="curve"/>
      <point x="1104" y="376"/>
      <point x="1191" y="331"/>
      <point x="1246" y="266" type="curve"/>
      <point x="1305" y="214"/>
      <point x="1308" y="-25"/>
      <point x="1363" y="-29" type="curve"/>
      <point x="1439" y="-29"/>
      <point x="1514" y="-13"/>
      <point x="1589" y="0" type="curve" smooth="yes"/>
      <point x="1747" y="29"/>
      <point x="1895" y="46"/>
      <point x="1989" y="61" type="curve"/>
      <point x="1967" y="108"/>
      <point x="1914" y="124"/>
      <point x="1890" y="182" type="curve" smooth="yes"/>
      <point x="1750" y="511"/>
      <point x="1691" y="663"/>
      <point x="1530" y="671" type="curve"/>
      <point x="1681" y="689"/>
      <point x="1923" y="805"/>
      <point x="1923" y="1042" type="curve" smooth="yes"/>
      <point x="1923" y="1411"/>
      <point x="1579" y="1453"/>
      <point x="1171" y="1453" type="curve" smooth="yes"/>
      <point x="872" y="1453"/>
      <point x="596" y="1435"/>
    </contour>
    <contour>
      <point x="841" y="1110" type="line"/>
      <point x="899" y="1112"/>
      <point x="958" y="1115"/>
      <point x="1024" y="1115" type="curve" smooth="yes"/>
      <point x="1088" y="1115"/>
      <point x="1319" y="1130"/>
      <point x="1319" y="978" type="curve" smooth="yes"/>
      <point x="1319" y="886"/>
      <point x="1218" y="854"/>
      <point x="1159" y="837" type="curve" smooth="yes"/>
      <point x="1054" y="806"/>
      <point x="936" y="783"/>
      <point x="824" y="783" type="curve"/>
    </contour>
  </outline>
</glyph>
<glyph name="S" format="1">
  <advance width="1903"/>
  <unicode hex="0053"/>
  <outline>
    <contour>
      <point x="152" y="82" type="curve"/>
      <point x="354" y="-8"/>
      <point x="578" y="-35"/>
      <point x="803" y="-43" type="curve" smooth="yes"/>
      <point x="861" y="-45"/>
      <point x="919" y="-44"/>
      <point x="976" y="-41" type="curve"/>
      <point x="1049" y="-39"/>
      <point x="1118" y="-34"/>
      <point x="1181" y="-27" type="curve" smooth="yes"/>
      <point x="1625" y="21"/>
      <point x="1824" y="177"/>
      <point x="1824" y="442" type="curve" smooth="yes"/>
      <point x="1824" y="796"/>
      <point x="1371" y="834"/>
      <point x="976" y="954" type="curve"/>
      <point x="861" y="971"/>
      <point x="792" y="993"/>
      <point x="792" y="1040" type="curve" smooth="yes"/>
      <point x="792" y="1114"/>
      <point x="931" y="1121"/>
      <point x="1011" y="1121" type="curve" smooth="yes"/>
      <point x="1152" y="1121"/>
      <point x="1405" y="1053"/>
      <point x="1628" y="974" type="curve"/>
      <point x="1677" y="1042"/>
      <point x="1695" y="1118"/>
      <point x="1711" y="1205" type="curve" smooth="yes"/>
      <point x="1718" y="1244"/>
      <point x="1725" y="1283"/>
      <point x="1733" y="1323" type="curve"/>
      <point x="1604" y="1418"/>
      <point x="1334" y="1459"/>
      <point x="1137" y="1469" type="curve"/>
      <point x="1070" y="1471"/>
      <point x="1001" y="1470"/>
      <point x="931" y="1467" type="curve" smooth="yes"/>
      <point x="529" y="1448"/>
      <point x="160" y="1348"/>
      <point x="160" y="1003" type="curve" smooth="yes"/>
      <point x="160" y="630"/>
      <point x="572" y="586"/>
      <point x="1050" y="467" type="curve" smooth="yes"/>
      <point x="1094" y="456"/>
      <point x="1151" y="441"/>
      <point x="1151" y="390" type="curve" smooth="yes"/>
      <point x="1151" y="331"/>
      <point x="1056" y="316"/>
      <point x="980" y="316" type="curve" smooth="yes"/>
      <point x="698" y="316"/>
      <point x="504" y="375"/>
      <point x="251" y="453" type="curve"/>
      <point x="245" y="453"/>
      <point x="243" y="450"/>
      <point x="243" y="446" type="curve"/>
      <point x="210" y="325"/>
      <point x="182" y="204"/>
    </contour>
  </outline>
</glyph>
<glyph name="T" format="1">
  <advance width="1721"/>
  <unicode hex="0054"/>
  <outline>
    <contour>
      <point x="130" y="1424" type="curve"/>
      <point x="130" y="1318" type="line"/>
      <point x="115" y="1277"/>
      <point x="99" y="1235"/>
      <point x="83" y="1194" type="curve"/>
      <point x="83" y="1157"/>
      <point x="82" y="1112"/>
      <point x="90" y="1077" type="curve"/>
      <point x="412" y="1077" type="line" smooth="yes"/>
      <point x="475" y="1077"/>
      <point x="535" y="1077"/>
      <point x="594" y="1076" type="curve"/>
      <point x="589" y="939"/>
      <point x="586" y="835"/>
      <point x="580" y="681" type="curve"/>
      <point x="567" y="256" type="line"/>
      <point x="559" y="140" type="line"/>
      <point x="559" y="82"/>
      <point x="560" y="27"/>
      <point x="563" y="-27" type="curve"/>
      <point x="612" y="-29"/>
      <point x="662" y="-30"/>
      <point x="712" y="-30" type="curve" smooth="yes"/>
      <point x="722" y="-30"/>
      <point x="733" y="-25"/>
      <point x="740" y="-23" type="curve"/>
      <point x="1000" y="21" type="line"/>
      <point x="1052" y="23"/>
      <point x="1099" y="29"/>
      <point x="1145" y="34" type="curve"/>
      <point x="1146" y="63"/>
      <point x="1148" y="93"/>
      <point x="1149" y="122" type="curve" smooth="yes"/>
      <point x="1159" y="358"/>
      <point x="1167" y="593"/>
      <point x="1177" y="829" type="curve"/>
      <point x="1185" y="1076" type="line"/>
      <point x="1537" y="1076" type="line" smooth="yes"/>
      <point x="1580" y="1076"/>
      <point x="1623" y="1076"/>
      <point x="1665" y="1076" type="curve"/>
      <point x="1693" y="1113"/>
      <point x="1718" y="1253"/>
      <point x="1736" y="1334" type="curve"/>
      <point x="1736" y="1370"/>
      <point x="1737" y="1406"/>
      <point x="1737" y="1442" type="curve"/>
      <point x="1690" y="1453"/>
      <point x="1633" y="1453"/>
      <point x="1579" y="1453" type="curve" smooth="yes"/>
      <point x="1168" y="1450"/>
      <point x="459" y="1436"/>
    </contour>
  </outline>
</glyph>
<glyph name="U" format="1">
  <advance width="2121"/>
  <unicode hex="0055"/>
  <outline>
    <contour>
      <point x="1056" y="-46" type="curve" smooth="yes"/>
      <point x="1478" y="-46"/>
      <point x="1912" y="92"/>
      <point x="2000" y="589" type="curve" smooth="yes"/>
      <point x="2015" y="672"/>
      <point x="2037" y="1071"/>
      <point x="2042" y="1298" type="curve"/>
      <point x="2042" y="1351"/>
      <point x="2041" y="1401"/>
      <point x="2040" y="1450" type="curve"/>
      <point x="1999" y="1452"/>
      <point x="1957" y="1453"/>
      <point x="1914" y="1453" type="curve" smooth="yes"/>
      <point x="1910" y="1453"/>
      <point x="1906" y="1453"/>
      <point x="1902" y="1451" type="curve"/>
      <point x="1734" y="1435"/>
      <point x="1555" y="1424"/>
      <point x="1393" y="1408" type="curve"/>
      <point x="1392" y="1358"/>
      <point x="1392" y="1306"/>
      <point x="1391" y="1250" type="curve"/>
      <point x="1373" y="728" type="line"/>
      <point x="1368" y="491"/>
      <point x="1289" y="333"/>
      <point x="1078" y="333" type="curve" smooth="yes"/>
      <point x="941" y="333"/>
      <point x="870" y="455"/>
      <point x="850" y="489" type="curve" smooth="yes"/>
      <point x="822" y="537"/>
      <point x="809" y="602"/>
      <point x="810" y="687" type="curve"/>
      <point x="842" y="1298" type="line"/>
      <point x="842" y="1350"/>
      <point x="841" y="1400"/>
      <point x="840" y="1449" type="curve"/>
      <point x="797" y="1452"/>
      <point x="753" y="1453"/>
      <point x="708" y="1453" type="curve" smooth="yes"/>
      <point x="671" y="1453"/>
      <point x="630" y="1447"/>
      <point x="593" y="1445" type="curve" smooth="yes"/>
      <point x="182" y="1419" type="line"/>
      <point x="166" y="1322"/>
      <point x="169" y="1201"/>
      <point x="162" y="1006" type="curve"/>
      <point x="157" y="798" type="line"/>
      <point x="150" y="643"/>
      <point x="154" y="514"/>
      <point x="174" y="451" type="curve"/>
      <point x="274" y="88"/>
      <point x="689" y="-46"/>
    </contour>
  </outline>
</glyph>
<glyph name="V" format="1">
  <advance width="1981"/>
  <unicode hex="0056"/>
  <outline>
    <contour>
      <point x="1419" y="1438" type="curve"/>
      <point x="1419" y="1461"/>
      <point x="1409" y="1473"/>
      <point x="1358" y="1473" type="curve" smooth="yes"/>
      <point x="1338" y="1473"/>
      <point x="1312" y="1471"/>
      <point x="1279" y="1466" type="curve" smooth="yes"/>
      <point x="1209" y="1455"/>
      <point x="1060" y="1421"/>
      <point x="1043" y="1411" type="curve" smooth="yes"/>
      <point x="1026" y="1401"/>
      <point x="1024" y="1388"/>
      <point x="1016" y="1367" type="curve" smooth="yes"/>
      <point x="977" y="1259" type="line" smooth="yes"/>
      <point x="900" y="1042"/>
      <point x="824" y="825"/>
      <point x="747" y="608" type="curve"/>
      <point x="583" y="1316" type="line"/>
      <point x="556" y="1434" type="line"/>
      <point x="550" y="1447"/>
      <point x="546" y="1458"/>
      <point x="538" y="1464" type="curve" smooth="yes"/>
      <point x="530" y="1470"/>
      <point x="519" y="1473"/>
      <point x="500" y="1473" type="curve" smooth="yes"/>
      <point x="477" y="1473"/>
      <point x="447" y="1470"/>
      <point x="400" y="1463" type="curve" smooth="yes"/>
      <point x="209" y="1436"/>
      <point x="138" y="1427"/>
      <point x="138" y="1367" type="curve" smooth="yes"/>
      <point x="138" y="1334"/>
      <point x="161" y="1261"/>
      <point x="174" y="1211" type="curve" smooth="yes"/>
      <point x="278" y="795"/>
      <point x="379" y="378"/>
      <point x="488" y="-36" type="curve" smooth="yes"/>
      <point x="493" y="-55"/>
      <point x="502" y="-68"/>
      <point x="526" y="-68" type="curve" smooth="yes"/>
      <point x="597" y="-68"/>
      <point x="764" y="-6"/>
      <point x="814" y="10" type="curve" smooth="yes"/>
      <point x="858" y="24"/>
      <point x="866" y="53"/>
      <point x="879" y="88" type="curve"/>
      <point x="1409" y="1405" type="line"/>
      <point x="1414" y="1420"/>
      <point x="1420" y="1429"/>
    </contour>
  </outline>
</glyph>
<glyph name="W" format="1">
  <advance width="2737"/>
  <unicode hex="0057"/>
  <outline>
    <contour>
      <point x="513" y="-39" type="line" smooth="yes"/>
      <point x="518" y="-58"/>
      <point x="530" y="-68"/>
      <point x="547" y="-68" type="curve" smooth="yes"/>
      <point x="587" y="-68"/>
      <point x="768" y="56"/>
      <point x="803" y="139" type="curve"/>
      <point x="1017" y="580" type="line"/>
      <point x="1064" y="411"/>
      <point x="1111" y="241"/>
      <point x="1159" y="72" type="curve"/>
      <point x="1172" y="22"/>
      <point x="1187" y="-68"/>
      <point x="1225" y="-68" type="curve" smooth="yes"/>
      <point x="1232" y="-68"/>
      <point x="1241" y="-65"/>
      <point x="1253" y="-59" type="curve" smooth="yes"/>
      <point x="1460" y="40"/>
      <point x="1439" y="0"/>
      <point x="1503" y="164" type="curve"/>
      <point x="1503" y="164"/>
      <point x="1503" y="164"/>
      <point x="1503" y="164" type="curve"/>
      <point x="1629" y="548"/>
      <point x="1755" y="933"/>
      <point x="1882" y="1317" type="curve"/>
      <point x="1893" y="1353"/>
      <point x="1919" y="1405"/>
      <point x="1919" y="1438" type="curve" smooth="yes"/>
      <point x="1919" y="1453"/>
      <point x="1913" y="1473"/>
      <point x="1894" y="1473" type="curve" smooth="yes"/>
      <point x="1891" y="1473"/>
      <point x="1887" y="1471"/>
      <point x="1884" y="1471" type="curve"/>
      <point x="1589" y="1403" type="line" smooth="yes"/>
      <point x="1561" y="1396"/>
      <point x="1558" y="1381"/>
      <point x="1551" y="1357" type="curve" smooth="yes"/>
      <point x="1354" y="717" type="line"/>
      <point x="1218" y="1333" type="line"/>
      <point x="1214" y="1346"/>
      <point x="1210" y="1356"/>
      <point x="1202" y="1362" type="curve" smooth="yes"/>
      <point x="1194" y="1368"/>
      <point x="1181" y="1371"/>
      <point x="1161" y="1371" type="curve" smooth="yes"/>
      <point x="1151" y="1371"/>
      <point x="1139" y="1370"/>
      <point x="1125" y="1369" type="curve" smooth="yes"/>
      <point x="983" y="1359"/>
      <point x="889" y="1337"/>
      <point x="860" y="1317" type="curve" smooth="yes"/>
      <point x="845" y="1306"/>
      <point x="838" y="1292"/>
      <point x="838" y="1271" type="curve"/>
      <point x="836" y="1264"/>
      <point x="839" y="1249"/>
      <point x="843" y="1235" type="curve"/>
      <point x="866" y="1135"/>
      <point x="889" y="1034"/>
      <point x="912" y="934" type="curve"/>
      <point x="741" y="640" type="line"/>
      <point x="561" y="1334" type="line" smooth="yes"/>
      <point x="550" y="1376"/>
      <point x="537" y="1447"/>
      <point x="519" y="1463" type="curve" smooth="yes"/>
      <point x="511" y="1469"/>
      <point x="500" y="1472"/>
      <point x="481" y="1472" type="curve" smooth="yes"/>
      <point x="458" y="1472"/>
      <point x="427" y="1470"/>
      <point x="379" y="1463" type="curve"/>
      <point x="175" y="1450"/>
      <point x="118" y="1426"/>
      <point x="118" y="1360" type="curve" smooth="yes"/>
      <point x="118" y="1351"/>
      <point x="122" y="1340"/>
      <point x="125" y="1329" type="curve" smooth="yes"/>
    </contour>
  </outline>
</glyph>
<glyph name="X" format="1">
  <advance width="2018"/>
  <unicode hex="0058"/>
  <outline>
    <contour>
      <point x="1297" y="1432" type="curve" smooth="yes"/>
      <point x="1297" y="1443"/>
      <point x="1290" y="1449"/>
      <point x="1275" y="1449" type="curve" smooth="yes"/>
      <point x="1268" y="1449"/>
      <point x="1263" y="1448"/>
      <point x="1256" y="1447" type="curve" smooth="yes"/>
      <point x="1234" y="1443"/>
      <point x="1212" y="1438"/>
      <point x="1190" y="1434" type="curve" smooth="yes"/>
      <point x="860" y="1367" type="line"/>
      <point x="694" y="1081" type="line"/>
      <point x="617" y="1222"/>
      <point x="514" y="1419"/>
      <point x="496" y="1432" type="curve" smooth="yes"/>
      <point x="481" y="1443"/>
      <point x="470" y="1444"/>
      <point x="454" y="1444" type="curve" smooth="yes"/>
      <point x="454" y="1444"/>
      <point x="451" y="1443"/>
      <point x="446" y="1442" type="curve" smooth="yes"/>
      <point x="122" y="1355" type="line"/>
      <point x="117" y="1353"/>
      <point x="114" y="1348"/>
      <point x="114" y="1341" type="curve" smooth="yes"/>
      <point x="114" y="1329"/>
      <point x="117" y="1317"/>
      <point x="124" y="1306" type="curve" smooth="yes"/>
      <point x="135" y="1287"/>
      <point x="145" y="1269"/>
      <point x="156" y="1250" type="curve" smooth="yes"/>
      <point x="472" y="685" type="line"/>
      <point x="359" y="481" type="line" smooth="yes"/>
      <point x="322" y="414"/>
      <point x="286" y="350"/>
      <point x="254" y="286" type="curve"/>
      <point x="202" y="190"/>
      <point x="82" y="-18"/>
      <point x="82" y="-54" type="curve" smooth="yes"/>
      <point x="82" y="-65"/>
      <point x="91" y="-69"/>
      <point x="103" y="-69" type="curve" smooth="yes"/>
      <point x="126" y="-69"/>
      <point x="161" y="-57"/>
      <point x="177" y="-57" type="curve"/>
      <point x="259" y="-36"/>
      <point x="480" y="31"/>
      <point x="484" y="42" type="curve"/>
      <point x="515" y="72" type="line"/>
      <point x="673" y="339" type="line"/>
      <point x="783" y="145" type="line" smooth="yes"/>
      <point x="836" y="50"/>
      <point x="891" y="-47"/>
      <point x="919" y="-63" type="curve" smooth="yes"/>
      <point x="927" y="-68"/>
      <point x="936" y="-69"/>
      <point x="946" y="-69" type="curve" smooth="yes"/>
      <point x="969" y="-69"/>
      <point x="990" y="-56"/>
      <point x="1007" y="-56" type="curve"/>
      <point x="1019" y="-52"/>
      <point x="1030" y="-48"/>
      <point x="1042" y="-44" type="curve" smooth="yes"/>
      <point x="1132" y="-14"/>
      <point x="1232" y="31"/>
      <point x="1232" y="44" type="curve"/>
      <point x="1235" y="81" type="line"/>
      <point x="1118" y="304"/>
      <point x="1054" y="451"/>
      <point x="896" y="717" type="curve"/>
      <point x="939" y="790"/>
      <point x="990" y="878"/>
      <point x="1033" y="950" type="curve"/>
      <point x="1256" y="1342" type="line" smooth="yes"/>
      <point x="1273" y="1373"/>
      <point x="1297" y="1412"/>
    </contour>
  </outline>
</glyph>
<glyph name="Y" format="1">
  <advance width="1845"/>
  <unicode hex="0059"/>
  <outline>
    <contour>
      <point x="1269" y="1426" type="curve"/>
      <point x="1269" y="1440"/>
      <point x="1261" y="1447"/>
      <point x="1246" y="1447" type="curve" smooth="yes"/>
      <point x="1241" y="1447"/>
      <point x="1234" y="1446"/>
      <point x="1226" y="1444" type="curve" smooth="yes"/>
      <point x="1203" y="1438"/>
      <point x="1180" y="1433"/>
      <point x="1157" y="1427" type="curve" smooth="yes"/>
      <point x="883" y="1358" type="line"/>
      <point x="877" y="1358"/>
      <point x="827" y="1265"/>
      <point x="776" y="1174" type="curve"/>
      <point x="710" y="1052" type="line" smooth="yes"/>
      <point x="699" y="1032"/>
      <point x="688" y="1011"/>
      <point x="677" y="991" type="curve"/>
      <point x="671" y="976" type="line"/>
      <point x="440" y="1424" type="line"/>
      <point x="424" y="1440"/>
      <point x="412" y="1445"/>
      <point x="401" y="1445" type="curve" smooth="yes"/>
      <point x="394" y="1445"/>
      <point x="386" y="1443"/>
      <point x="377" y="1439" type="curve" smooth="yes"/>
      <point x="357" y="1431"/>
      <point x="338" y="1424"/>
      <point x="319" y="1416" type="curve" smooth="yes"/>
      <point x="247" y="1386"/>
      <point x="142" y="1346"/>
      <point x="119" y="1332" type="curve" smooth="yes"/>
      <point x="110" y="1327"/>
      <point x="107" y="1314"/>
      <point x="107" y="1302" type="curve" smooth="yes"/>
      <point x="107" y="1291"/>
      <point x="109" y="1281"/>
      <point x="112" y="1271" type="curve"/>
      <point x="156" y="1184"/>
      <point x="354" y="755"/>
      <point x="418" y="618" type="curve"/>
      <point x="385" y="405"/>
      <point x="325" y="165"/>
      <point x="325" y="-37" type="curve" smooth="yes"/>
      <point x="325" y="-60"/>
      <point x="343" y="-69"/>
      <point x="366" y="-69" type="curve" smooth="yes"/>
      <point x="422" y="-69"/>
      <point x="509" y="-12"/>
      <point x="575" y="23" type="curve" smooth="yes"/>
      <point x="717" y="98" type="line"/>
      <point x="730" y="104"/>
      <point x="738" y="110"/>
      <point x="742" y="120" type="curve" smooth="yes"/>
      <point x="746" y="130"/>
      <point x="748" y="143"/>
      <point x="752" y="166" type="curve" smooth="yes"/>
      <point x="771" y="291"/>
      <point x="789" y="416"/>
      <point x="808" y="541" type="curve"/>
      <point x="815" y="574" type="line"/>
      <point x="894" y="720"/>
      <point x="1084" y="1067"/>
      <point x="1224" y="1326" type="curve" smooth="yes"/>
      <point x="1261" y="1394" type="line" smooth="yes"/>
      <point x="1268" y="1407"/>
      <point x="1268" y="1419"/>
    </contour>
  </outline>
</glyph>
<glyph name="Z" format="1">
  <advance width="1770"/>
  <unicode hex="005A"/>
  <outline>
    <contour>
      <point x="147" y="226" type="line"/>
      <point x="147" y="159"/>
      <point x="146" y="93"/>
      <point x="146" y="26" type="curve" smooth="yes"/>
      <point x="197" y="4"/>
      <point x="264" y="0"/>
      <point x="327" y="0" type="curve" smooth="yes"/>
      <point x="636" y="0"/>
      <point x="927" y="-1"/>
      <point x="1218" y="-1" type="curve" smooth="yes"/>
      <point x="1363" y="-1"/>
      <point x="1507" y="2"/>
      <point x="1618" y="29" type="curve"/>
      <point x="1686" y="275" type="line"/>
      <point x="1687" y="315"/>
      <point x="1687" y="353"/>
      <point x="1687" y="389" type="curve" smooth="yes"/>
      <point x="1645" y="395"/>
      <point x="1596" y="400"/>
      <point x="1547" y="400" type="curve" smooth="yes"/>
      <point x="1470" y="400"/>
      <point x="1397" y="394"/>
      <point x="1320" y="394" type="curve" smooth="yes"/>
      <point x="1109" y="394" type="line" smooth="yes"/>
      <point x="1062" y="394"/>
      <point x="1013" y="393"/>
      <point x="970" y="400" type="curve" smooth="yes"/>
      <point x="1002" y="428"/>
      <point x="1035" y="456"/>
      <point x="1067" y="485" type="curve"/>
      <point x="1265" y="725"/>
      <point x="1464" y="965"/>
      <point x="1662" y="1206" type="curve"/>
      <point x="1662" y="1412" type="line"/>
      <point x="1297" y="1412"/>
      <point x="938" y="1424"/>
      <point x="572" y="1424" type="curve" smooth="yes"/>
      <point x="446" y="1424"/>
      <point x="315" y="1420"/>
      <point x="208" y="1395" type="curve" smooth="yes"/>
      <point x="152" y="1153" type="line" smooth="yes"/>
      <point x="152" y="1115"/>
      <point x="152" y="1078"/>
      <point x="152" y="1041" type="curve"/>
      <point x="201" y="1036"/>
      <point x="256" y="1030"/>
      <point x="311" y="1030" type="curve" smooth="yes"/>
      <point x="340" y="1030"/>
      <point x="366" y="1032"/>
      <point x="396" y="1032" type="curve" smooth="yes"/>
      <point x="513" y="1032"/>
      <point x="735" y="1030"/>
      <point x="834" y="1025" type="curve"/>
    </contour>
  </outline>
</glyph>
<glyph name="bracketleft" format="1">
  <advance width="1258"/>
  <unicode hex="005B"/>
  <outline>
    <contour>
      <point x="152" y="-151" type="curve"/>
      <point x="347" y="-163"/>
      <point x="577" y="-166"/>
      <point x="775" y="-166" type="curve" smooth="yes"/>
      <point x="914" y="-166"/>
      <point x="1030" y="-75"/>
      <point x="1135" y="-58" type="curve"/>
      <point x="1138" y="20"/>
      <point x="1141" y="97"/>
      <point x="1141" y="174" type="curve"/>
      <point x="1094" y="177"/>
      <point x="1046" y="178"/>
      <point x="996" y="178" type="curve" smooth="yes"/>
      <point x="922" y="178"/>
      <point x="848" y="178"/>
      <point x="774" y="178" type="curve"/>
      <point x="788" y="666" type="line"/>
      <point x="798" y="862"/>
      <point x="808" y="1071"/>
      <point x="810" y="1190" type="curve"/>
      <point x="973" y="1195"/>
      <point x="1071" y="1196"/>
      <point x="1170" y="1211" type="curve"/>
      <point x="1188" y="1370" type="line"/>
      <point x="1203" y="1445"/>
      <point x="1211" y="1510"/>
      <point x="1212" y="1550" type="curve"/>
      <point x="1163" y="1563"/>
      <point x="1102" y="1563"/>
      <point x="1053" y="1563" type="curve"/>
      <point x="353" y="1538" type="line"/>
      <point x="298" y="1537"/>
      <point x="238" y="1535"/>
      <point x="188" y="1508" type="curve"/>
      <point x="187" y="1475"/>
      <point x="186" y="1441"/>
      <point x="185" y="1408" type="curve" smooth="yes"/>
      <point x="170" y="809" type="line"/>
      <point x="160" y="517"/>
      <point x="145" y="174"/>
      <point x="145" y="14" type="curve" smooth="yes"/>
      <point x="145" y="-43"/>
      <point x="145" y="-100"/>
    </contour>
  </outline>
</glyph>
<glyph name="backslash" format="1">
  <advance width="1274"/>
  <unicode hex="005C"/>
  <outline>
    <contour>
      <point x="560" y="1574" type="curve"/>
      <point x="494" y="1593"/>
      <point x="435" y="1596"/>
      <point x="366" y="1596" type="curve"/>
      <point x="281" y="1585"/>
      <point x="153" y="1555"/>
      <point x="95" y="1555" type="curve"/>
      <point x="154" y="1402" type="line"/>
      <point x="173" y="1357"/>
      <point x="192" y="1311"/>
      <point x="211" y="1266" type="curve" smooth="yes"/>
      <point x="720" y="40" type="line"/>
      <point x="743" y="-21"/>
      <point x="762" y="-80"/>
      <point x="790" y="-131" type="curve"/>
      <point x="920" y="-131"/>
      <point x="1118" y="-100"/>
      <point x="1233" y="-82" type="curve"/>
      <point x="1163" y="103" type="line"/>
      <point x="1013" y="464"/>
      <point x="854" y="855"/>
      <point x="679" y="1283" type="curve" smooth="yes"/>
      <point x="640" y="1378"/>
      <point x="601" y="1475"/>
    </contour>
  </outline>
</glyph>
<glyph name="bracketright" format="1">
  <advance width="1259"/>
  <unicode hex="005D"/>
  <outline>
    <contour>
      <point x="1158" y="1551" type="curve"/>
      <point x="517" y="1551" type="line" smooth="yes"/>
      <point x="457" y="1551"/>
      <point x="398" y="1552"/>
      <point x="339" y="1552" type="curve" smooth="yes"/>
      <point x="254" y="1552"/>
      <point x="216" y="1466"/>
      <point x="167" y="1450" type="curve"/>
      <point x="167" y="1373"/>
      <point x="167" y="1297"/>
      <point x="167" y="1221" type="curve"/>
      <point x="213" y="1216"/>
      <point x="261" y="1213"/>
      <point x="313" y="1213" type="curve" smooth="yes"/>
      <point x="338" y="1213"/>
      <point x="362" y="1213"/>
      <point x="387" y="1213" type="curve" smooth="yes"/>
      <point x="436" y="1213"/>
      <point x="486" y="1214"/>
      <point x="535" y="1214" type="curve"/>
      <point x="526" y="859"/>
      <point x="508" y="433"/>
      <point x="506" y="202" type="curve"/>
      <point x="379" y="200"/>
      <point x="236" y="204"/>
      <point x="138" y="184" type="curve"/>
      <point x="123" y="31" type="line"/>
      <point x="109" y="-44"/>
      <point x="104" y="-103"/>
      <point x="104" y="-142" type="curve"/>
      <point x="153" y="-154"/>
      <point x="213" y="-154"/>
      <point x="263" y="-154" type="curve" smooth="yes"/>
      <point x="326" y="-154"/>
      <point x="438" y="-152"/>
      <point x="546" y="-150" type="curve"/>
      <point x="954" y="-146" type="line" smooth="yes"/>
      <point x="1009" y="-145"/>
      <point x="1068" y="-144"/>
      <point x="1119" y="-116" type="curve"/>
      <point x="1138" y="582" type="line"/>
      <point x="1147" y="878"/>
      <point x="1165" y="1222"/>
      <point x="1165" y="1386" type="curve" smooth="yes"/>
      <point x="1165" y="1442"/>
      <point x="1165" y="1501"/>
    </contour>
  </outline>
</glyph>
<glyph name="underscore" format="1">
  <advance width="1041"/>
  <unicode hex="005F"/>
  <outline>
    <contour>
      <point x="923" y="-52" type="curve" smooth="yes"/>
      <point x="966" y="-52"/>
      <point x="969" y="-44"/>
      <point x="972" y="-29" type="curve"/>
      <point x="981" y="38" type="line" smooth="yes"/>
      <point x="986" y="73"/>
      <point x="991" y="112"/>
      <point x="991" y="129" type="curve" smooth="yes"/>
      <point x="991" y="168"/>
      <point x="941" y="164"/>
      <point x="909" y="164" type="curve" smooth="yes"/>
      <point x="816" y="163"/>
      <point x="562" y="158"/>
      <point x="515" y="158" type="curve"/>
      <point x="163" y="148" type="line"/>
      <point x="103" y="144"/>
      <point x="20" y="-2"/>
      <point x="20" y="-34" type="curve" smooth="yes"/>
      <point x="20" y="-54"/>
      <point x="63" y="-58"/>
      <point x="167" y="-58" type="curve"/>
      <point x="364" y="-55"/>
      <point x="517" y="-52"/>
      <point x="766" y="-52" type="curve" smooth="yes"/>
      <point x="818" y="-52"/>
      <point x="871" y="-52"/>
    </contour>
  </outline>
</glyph>
<glyph name="grave" format="1">
  <advance width="655"/>
  <unicode hex="0060"/>
  <outline>
    <contour>
      <point x="592" y="1252" type="curve"/>
      <point x="574" y="1272"/>
      <point x="556" y="1291"/>
      <point x="537" y="1313" type="curve"/>
      <point x="383" y="1655" type="line"/>
      <point x="382" y="1655"/>
      <point x="381" y="1655"/>
      <point x="380" y="1655" type="curve" smooth="yes"/>
      <point x="356" y="1655"/>
      <point x="332" y="1655"/>
      <point x="306" y="1653" type="curve"/>
      <point x="222" y="1627"/>
      <point x="69" y="1578"/>
      <point x="23" y="1563" type="curve"/>
      <point x="52" y="1543"/>
      <point x="81" y="1523"/>
      <point x="113" y="1501" type="curve"/>
      <point x="226" y="1365"/>
      <point x="343" y="1234"/>
      <point x="408" y="1205" type="curve"/>
      <point x="428" y="1205"/>
      <point x="447" y="1205"/>
      <point x="466" y="1206" type="curve"/>
      <point x="510" y="1223"/>
      <point x="574" y="1236"/>
    </contour>
  </outline>
</glyph>
<glyph name="a" format="1">
  <advance width="1689"/>
  <unicode hex="0061"/>
  <outline>
    <contour>
      <point x="304" y="100" type="curve"/>
      <point x="304" y="-1"/>
      <point x="451" y="-46"/>
      <point x="617" y="-46" type="curve" smooth="yes"/>
      <point x="847" y="-46"/>
      <point x="1104" y="30"/>
      <point x="1191" y="170" type="curve"/>
      <point x="1224" y="103"/>
      <point x="1262" y="22"/>
      <point x="1302" y="-22" type="curve"/>
      <point x="1329" y="-22"/>
      <point x="1355" y="-22"/>
      <point x="1380" y="-22" type="curve"/>
      <point x="1441" y="-7"/>
      <point x="1559" y="28"/>
      <point x="1584" y="39" type="curve"/>
      <point x="1584" y="69"/>
      <point x="1562" y="99"/>
      <point x="1562" y="153" type="curve" smooth="yes"/>
      <point x="1562" y="153"/>
      <point x="1562" y="153"/>
      <point x="1562" y="153" type="curve"/>
      <point x="1562" y="179"/>
      <point x="1562" y="203"/>
      <point x="1563" y="230" type="curve" smooth="yes"/>
      <point x="1570" y="369"/>
      <point x="1577" y="507"/>
      <point x="1584" y="646" type="curve"/>
      <point x="1592" y="762"/>
      <point x="1581" y="869"/>
      <point x="1561" y="970" type="curve"/>
      <point x="1452" y="1031"/>
      <point x="1295" y="1056"/>
      <point x="1128" y="1064" type="curve"/>
      <point x="1061" y="1066"/>
      <point x="1002" y="1059"/>
      <point x="938" y="1033" type="curve"/>
      <point x="903" y="1061"/>
      <point x="865" y="1080"/>
      <point x="822" y="1080" type="curve" smooth="yes"/>
      <point x="459" y="1080"/>
      <point x="250" y="1000"/>
      <point x="185" y="842" type="curve" smooth="yes"/>
      <point x="178" y="824"/>
      <point x="173" y="805"/>
      <point x="169" y="786" type="curve"/>
      <point x="247" y="737"/>
      <point x="335" y="679"/>
      <point x="432" y="616" type="curve"/>
      <point x="438" y="626"/>
      <point x="450" y="636"/>
      <point x="466" y="643" type="curve" smooth="yes"/>
      <point x="499" y="659"/>
      <point x="548" y="669"/>
      <point x="596" y="669" type="curve" smooth="yes"/>
      <point x="622" y="669"/>
      <point x="649" y="666"/>
      <point x="672" y="659" type="curve" smooth="yes"/>
      <point x="718" y="646"/>
      <point x="752" y="617"/>
      <point x="752" y="568" type="curve" smooth="yes"/>
      <point x="752" y="405"/>
      <point x="208" y="333"/>
    </contour>
    <contour>
      <point x="636" y="374" type="curve" smooth="yes"/>
      <point x="636" y="484"/>
      <point x="684" y="542"/>
      <point x="809" y="570" type="curve"/>
      <point x="915" y="592"/>
      <point x="1061" y="585"/>
      <point x="1075" y="574" type="curve"/>
      <point x="1072" y="468"/>
      <point x="1017" y="345"/>
      <point x="955" y="251" type="curve"/>
      <point x="898" y="220"/>
      <point x="837" y="202"/>
      <point x="786" y="202" type="curve" smooth="yes"/>
      <point x="697" y="202"/>
      <point x="636" y="257"/>
    </contour>
  </outline>
</glyph>
<glyph name="b" format="1">
  <advance width="1723"/>
  <unicode hex="0062"/>
  <outline>
    <contour>
      <point x="1162" y="556" type="curve" smooth="yes"/>
      <point x="1162" y="392"/>
      <point x="1068" y="233"/>
      <point x="911" y="233" type="curve" smooth="yes"/>
      <point x="837" y="233"/>
      <point x="778" y="258"/>
      <point x="737" y="296" type="curve" smooth="yes"/>
      <point x="695" y="334"/>
      <point x="671" y="384"/>
      <point x="666" y="434" type="curve"/>
      <point x="667" y="459"/>
      <point x="669" y="485"/>
      <point x="673" y="511" type="curve" smooth="yes"/>
      <point x="691" y="641"/>
      <point x="746" y="772"/>
      <point x="902" y="800" type="curve"/>
      <point x="1078" y="824"/>
      <point x="1162" y="701"/>
    </contour>
    <contour>
      <point x="1684" y="545" type="curve" smooth="yes"/>
      <point x="1684" y="879"/>
      <point x="1420" y="1080"/>
      <point x="1105" y="1080" type="curve" smooth="yes"/>
      <point x="950" y="1080"/>
      <point x="797" y="1028"/>
      <point x="692" y="946" type="curve"/>
      <point x="694" y="1021"/>
      <point x="712" y="1289"/>
      <point x="713" y="1365" type="curve" smooth="yes"/>
      <point x="713" y="1399"/>
      <point x="714" y="1433"/>
      <point x="714" y="1467" type="curve"/>
      <point x="676" y="1477"/>
      <point x="629" y="1479"/>
      <point x="584" y="1479" type="curve" smooth="yes"/>
      <point x="574" y="1479"/>
      <point x="563" y="1474"/>
      <point x="556" y="1473" type="curve" smooth="yes"/>
      <point x="321" y="1444" type="line"/>
      <point x="268" y="1440"/>
      <point x="228" y="1438"/>
      <point x="189" y="1432" type="curve"/>
      <point x="189" y="1392"/>
      <point x="190" y="1352"/>
      <point x="190" y="1311" type="curve" smooth="yes"/>
      <point x="190" y="1310"/>
      <point x="189" y="1308"/>
      <point x="189" y="1306" type="curve" smooth="yes"/>
      <point x="140" y="119" type="line"/>
      <point x="140" y="119"/>
      <point x="140" y="119"/>
      <point x="140" y="119" type="curve"/>
      <point x="139" y="77"/>
      <point x="139" y="36"/>
      <point x="139" y="-6" type="curve"/>
      <point x="160" y="-17"/>
      <point x="186" y="-22"/>
      <point x="216" y="-22" type="curve" smooth="yes"/>
      <point x="218" y="-22"/>
      <point x="222" y="-22"/>
      <point x="225" y="-21" type="curve" smooth="yes"/>
      <point x="355" y="2"/>
      <point x="407" y="8"/>
      <point x="432" y="15" type="curve"/>
      <point x="516" y="138"/>
      <point x="520" y="158"/>
      <point x="522" y="172" type="curve"/>
      <point x="634" y="33"/>
      <point x="836" y="-46"/>
      <point x="1046" y="-46" type="curve" smooth="yes"/>
      <point x="1394" y="-46"/>
      <point x="1684" y="201"/>
    </contour>
  </outline>
</glyph>
<glyph name="c" format="1">
  <advance width="1492"/>
  <unicode hex="0063"/>
  <outline>
    <contour>
      <point x="106" y="501" type="curve" smooth="yes"/>
      <point x="106" y="124"/>
      <point x="465" y="-46"/>
      <point x="858" y="-46" type="curve" smooth="yes"/>
      <point x="1051" y="-46"/>
      <point x="1255" y="-13"/>
      <point x="1395" y="51" type="curve"/>
      <point x="1387" y="76"/>
      <point x="1379" y="178"/>
      <point x="1370" y="240" type="curve"/>
      <point x="1362" y="274"/>
      <point x="1351" y="301"/>
      <point x="1340" y="327" type="curve"/>
      <point x="1322" y="321"/>
      <point x="1302" y="315"/>
      <point x="1281" y="309" type="curve"/>
      <point x="1188" y="275"/>
      <point x="1070" y="251"/>
      <point x="961" y="251" type="curve" smooth="yes"/>
      <point x="926" y="251"/>
      <point x="891" y="253"/>
      <point x="859" y="259" type="curve" smooth="yes"/>
      <point x="730" y="282"/>
      <point x="631" y="354"/>
      <point x="631" y="508" type="curve" smooth="yes"/>
      <point x="631" y="689"/>
      <point x="773" y="781"/>
      <point x="954" y="781" type="curve" smooth="yes"/>
      <point x="1116" y="781"/>
      <point x="1271" y="726"/>
      <point x="1352" y="700" type="curve"/>
      <point x="1379" y="751"/>
      <point x="1410" y="907"/>
      <point x="1429" y="962" type="curve"/>
      <point x="1414" y="969"/>
      <point x="1397" y="978"/>
      <point x="1376" y="987" type="curve" smooth="yes"/>
      <point x="1292" y="1024"/>
      <point x="1158" y="1069"/>
      <point x="977" y="1077" type="curve" smooth="yes"/>
      <point x="930" y="1079"/>
      <point x="882" y="1079"/>
      <point x="836" y="1076" type="curve" smooth="yes"/>
      <point x="455" y="1053"/>
      <point x="106" y="861"/>
    </contour>
  </outline>
</glyph>
<glyph name="d" format="1">
  <advance width="1727"/>
  <unicode hex="0064"/>
  <outline>
    <contour>
      <point x="611" y="512" type="curve" smooth="yes"/>
      <point x="611" y="637"/>
      <point x="689" y="805"/>
      <point x="867" y="805" type="curve" smooth="yes"/>
      <point x="959" y="805"/>
      <point x="1024" y="762"/>
      <point x="1065" y="700" type="curve"/>
      <point x="1090" y="650"/>
      <point x="1102" y="593"/>
      <point x="1101" y="538" type="curve"/>
      <point x="1096" y="405"/>
      <point x="1049" y="269"/>
      <point x="870" y="242" type="curve"/>
      <point x="684" y="218"/>
      <point x="611" y="343"/>
    </contour>
    <contour>
      <point x="79" y="497" type="curve" smooth="yes"/>
      <point x="79" y="141"/>
      <point x="369" y="-70"/>
      <point x="730" y="-39" type="curve"/>
      <point x="919" y="-30"/>
      <point x="1106" y="41"/>
      <point x="1210" y="165" type="curve"/>
      <point x="1228" y="102"/>
      <point x="1256" y="39"/>
      <point x="1297" y="-19" type="curve"/>
      <point x="1321" y="-21"/>
      <point x="1346" y="-22"/>
      <point x="1371" y="-22" type="curve" smooth="yes"/>
      <point x="1381" y="-22"/>
      <point x="1392" y="-18"/>
      <point x="1398" y="-15" type="curve"/>
      <point x="1459" y="-3"/>
      <point x="1573" y="23"/>
      <point x="1594" y="33" type="curve"/>
      <point x="1594" y="159" type="line"/>
      <point x="1650" y="1344" type="line"/>
      <point x="1650" y="1467" type="line"/>
      <point x="1612" y="1477"/>
      <point x="1565" y="1479"/>
      <point x="1520" y="1479" type="curve" smooth="yes"/>
      <point x="1510" y="1479"/>
      <point x="1499" y="1474"/>
      <point x="1492" y="1473" type="curve" smooth="yes"/>
      <point x="1143" y="1444" type="line"/>
      <point x="1127" y="1407"/>
      <point x="1125" y="1372"/>
      <point x="1125" y="1333" type="curve"/>
      <point x="1122" y="1212"/>
      <point x="1116" y="1065"/>
      <point x="1113" y="944" type="curve"/>
      <point x="1020" y="1028"/>
      <point x="878" y="1080"/>
      <point x="732" y="1080" type="curve" smooth="yes"/>
      <point x="402" y="1080"/>
      <point x="79" y="878"/>
    </contour>
  </outline>
</glyph>
<glyph name="e" format="1">
  <advance width="1589"/>
  <unicode hex="0065"/>
  <outline>
    <contour>
      <point x="111" y="497" type="curve" smooth="yes"/>
      <point x="111" y="88"/>
      <point x="493" y="-46"/>
      <point x="859" y="-46" type="curve" smooth="yes"/>
      <point x="1209" y="-46"/>
      <point x="1436" y="47"/>
      <point x="1470" y="138" type="curve"/>
      <point x="1476" y="177"/>
      <point x="1481" y="213"/>
      <point x="1484" y="242" type="curve" smooth="yes"/>
      <point x="1487" y="271"/>
      <point x="1488" y="293"/>
      <point x="1488" y="307" type="curve"/>
      <point x="1452" y="309"/>
      <point x="1415" y="311"/>
      <point x="1377" y="312" type="curve"/>
      <point x="1272" y="298"/>
      <point x="1158" y="283"/>
      <point x="1038" y="288" type="curve"/>
      <point x="1000" y="234"/>
      <point x="933" y="236"/>
      <point x="859" y="241" type="curve" smooth="yes"/>
      <point x="728" y="251"/>
      <point x="642" y="294"/>
      <point x="639" y="423" type="curve"/>
      <point x="698" y="419"/>
      <point x="756" y="418"/>
      <point x="813" y="418" type="curve" smooth="yes"/>
      <point x="1105" y="418"/>
      <point x="1356" y="496"/>
      <point x="1516" y="567" type="curve"/>
      <point x="1519" y="583"/>
      <point x="1520" y="592"/>
      <point x="1520" y="606" type="curve" smooth="yes"/>
      <point x="1520" y="924"/>
      <point x="1188" y="1080"/>
      <point x="877" y="1080" type="curve" smooth="yes"/>
      <point x="495" y="1080"/>
      <point x="111" y="908"/>
    </contour>
    <contour>
      <point x="635" y="612" type="curve"/>
      <point x="649" y="745"/>
      <point x="762" y="807"/>
      <point x="856" y="819" type="curve"/>
      <point x="927" y="826"/>
      <point x="1025" y="805"/>
      <point x="1064" y="736" type="curve" smooth="yes"/>
      <point x="1073" y="720"/>
      <point x="1079" y="701"/>
      <point x="1079" y="680" type="curve"/>
      <point x="982" y="658"/>
      <point x="850" y="633"/>
    </contour>
  </outline>
</glyph>
<glyph name="f" format="1">
  <advance width="1269"/>
  <unicode hex="0066"/>
  <outline>
    <contour>
      <point x="1280" y="1201" type="curve"/>
      <point x="1294" y="1240"/>
      <point x="1289" y="1293"/>
      <point x="1325" y="1403" type="curve"/>
      <point x="1327" y="1426"/>
      <point x="1328" y="1449"/>
      <point x="1328" y="1471" type="curve"/>
      <point x="1252" y="1512"/>
      <point x="1033" y="1543"/>
      <point x="912" y="1543" type="curve" smooth="yes"/>
      <point x="640" y="1543"/>
      <point x="423" y="1447"/>
      <point x="350" y="1178" type="curve" smooth="yes"/>
      <point x="337" y="1129"/>
      <point x="328" y="1075"/>
      <point x="325" y="1014" type="curve"/>
      <point x="136" y="1014" type="line"/>
      <point x="131" y="965"/>
      <point x="73" y="837"/>
      <point x="73" y="789" type="curve"/>
      <point x="96" y="781"/>
      <point x="131" y="779"/>
      <point x="185" y="779" type="curve" smooth="yes"/>
      <point x="311" y="779" type="line"/>
      <point x="295" y="495"/>
      <point x="281" y="213"/>
      <point x="279" y="69" type="curve" smooth="yes"/>
      <point x="279" y="37"/>
      <point x="281" y="9"/>
      <point x="283" y="-19" type="curve"/>
      <point x="310" y="-21"/>
      <point x="338" y="-22"/>
      <point x="367" y="-22" type="curve" smooth="yes"/>
      <point x="377" y="-22"/>
      <point x="388" y="-18"/>
      <point x="394" y="-15" type="curve"/>
      <point x="652" y="24" type="line"/>
      <point x="716" y="28"/>
      <point x="766" y="31"/>
      <point x="815" y="36" type="curve"/>
      <point x="815" y="62"/>
      <point x="814" y="89"/>
      <point x="814" y="116" type="curve" smooth="yes"/>
      <point x="814" y="279"/>
      <point x="831" y="533"/>
      <point x="843" y="781" type="curve"/>
      <point x="987" y="781" type="line"/>
      <point x="1023" y="782"/>
      <point x="1048" y="785"/>
      <point x="1075" y="794" type="curve"/>
      <point x="1229" y="829" type="line"/>
      <point x="1241" y="899"/>
      <point x="1249" y="959"/>
      <point x="1249" y="1003" type="curve"/>
      <point x="1202" y="1011"/>
      <point x="1151" y="1014"/>
      <point x="1100" y="1014" type="curve" smooth="yes"/>
      <point x="850" y="1014" type="line"/>
      <point x="855" y="1087"/>
      <point x="870" y="1148"/>
      <point x="901" y="1188" type="curve" smooth="yes"/>
      <point x="922" y="1214"/>
      <point x="950" y="1232"/>
      <point x="988" y="1236" type="curve" smooth="yes"/>
      <point x="1065" y="1244"/>
      <point x="1215" y="1220"/>
    </contour>
  </outline>
</glyph>
<glyph name="g" format="1">
  <advance width="1552"/>
  <unicode hex="0067"/>
  <outline>
    <contour>
      <point x="848" y="698" type="line" smooth="yes"/>
      <point x="829" y="491"/>
      <point x="824" y="402"/>
      <point x="821" y="345" type="curve"/>
      <point x="774" y="265"/>
      <point x="706" y="210"/>
      <point x="626" y="210" type="curve" smooth="yes"/>
      <point x="519" y="210"/>
      <point x="476" y="318"/>
      <point x="476" y="445" type="curve" smooth="yes"/>
      <point x="476" y="652"/>
      <point x="565" y="849"/>
      <point x="674" y="849" type="curve" smooth="yes"/>
      <point x="753" y="849"/>
      <point x="822" y="774"/>
      <point x="849" y="713" type="curve"/>
    </contour>
    <contour>
      <point x="1283" y="1053" type="line" smooth="yes"/>
      <point x="1284" y="1060"/>
      <point x="1284" y="1065"/>
      <point x="1284" y="1072" type="curve" smooth="yes"/>
      <point x="1284" y="1099"/>
      <point x="1274" y="1112"/>
      <point x="1253" y="1112" type="curve" smooth="yes"/>
      <point x="1246" y="1112"/>
      <point x="1239" y="1111"/>
      <point x="1231" y="1109" type="curve" smooth="yes"/>
      <point x="1101" y="1080"/>
      <point x="967" y="1050"/>
      <point x="937" y="1045" type="curve"/>
      <point x="888" y="1034"/>
      <point x="893" y="1033"/>
      <point x="888" y="984" type="curve"/>
      <point x="808" y="1059"/>
      <point x="710" y="1116"/>
      <point x="595" y="1116" type="curve" smooth="yes"/>
      <point x="279" y="1116"/>
      <point x="102" y="763"/>
      <point x="102" y="451" type="curve" smooth="yes"/>
      <point x="102" y="188"/>
      <point x="225" y="-52"/>
      <point x="500" y="-52" type="curve" smooth="yes"/>
      <point x="600" y="-52"/>
      <point x="699" y="-8"/>
      <point x="795" y="56" type="curve"/>
      <point x="771" y="-76"/>
      <point x="669" y="-237"/>
      <point x="483" y="-237" type="curve" smooth="yes"/>
      <point x="362" y="-237"/>
      <point x="310" y="-222"/>
      <point x="233" y="-172" type="curve" smooth="yes"/>
      <point x="232" y="-171"/>
      <point x="230" y="-171"/>
      <point x="226" y="-171" type="curve" smooth="yes"/>
      <point x="219" y="-171"/>
      <point x="214" y="-176"/>
      <point x="209" y="-195" type="curve" smooth="yes"/>
      <point x="188" y="-277"/>
      <point x="142" y="-445"/>
      <point x="142" y="-458" type="curve"/>
      <point x="142" y="-459" type="line"/>
      <point x="223" y="-524"/>
      <point x="349" y="-537"/>
      <point x="462" y="-537" type="curve" smooth="yes"/>
      <point x="778" y="-537"/>
      <point x="1140" y="-285"/>
      <point x="1180" y="109" type="curve"/>
    </contour>
  </outline>
</glyph>
<glyph name="h" format="1">
  <advance width="1732"/>
  <unicode hex="0068"/>
  <outline>
    <contour>
      <point x="190" y="1453" type="curve"/>
      <point x="190" y="1419"/>
      <point x="191" y="1386"/>
      <point x="191" y="1352" type="curve"/>
      <point x="142" y="85" type="line"/>
      <point x="142" y="49"/>
      <point x="143" y="14"/>
      <point x="146" y="-19" type="curve"/>
      <point x="177" y="-21"/>
      <point x="210" y="-22"/>
      <point x="243" y="-22" type="curve" smooth="yes"/>
      <point x="253" y="-22"/>
      <point x="264" y="-18"/>
      <point x="270" y="-15" type="curve"/>
      <point x="556" y="24" type="line"/>
      <point x="599" y="27"/>
      <point x="631" y="30"/>
      <point x="660" y="35" type="curve"/>
      <point x="660" y="116" type="line" smooth="yes"/>
      <point x="660" y="333"/>
      <point x="660" y="482"/>
      <point x="700" y="637" type="curve"/>
      <point x="729" y="745"/>
      <point x="851" y="799"/>
      <point x="955" y="799" type="curve" smooth="yes"/>
      <point x="1061" y="799"/>
      <point x="1118" y="732"/>
      <point x="1142" y="640" type="curve"/>
      <point x="1154" y="599"/>
      <point x="1156" y="549"/>
      <point x="1155" y="502" type="curve"/>
      <point x="1139" y="260"/>
      <point x="1148" y="307"/>
      <point x="1132" y="65" type="curve"/>
      <point x="1132" y="35"/>
      <point x="1134" y="7"/>
      <point x="1136" y="-19" type="curve"/>
      <point x="1168" y="-21"/>
      <point x="1202" y="-22"/>
      <point x="1236" y="-22" type="curve" smooth="yes"/>
      <point x="1246" y="-22"/>
      <point x="1257" y="-17"/>
      <point x="1264" y="-15" type="curve"/>
      <point x="1547" y="14" type="line" smooth="yes"/>
      <point x="1591" y="18"/>
      <point x="1624" y="20"/>
      <point x="1653" y="25" type="curve"/>
      <point x="1653" y="52"/>
      <point x="1653" y="79"/>
      <point x="1653" y="108" type="curve" smooth="yes"/>
      <point x="1653" y="251"/>
      <point x="1660" y="383"/>
      <point x="1668" y="522" type="curve" smooth="yes"/>
      <point x="1672" y="590"/>
      <point x="1671" y="658"/>
      <point x="1661" y="717" type="curve"/>
      <point x="1624" y="1011"/>
      <point x="1305" y="1079"/>
      <point x="1099" y="1073" type="curve"/>
      <point x="954" y="1064"/>
      <point x="809" y="1017"/>
      <point x="694" y="937" type="curve"/>
      <point x="699" y="1038"/>
      <point x="717" y="1329"/>
      <point x="717" y="1410" type="curve" smooth="yes"/>
      <point x="717" y="1444"/>
      <point x="712" y="1475"/>
      <point x="702" y="1501" type="curve"/>
      <point x="663" y="1501"/>
      <point x="623" y="1495"/>
      <point x="588" y="1494" type="curve"/>
      <point x="381" y="1465" type="line"/>
      <point x="312" y="1461" type="line" smooth="yes"/>
      <point x="268" y="1459"/>
      <point x="229" y="1456"/>
    </contour>
  </outline>
</glyph>
<glyph name="i" format="1">
  <advance width="803"/>
  <unicode hex="0069"/>
  <outline>
    <contour>
      <point x="193" y="1017" type="curve"/>
      <point x="176" y="903"/>
      <point x="166" y="605"/>
      <point x="160" y="428" type="curve"/>
      <point x="155" y="317"/>
      <point x="143" y="121"/>
      <point x="143" y="64" type="curve" smooth="yes"/>
      <point x="143" y="35"/>
      <point x="143" y="7"/>
      <point x="144" y="-21" type="curve"/>
      <point x="175" y="-22"/>
      <point x="206" y="-22"/>
      <point x="238" y="-22" type="curve"/>
      <point x="369" y="-6"/>
      <point x="566" y="25"/>
      <point x="660" y="38" type="curve"/>
      <point x="662" y="69"/>
      <point x="662" y="103"/>
      <point x="663" y="140" type="curve"/>
      <point x="702" y="1050" type="line"/>
      <point x="672" y="1052"/>
      <point x="641" y="1053"/>
      <point x="610" y="1053" type="curve" smooth="yes"/>
      <point x="606" y="1053" type="line" smooth="yes"/>
      <point x="469" y="1036"/>
      <point x="328" y="1027"/>
    </contour>
    <contour>
      <point x="695" y="1538" type="curve"/>
      <point x="659" y="1561"/>
      <point x="610" y="1575"/>
      <point x="543" y="1577" type="curve" smooth="yes"/>
      <point x="541" y="1577"/>
      <point x="540" y="1577"/>
      <point x="539" y="1577" type="curve" smooth="yes"/>
      <point x="424" y="1560"/>
      <point x="319" y="1538"/>
      <point x="239" y="1507" type="curve"/>
      <point x="142" y="1455"/>
      <point x="175" y="1300"/>
      <point x="174" y="1264" type="curve"/>
      <point x="185" y="1232"/>
      <point x="213" y="1211"/>
      <point x="261" y="1201" type="curve" smooth="yes"/>
      <point x="288" y="1195"/>
      <point x="318" y="1192"/>
      <point x="350" y="1191" type="curve" smooth="yes"/>
      <point x="489" y="1187"/>
      <point x="624" y="1208"/>
      <point x="687" y="1257" type="curve" smooth="yes"/>
      <point x="717" y="1280"/>
      <point x="734" y="1310"/>
      <point x="735" y="1345" type="curve" smooth="yes"/>
      <point x="738" y="1412"/>
      <point x="725" y="1479"/>
    </contour>
  </outline>
</glyph>
<glyph name="j" format="1">
  <advance width="986"/>
  <unicode hex="006A"/>
  <outline>
    <contour>
      <point x="86" y="-82" type="curve"/>
      <point x="35" y="-79"/>
      <point x="-13" y="-71"/>
      <point x="-38" y="-67" type="curve"/>
      <point x="-46" y="-94"/>
      <point x="-84" y="-218"/>
      <point x="-84" y="-337" type="curve"/>
      <point x="-24" y="-362"/>
      <point x="174" y="-405"/>
      <point x="290" y="-401" type="curve"/>
      <point x="558" y="-401"/>
      <point x="746" y="-296"/>
      <point x="819" y="-63" type="curve" smooth="yes"/>
      <point x="837" y="-6"/>
      <point x="849" y="60"/>
      <point x="853" y="131" type="curve"/>
      <point x="885" y="1050" type="line"/>
      <point x="865" y="1052"/>
      <point x="845" y="1053"/>
      <point x="822" y="1053" type="curve" smooth="yes"/>
      <point x="818" y="1053" type="line" smooth="yes"/>
      <point x="682" y="1039"/>
      <point x="469" y="1023"/>
      <point x="366" y="1010" type="curve"/>
      <point x="355" y="738"/>
      <point x="344" y="444"/>
      <point x="333" y="187" type="curve" smooth="yes"/>
      <point x="331" y="136"/>
      <point x="329" y="86"/>
      <point x="327" y="38" type="curve" smooth="yes"/>
      <point x="324" y="-19"/>
      <point x="299" y="-54"/>
      <point x="265" y="-73" type="curve" smooth="yes"/>
      <point x="248" y="-83"/>
      <point x="228" y="-88"/>
      <point x="207" y="-91" type="curve" smooth="yes"/>
      <point x="168" y="-95"/>
      <point x="127" y="-90"/>
    </contour>
    <contour>
      <point x="879" y="1538" type="curve"/>
      <point x="843" y="1561"/>
      <point x="793" y="1575"/>
      <point x="726" y="1577" type="curve"/>
      <point x="725" y="1577"/>
      <point x="723" y="1577"/>
      <point x="723" y="1577" type="curve"/>
      <point x="608" y="1560"/>
      <point x="502" y="1538"/>
      <point x="421" y="1507" type="curve"/>
      <point x="326" y="1456"/>
      <point x="358" y="1300"/>
      <point x="357" y="1264" type="curve"/>
      <point x="368" y="1232"/>
      <point x="395" y="1211"/>
      <point x="443" y="1201" type="curve" smooth="yes"/>
      <point x="470" y="1195"/>
      <point x="501" y="1192"/>
      <point x="533" y="1191" type="curve" smooth="yes"/>
      <point x="669" y="1187"/>
      <point x="804" y="1207"/>
      <point x="870" y="1257" type="curve" smooth="yes"/>
      <point x="900" y="1280"/>
      <point x="917" y="1309"/>
      <point x="918" y="1345" type="curve" smooth="yes"/>
      <point x="921" y="1412"/>
      <point x="908" y="1479"/>
    </contour>
  </outline>
</glyph>
<glyph name="k" format="1">
  <advance width="1686"/>
  <unicode hex="006B"/>
  <outline>
    <contour>
      <point x="641" y="21" type="line"/>
      <point x="658" y="49"/>
      <point x="660" y="74"/>
      <point x="660" y="104" type="curve" smooth="yes"/>
      <point x="660" y="129"/>
      <point x="659" y="155"/>
      <point x="659" y="182" type="curve" smooth="yes"/>
      <point x="675" y="202"/>
      <point x="701" y="305"/>
      <point x="717" y="326" type="curve" smooth="yes"/>
      <point x="732" y="350"/>
      <point x="755" y="364"/>
      <point x="776" y="383" type="curve"/>
      <point x="877" y="263"/>
      <point x="1057" y="36"/>
      <point x="1143" y="-37" type="curve" smooth="yes"/>
      <point x="1315" y="-37"/>
      <point x="1546" y="27"/>
      <point x="1678" y="30" type="curve" smooth="yes"/>
      <point x="1649" y="64"/>
      <point x="1610" y="91"/>
      <point x="1578" y="126" type="curve"/>
      <point x="1299" y="413" type="line"/>
      <point x="1152" y="573" type="line"/>
      <point x="1198" y="614"/>
      <point x="1241" y="650"/>
      <point x="1280" y="683" type="curve" smooth="yes"/>
      <point x="1572" y="950" type="line" smooth="yes"/>
      <point x="1604" y="976"/>
      <point x="1634" y="999"/>
      <point x="1661" y="1021" type="curve" smooth="yes"/>
      <point x="1623" y="1023"/>
      <point x="1583" y="1024"/>
      <point x="1541" y="1024" type="curve" smooth="yes"/>
      <point x="1539" y="1024"/>
      <point x="1537" y="1024"/>
      <point x="1536" y="1024" type="curve"/>
      <point x="1027" y="1012" type="line"/>
      <point x="1001" y="992"/>
      <point x="954" y="946"/>
      <point x="905" y="899" type="curve" smooth="yes"/>
      <point x="683" y="702" type="line"/>
      <point x="687" y="815"/>
      <point x="697" y="978"/>
      <point x="705" y="1129" type="curve" smooth="yes"/>
      <point x="720" y="1386" type="line" smooth="yes"/>
      <point x="720" y="1423"/>
      <point x="721" y="1460"/>
      <point x="721" y="1497" type="curve" smooth="yes"/>
      <point x="682" y="1507"/>
      <point x="635" y="1509"/>
      <point x="590" y="1509" type="curve" smooth="yes"/>
      <point x="580" y="1509"/>
      <point x="569" y="1504"/>
      <point x="562" y="1502" type="curve" smooth="yes"/>
      <point x="326" y="1474" type="line" smooth="yes"/>
      <point x="273" y="1470"/>
      <point x="231" y="1466"/>
      <point x="193" y="1460" type="curve" smooth="yes"/>
      <point x="193" y="1417"/>
      <point x="194" y="1375"/>
      <point x="194" y="1332" type="curve"/>
      <point x="140" y="113" type="line"/>
      <point x="140" y="67"/>
      <point x="142" y="23"/>
      <point x="144" y="-19" type="curve" smooth="yes"/>
      <point x="185" y="-21"/>
      <point x="228" y="-22"/>
      <point x="270" y="-22" type="curve" smooth="yes"/>
      <point x="280" y="-22"/>
      <point x="291" y="-18"/>
      <point x="298" y="-15" type="curve" smooth="yes"/>
    </contour>
  </outline>
</glyph>
<glyph name="l" format="1">
  <advance width="792"/>
  <unicode hex="006C"/>
  <outline>
    <contour>
      <point x="659" y="35" type="curve"/>
      <point x="661" y="75"/>
      <point x="662" y="115"/>
      <point x="664" y="155" type="curve" smooth="yes"/>
      <point x="681" y="555"/>
      <point x="698" y="956"/>
      <point x="714" y="1356" type="curve" smooth="yes"/>
      <point x="714" y="1359"/>
      <point x="713" y="1360"/>
      <point x="710" y="1360" type="curve"/>
      <point x="708" y="1407"/>
      <point x="707" y="1454"/>
      <point x="706" y="1501" type="curve"/>
      <point x="538" y="1479"/>
      <point x="289" y="1489"/>
      <point x="187" y="1439" type="curve"/>
      <point x="181" y="1262"/>
      <point x="174" y="1092"/>
      <point x="168" y="929" type="curve" smooth="yes"/>
      <point x="157" y="644"/>
      <point x="148" y="379"/>
      <point x="140" y="132" type="curve"/>
      <point x="140" y="73"/>
      <point x="146" y="22"/>
      <point x="155" y="-25" type="curve"/>
      <point x="331" y="-25"/>
      <point x="511" y="16"/>
    </contour>
  </outline>
</glyph>
<glyph name="m" format="1">
  <advance width="2574"/>
  <unicode hex="006D"/>
  <outline>
    <contour>
      <point x="174" y="1003" type="curve"/>
      <point x="135" y="63" type="line"/>
      <point x="135" y="34"/>
      <point x="137" y="7"/>
      <point x="139" y="-19" type="curve"/>
      <point x="165" y="-21"/>
      <point x="192" y="-22"/>
      <point x="219" y="-22" type="curve" smooth="yes"/>
      <point x="252" y="-22"/>
      <point x="287" y="-18"/>
      <point x="316" y="-15" type="curve" smooth="yes"/>
      <point x="636" y="24" type="line"/>
      <point x="673" y="88"/>
      <point x="655" y="246"/>
      <point x="663" y="396" type="curve" smooth="yes"/>
      <point x="666" y="465"/>
      <point x="673" y="533"/>
      <point x="702" y="654" type="curve" smooth="yes"/>
      <point x="725" y="753"/>
      <point x="823" y="798"/>
      <point x="902" y="798" type="curve" smooth="yes"/>
      <point x="989" y="798"/>
      <point x="1035" y="731"/>
      <point x="1054" y="639" type="curve"/>
      <point x="1064" y="598"/>
      <point x="1065" y="549"/>
      <point x="1063" y="502" type="curve"/>
      <point x="1047" y="262"/>
      <point x="1056" y="303"/>
      <point x="1039" y="65" type="curve"/>
      <point x="1039" y="34"/>
      <point x="1040" y="7"/>
      <point x="1044" y="-19" type="curve"/>
      <point x="1070" y="-21"/>
      <point x="1096" y="-22"/>
      <point x="1124" y="-22" type="curve" smooth="yes"/>
      <point x="1157" y="-22"/>
      <point x="1191" y="-17"/>
      <point x="1221" y="-15" type="curve"/>
      <point x="1401" y="7" type="line"/>
      <point x="1459" y="13"/>
      <point x="1517" y="20"/>
      <point x="1548" y="25" type="curve"/>
      <point x="1548" y="108" type="line" smooth="yes"/>
      <point x="1548" y="214"/>
      <point x="1553" y="320"/>
      <point x="1574" y="589" type="curve"/>
      <point x="1578" y="697"/>
      <point x="1658" y="766"/>
      <point x="1735" y="789" type="curve" smooth="yes"/>
      <point x="1754" y="795"/>
      <point x="1773" y="798"/>
      <point x="1791" y="798" type="curve" smooth="yes"/>
      <point x="1813" y="798"/>
      <point x="1834" y="794"/>
      <point x="1851" y="786" type="curve" smooth="yes"/>
      <point x="1903" y="763"/>
      <point x="1932" y="708"/>
      <point x="1947" y="639" type="curve" smooth="yes"/>
      <point x="1956" y="598"/>
      <point x="1958" y="549"/>
      <point x="1956" y="502" type="curve"/>
      <point x="1940" y="262"/>
      <point x="1948" y="303"/>
      <point x="1932" y="65" type="curve"/>
      <point x="1932" y="34"/>
      <point x="1933" y="7"/>
      <point x="1936" y="-19" type="curve"/>
      <point x="1963" y="-21"/>
      <point x="1990" y="-22"/>
      <point x="2018" y="-22" type="curve" smooth="yes"/>
      <point x="2028" y="-22"/>
      <point x="2039" y="-17"/>
      <point x="2046" y="-15" type="curve"/>
      <point x="2293" y="14" type="line"/>
      <point x="2356" y="18"/>
      <point x="2406" y="20"/>
      <point x="2453" y="25" type="curve"/>
      <point x="2453" y="52"/>
      <point x="2453" y="79"/>
      <point x="2453" y="108" type="curve" smooth="yes"/>
      <point x="2453" y="237"/>
      <point x="2460" y="360"/>
      <point x="2466" y="488" type="curve" smooth="yes"/>
      <point x="2470" y="573"/>
      <point x="2465" y="656"/>
      <point x="2445" y="731" type="curve" smooth="yes"/>
      <point x="2381" y="975"/>
      <point x="2217" y="1077"/>
      <point x="1975" y="1077" type="curve" smooth="yes"/>
      <point x="1792" y="1077"/>
      <point x="1609" y="1023"/>
      <point x="1482" y="909" type="curve"/>
      <point x="1381" y="1041"/>
      <point x="1215" y="1082"/>
      <point x="1044" y="1067" type="curve"/>
      <point x="851" y="1047"/>
      <point x="684" y="1007"/>
      <point x="582" y="869" type="curve"/>
      <point x="544" y="997" type="line"/>
      <point x="529" y="1020"/>
      <point x="516" y="1042"/>
      <point x="501" y="1065" type="curve"/>
      <point x="475" y="1065"/>
      <point x="448" y="1065"/>
      <point x="421" y="1065" type="curve"/>
      <point x="369" y="1049"/>
      <point x="314" y="1040"/>
      <point x="262" y="1030" type="curve"/>
      <point x="226" y="1027"/>
      <point x="200" y="1022"/>
    </contour>
  </outline>
</glyph>
<glyph name="n" format="1">
  <advance width="1772"/>
  <unicode hex="006E"/>
  <outline>
    <contour>
      <point x="174" y="1004" type="curve"/>
      <point x="173" y="982"/>
      <point x="172" y="960"/>
      <point x="171" y="938" type="curve" smooth="yes"/>
      <point x="135" y="73" type="line"/>
      <point x="135" y="41"/>
      <point x="137" y="10"/>
      <point x="139" y="-19" type="curve"/>
      <point x="170" y="-21"/>
      <point x="203" y="-22"/>
      <point x="236" y="-22" type="curve" smooth="yes"/>
      <point x="246" y="-22"/>
      <point x="257" y="-18"/>
      <point x="264" y="-15" type="curve"/>
      <point x="494" y="16" type="line"/>
      <point x="558" y="26"/>
      <point x="616" y="28"/>
      <point x="655" y="35" type="curve"/>
      <point x="655" y="116" type="line" smooth="yes"/>
      <point x="655" y="273"/>
      <point x="649" y="496"/>
      <point x="694" y="626" type="curve" smooth="yes"/>
      <point x="728" y="726"/>
      <point x="803" y="799"/>
      <point x="952" y="799" type="curve" smooth="yes"/>
      <point x="1058" y="799"/>
      <point x="1118" y="741"/>
      <point x="1145" y="662" type="curve"/>
      <point x="1158" y="612"/>
      <point x="1162" y="555"/>
      <point x="1159" y="502" type="curve" smooth="yes"/>
      <point x="1145" y="290"/>
      <point x="1147" y="228"/>
      <point x="1136" y="65" type="curve"/>
      <point x="1136" y="34"/>
      <point x="1137" y="7"/>
      <point x="1141" y="-19" type="curve"/>
      <point x="1173" y="-21"/>
      <point x="1206" y="-22"/>
      <point x="1240" y="-22" type="curve" smooth="yes"/>
      <point x="1250" y="-22"/>
      <point x="1261" y="-17"/>
      <point x="1267" y="-15" type="curve"/>
      <point x="1550" y="14" type="line" smooth="yes"/>
      <point x="1595" y="18"/>
      <point x="1626" y="20"/>
      <point x="1656" y="25" type="curve"/>
      <point x="1656" y="52"/>
      <point x="1656" y="79"/>
      <point x="1656" y="108" type="curve" smooth="yes"/>
      <point x="1656" y="160"/>
      <point x="1656" y="201"/>
      <point x="1659" y="250" type="curve" smooth="yes"/>
      <point x="1662" y="317" type="line" smooth="yes"/>
      <point x="1667" y="425"/>
      <point x="1678" y="538"/>
      <point x="1673" y="647" type="curve" smooth="yes"/>
      <point x="1672" y="668"/>
      <point x="1671" y="688"/>
      <point x="1668" y="708" type="curve" smooth="yes"/>
      <point x="1626" y="964"/>
      <point x="1430" y="1071"/>
      <point x="1143" y="1071" type="curve" smooth="yes"/>
      <point x="936" y="1071"/>
      <point x="702" y="1021"/>
      <point x="579" y="870" type="curve"/>
      <point x="574" y="950"/>
      <point x="560" y="973"/>
      <point x="546" y="997" type="curve"/>
      <point x="531" y="1020"/>
      <point x="517" y="1043"/>
      <point x="502" y="1065" type="curve"/>
      <point x="477" y="1066"/>
      <point x="450" y="1066"/>
      <point x="422" y="1066" type="curve"/>
      <point x="339" y="1040"/>
      <point x="225" y="1040"/>
    </contour>
  </outline>
</glyph>
<glyph name="o" format="1">
  <advance width="1729"/>
  <unicode hex="006F"/>
  <outline>
    <contour>
      <point x="888" y="224" type="curve"/>
      <point x="706" y="224"/>
      <point x="621" y="340"/>
      <point x="621" y="509" type="curve" smooth="yes"/>
      <point x="621" y="647"/>
      <point x="701" y="807"/>
      <point x="882" y="807" type="curve" smooth="yes"/>
      <point x="1061" y="807"/>
      <point x="1154" y="682"/>
      <point x="1154" y="534" type="curve" smooth="yes"/>
      <point x="1154" y="372"/>
      <point x="1075" y="227"/>
    </contour>
    <contour>
      <point x="870" y="-46" type="curve" smooth="yes"/>
      <point x="1240" y="-46"/>
      <point x="1656" y="77"/>
      <point x="1656" y="538" type="curve" smooth="yes"/>
      <point x="1656" y="909"/>
      <point x="1356" y="1085"/>
      <point x="916" y="1085" type="curve" smooth="yes"/>
      <point x="887" y="1085"/>
      <point x="860" y="1083"/>
      <point x="836" y="1080" type="curve"/>
      <point x="836" y="1078"/>
      <point x="836" y="1077"/>
      <point x="837" y="1074" type="curve" smooth="yes"/>
      <point x="837" y="1071"/>
      <point x="838" y="1068"/>
      <point x="838" y="1065" type="curve"/>
      <point x="481" y="1051"/>
      <point x="112" y="918"/>
      <point x="112" y="504" type="curve" smooth="yes"/>
      <point x="112" y="92"/>
      <point x="489" y="-46"/>
    </contour>
  </outline>
</glyph>
<glyph name="p" format="1">
  <advance width="1744"/>
  <unicode hex="0070"/>
  <outline>
    <contour>
      <point x="1698" y="569" type="curve" smooth="yes"/>
      <point x="1698" y="815"/>
      <point x="1547" y="993"/>
      <point x="1319" y="1053" type="curve"/>
      <point x="1236" y="1076"/>
      <point x="1142" y="1080"/>
      <point x="1054" y="1073" type="curve"/>
      <point x="869" y="1065"/>
      <point x="687" y="996"/>
      <point x="584" y="870" type="curve"/>
      <point x="578" y="949"/>
      <point x="565" y="971"/>
      <point x="551" y="995" type="curve"/>
      <point x="536" y="1018"/>
      <point x="521" y="1041"/>
      <point x="502" y="1061" type="curve"/>
      <point x="476" y="1056"/>
      <point x="450" y="1051"/>
      <point x="424" y="1047" type="curve" smooth="yes"/>
      <point x="372" y="1039"/>
      <point x="319" y="1033"/>
      <point x="267" y="1025" type="curve"/>
      <point x="231" y="1023"/>
      <point x="205" y="1018"/>
      <point x="178" y="999" type="curve"/>
      <point x="126" y="-263" type="line"/>
      <point x="126" y="-304"/>
      <point x="128" y="-343"/>
      <point x="130" y="-380" type="curve"/>
      <point x="171" y="-382"/>
      <point x="214" y="-383"/>
      <point x="257" y="-383" type="curve" smooth="yes"/>
      <point x="267" y="-383"/>
      <point x="278" y="-378"/>
      <point x="284" y="-376" type="curve"/>
      <point x="512" y="-348" type="line"/>
      <point x="566" y="-344"/>
      <point x="607" y="-341"/>
      <point x="645" y="-337" type="curve"/>
      <point x="645" y="-217" type="line" smooth="yes"/>
      <point x="645" y="-172"/>
      <point x="660" y="27"/>
      <point x="660" y="72" type="curve"/>
      <point x="758" y="-3"/>
      <point x="906" y="-46"/>
      <point x="1060" y="-46" type="curve" smooth="yes"/>
      <point x="1404" y="-46"/>
      <point x="1698" y="208"/>
    </contour>
    <contour>
      <point x="1173" y="537" type="curve" smooth="yes"/>
      <point x="1173" y="384"/>
      <point x="1085" y="222"/>
      <point x="917" y="222" type="curve" smooth="yes"/>
      <point x="797" y="222"/>
      <point x="715" y="288"/>
      <point x="683" y="376" type="curve"/>
      <point x="677" y="410"/>
      <point x="676" y="444"/>
      <point x="680" y="516" type="curve"/>
      <point x="682" y="581"/>
      <point x="697" y="654"/>
      <point x="749" y="709" type="curve" smooth="yes"/>
      <point x="788" y="750"/>
      <point x="870" y="798"/>
      <point x="965" y="793" type="curve" smooth="yes"/>
      <point x="1102" y="785"/>
      <point x="1173" y="678"/>
    </contour>
  </outline>
</glyph>
<glyph name="q" format="1">
  <advance width="1767"/>
  <unicode hex="0071"/>
  <outline>
    <contour>
      <point x="621" y="476" type="curve" smooth="yes"/>
      <point x="621" y="640"/>
      <point x="714" y="800"/>
      <point x="868" y="800" type="curve" smooth="yes"/>
      <point x="985" y="800"/>
      <point x="1067" y="728"/>
      <point x="1100" y="646" type="curve" smooth="yes"/>
      <point x="1107" y="627"/>
      <point x="1110" y="606"/>
      <point x="1110" y="585" type="curve"/>
      <point x="1102" y="458"/>
      <point x="1086" y="382"/>
      <point x="1057" y="329" type="curve"/>
      <point x="1015" y="278"/>
      <point x="955" y="241"/>
      <point x="879" y="231" type="curve"/>
      <point x="703" y="212"/>
      <point x="621" y="328"/>
    </contour>
    <contour>
      <point x="98" y="488" type="curve" smooth="yes"/>
      <point x="98" y="152"/>
      <point x="361" y="-46"/>
      <point x="677" y="-46" type="curve" smooth="yes"/>
      <point x="832" y="-46"/>
      <point x="983" y="-1"/>
      <point x="1087" y="74" type="curve"/>
      <point x="1085" y="28"/>
      <point x="1067" y="-227"/>
      <point x="1067" y="-260" type="curve" smooth="yes"/>
      <point x="1067" y="-306"/>
      <point x="1075" y="-345"/>
      <point x="1083" y="-381" type="curve"/>
      <point x="1131" y="-381"/>
      <point x="1181" y="-376"/>
      <point x="1226" y="-374" type="curve"/>
      <point x="1455" y="-333" type="line"/>
      <point x="1508" y="-329"/>
      <point x="1549" y="-326"/>
      <point x="1587" y="-321" type="curve"/>
      <point x="1587" y="-210" type="line" smooth="yes"/>
      <point x="1587" y="-208"/>
      <point x="1587" y="-206"/>
      <point x="1587" y="-206" type="curve"/>
      <point x="1605" y="175"/>
      <point x="1621" y="554"/>
      <point x="1639" y="935" type="curve" smooth="yes"/>
      <point x="1640" y="964"/>
      <point x="1642" y="994"/>
      <point x="1643" y="1023" type="curve"/>
      <point x="1618" y="1027"/>
      <point x="1593" y="1029"/>
      <point x="1568" y="1032" type="curve" smooth="yes"/>
      <point x="1555" y="1034"/>
      <point x="1542" y="1037"/>
      <point x="1529" y="1039" type="curve" smooth="yes"/>
      <point x="1516" y="1041"/>
      <point x="1502" y="1042"/>
      <point x="1489" y="1044" type="curve"/>
      <point x="1455" y="1008"/>
      <point x="1418" y="965"/>
      <point x="1382" y="923" type="curve"/>
      <point x="1196" y="1000"/>
      <point x="1020" y="1059"/>
      <point x="868" y="1026" type="curve"/>
      <point x="833" y="1058"/>
      <point x="793" y="1080"/>
      <point x="742" y="1080" type="curve" smooth="yes"/>
      <point x="389" y="1080"/>
      <point x="98" y="833"/>
    </contour>
  </outline>
</glyph>
<glyph name="r" format="1">
  <advance width="1289"/>
  <unicode hex="0072"/>
  <outline>
    <contour>
      <point x="171" y="991" type="curve"/>
      <point x="134" y="55" type="line"/>
      <point x="134" y="29"/>
      <point x="136" y="4"/>
      <point x="139" y="-19" type="curve"/>
      <point x="161" y="-21"/>
      <point x="183" y="-22"/>
      <point x="207" y="-22" type="curve" smooth="yes"/>
      <point x="221" y="-22"/>
      <point x="237" y="-21"/>
      <point x="251" y="-20" type="curve" smooth="yes"/>
      <point x="337" y="-14"/>
      <point x="422" y="3"/>
      <point x="507" y="15" type="curve" smooth="yes"/>
      <point x="579" y="25" type="line" smooth="yes"/>
      <point x="613" y="29"/>
      <point x="635" y="32"/>
      <point x="654" y="36" type="curve"/>
      <point x="654" y="77"/>
      <point x="654" y="118"/>
      <point x="654" y="160" type="curve" smooth="yes"/>
      <point x="656" y="338"/>
      <point x="663" y="395"/>
      <point x="697" y="607" type="curve"/>
      <point x="719" y="691"/>
      <point x="768" y="734"/>
      <point x="844" y="747" type="curve" smooth="yes"/>
      <point x="918" y="759"/>
      <point x="963" y="718"/>
      <point x="988" y="673" type="curve"/>
      <point x="988" y="658"/>
      <point x="986" y="643"/>
      <point x="983" y="630" type="curve" smooth="yes"/>
      <point x="980" y="616"/>
      <point x="976" y="604"/>
      <point x="972" y="595" type="curve"/>
      <point x="1060" y="598"/>
      <point x="1147" y="600"/>
      <point x="1231" y="602" type="curve"/>
      <point x="1254" y="666"/>
      <point x="1275" y="738"/>
      <point x="1287" y="811" type="curve" smooth="yes"/>
      <point x="1291" y="835"/>
      <point x="1294" y="860"/>
      <point x="1296" y="884" type="curve"/>
      <point x="1279" y="972"/>
      <point x="1205" y="1026"/>
      <point x="1112" y="1048" type="curve" smooth="yes"/>
      <point x="1066" y="1059"/>
      <point x="1015" y="1062"/>
      <point x="963" y="1056" type="curve" smooth="yes"/>
      <point x="845" y="1044"/>
      <point x="682" y="985"/>
      <point x="577" y="857" type="curve"/>
      <point x="576" y="930"/>
      <point x="568" y="946"/>
      <point x="558" y="962" type="curve" smooth="yes"/>
      <point x="539" y="994"/>
      <point x="519" y="1024"/>
      <point x="496" y="1053" type="curve"/>
      <point x="428" y="1036"/>
      <point x="353" y="1027"/>
      <point x="285" y="1017" type="curve"/>
      <point x="241" y="1015"/>
      <point x="207" y="1009"/>
    </contour>
  </outline>
</glyph>
<glyph name="s" format="1">
  <advance width="1437"/>
  <unicode hex="0073"/>
  <outline>
    <contour>
      <point x="129" y="53" type="curve"/>
      <point x="247" y="-10"/>
      <point x="433" y="-37"/>
      <point x="595" y="-43" type="curve" smooth="yes"/>
      <point x="640" y="-45"/>
      <point x="683" y="-44"/>
      <point x="723" y="-42" type="curve"/>
      <point x="1141" y="-33"/>
      <point x="1359" y="92"/>
      <point x="1359" y="310" type="curve" smooth="yes"/>
      <point x="1359" y="586"/>
      <point x="1026" y="599"/>
      <point x="733" y="686" type="curve"/>
      <point x="648" y="699"/>
      <point x="598" y="713"/>
      <point x="598" y="752" type="curve" smooth="yes"/>
      <point x="598" y="798"/>
      <point x="647" y="822"/>
      <point x="780" y="822" type="curve" smooth="yes"/>
      <point x="988" y="822"/>
      <point x="1077" y="759"/>
      <point x="1215" y="713" type="curve"/>
      <point x="1232" y="736"/>
      <point x="1248" y="762"/>
      <point x="1261" y="794" type="curve"/>
      <point x="1271" y="856"/>
      <point x="1283" y="913"/>
      <point x="1293" y="973" type="curve"/>
      <point x="1155" y="1051"/>
      <point x="1011" y="1075"/>
      <point x="863" y="1079" type="curve"/>
      <point x="731" y="1081"/>
      <point x="136" y="1062"/>
      <point x="136" y="730" type="curve" smooth="yes"/>
      <point x="136" y="469"/>
      <point x="447" y="460"/>
      <point x="735" y="362" type="curve"/>
      <point x="813" y="349"/>
      <point x="868" y="327"/>
      <point x="868" y="286" type="curve" smooth="yes"/>
      <point x="868" y="241"/>
      <point x="804" y="224"/>
      <point x="724" y="224" type="curve" smooth="yes"/>
      <point x="572" y="224"/>
      <point x="440" y="247"/>
      <point x="313" y="293" type="curve"/>
      <point x="311" y="295"/>
      <point x="309" y="296"/>
      <point x="306" y="296" type="curve" smooth="yes"/>
      <point x="267" y="304"/>
      <point x="230" y="313"/>
      <point x="195" y="321" type="curve"/>
      <point x="187" y="291"/>
      <point x="179" y="262"/>
      <point x="172" y="232" type="curve" smooth="yes"/>
      <point x="158" y="172"/>
      <point x="144" y="112"/>
    </contour>
  </outline>
</glyph>
<glyph name="t" format="1">
  <advance width="1313"/>
  <unicode hex="0074"/>
  <outline>
    <contour>
      <point x="301" y="779" type="line"/>
      <point x="296" y="678"/>
      <point x="293" y="571"/>
      <point x="287" y="460" type="curve"/>
      <point x="285" y="388"/>
      <point x="296" y="326"/>
      <point x="316" y="271" type="curve"/>
      <point x="316" y="271"/>
      <point x="316" y="271"/>
      <point x="316" y="271" type="curve"/>
      <point x="366" y="80"/>
      <point x="512" y="-14"/>
      <point x="722" y="-34" type="curve"/>
      <point x="785" y="-42"/>
      <point x="856" y="-41"/>
      <point x="928" y="-34" type="curve"/>
      <point x="1058" y="-25"/>
      <point x="1208" y="5"/>
      <point x="1272" y="37" type="curve"/>
      <point x="1272" y="58"/>
      <point x="1272" y="80"/>
      <point x="1271" y="103" type="curve"/>
      <point x="1253" y="209"/>
      <point x="1259" y="268"/>
      <point x="1248" y="308" type="curve"/>
      <point x="1199" y="294"/>
      <point x="1102" y="267"/>
      <point x="1019" y="263" type="curve"/>
      <point x="983" y="260"/>
      <point x="948" y="261"/>
      <point x="918" y="267" type="curve" smooth="yes"/>
      <point x="852" y="279"/>
      <point x="807" y="320"/>
      <point x="807" y="417" type="curve"/>
      <point x="809" y="532"/>
      <point x="817" y="657"/>
      <point x="825" y="781" type="curve"/>
      <point x="1055" y="781" type="line" smooth="yes"/>
      <point x="1113" y="781"/>
      <point x="1162" y="781"/>
      <point x="1201" y="794" type="curve"/>
      <point x="1217" y="891" type="line"/>
      <point x="1229" y="940"/>
      <point x="1236" y="979"/>
      <point x="1236" y="1003" type="curve"/>
      <point x="1213" y="1011"/>
      <point x="1185" y="1014"/>
      <point x="1157" y="1014" type="curve" smooth="yes"/>
      <point x="835" y="1014" type="line"/>
      <point x="842" y="1151"/>
      <point x="852" y="1279"/>
      <point x="852" y="1376" type="curve" smooth="yes"/>
      <point x="852" y="1401"/>
      <point x="850" y="1424"/>
      <point x="846" y="1447" type="curve"/>
      <point x="728" y="1447"/>
      <point x="450" y="1426"/>
      <point x="323" y="1410" type="curve"/>
      <point x="317" y="1314"/>
      <point x="317" y="1200"/>
      <point x="306" y="1014" type="curve"/>
      <point x="138" y="1014" type="line"/>
      <point x="133" y="965"/>
      <point x="76" y="837"/>
      <point x="76" y="789" type="curve"/>
      <point x="98" y="781"/>
      <point x="134" y="779"/>
      <point x="187" y="779" type="curve" smooth="yes"/>
    </contour>
  </outline>
</glyph>
<glyph name="u" format="1">
  <advance width="1753"/>
  <unicode hex="0075"/>
  <outline>
    <contour>
      <point x="1609" y="27" type="curve"/>
      <point x="1618" y="68"/>
      <point x="1620" y="112"/>
      <point x="1621" y="170" type="curve"/>
      <point x="1662" y="939" type="line"/>
      <point x="1662" y="939"/>
      <point x="1662" y="939"/>
      <point x="1662" y="939" type="curve"/>
      <point x="1662" y="979"/>
      <point x="1662" y="1019"/>
      <point x="1661" y="1059" type="curve"/>
      <point x="1622" y="1060"/>
      <point x="1582" y="1060"/>
      <point x="1541" y="1060" type="curve"/>
      <point x="1412" y="1043"/>
      <point x="1280" y="1034"/>
      <point x="1151" y="1024" type="curve"/>
      <point x="1127" y="886"/>
      <point x="1153" y="579"/>
      <point x="1103" y="426" type="curve"/>
      <point x="1072" y="327"/>
      <point x="1003" y="235"/>
      <point x="856" y="235" type="curve" smooth="yes"/>
      <point x="755" y="235"/>
      <point x="698" y="290"/>
      <point x="674" y="367" type="curve"/>
      <point x="662" y="419"/>
      <point x="660" y="480"/>
      <point x="664" y="538" type="curve"/>
      <point x="681" y="743"/>
      <point x="681" y="834"/>
      <point x="688" y="957" type="curve"/>
      <point x="688" y="989"/>
      <point x="688" y="1021"/>
      <point x="688" y="1053" type="curve"/>
      <point x="658" y="1055"/>
      <point x="626" y="1057"/>
      <point x="592" y="1057" type="curve" smooth="yes"/>
      <point x="464" y="1057"/>
      <point x="251" y="1031"/>
      <point x="157" y="1017" type="curve"/>
      <point x="154" y="980"/>
      <point x="152" y="946"/>
      <point x="151" y="910" type="curve" smooth="yes"/>
      <point x="148" y="819"/>
      <point x="148" y="707"/>
      <point x="131" y="453" type="curve" smooth="yes"/>
      <point x="130" y="433"/>
      <point x="131" y="414"/>
      <point x="132" y="395" type="curve" smooth="yes"/>
      <point x="135" y="357"/>
      <point x="142" y="321"/>
      <point x="152" y="288" type="curve"/>
      <point x="207" y="68"/>
      <point x="401" y="-42"/>
      <point x="682" y="-42" type="curve" smooth="yes"/>
      <point x="881" y="-42"/>
      <point x="1091" y="23"/>
      <point x="1217" y="170" type="curve"/>
      <point x="1224" y="102"/>
      <point x="1238" y="73"/>
      <point x="1253" y="49" type="curve" smooth="yes"/>
      <point x="1267" y="25"/>
      <point x="1281" y="2"/>
      <point x="1297" y="-21" type="curve"/>
      <point x="1322" y="-21"/>
      <point x="1349" y="-22"/>
      <point x="1376" y="-22" type="curve" smooth="yes"/>
      <point x="1380" y="-22" type="line"/>
      <point x="1455" y="1"/>
      <point x="1535" y="13"/>
    </contour>
  </outline>
</glyph>
<glyph name="v" format="1">
  <advance width="1625"/>
  <unicode hex="0076"/>
  <outline>
    <contour>
      <point x="93" y="1009" type="curve"/>
      <point x="148" y="894" type="line"/>
      <point x="258" y="619"/>
      <point x="378" y="280"/>
      <point x="472" y="78" type="curve"/>
      <point x="489" y="45"/>
      <point x="507" y="12"/>
      <point x="525" y="-21" type="curve"/>
      <point x="563" y="-23"/>
      <point x="601" y="-22"/>
      <point x="639" y="-22" type="curve"/>
      <point x="800" y="1"/>
      <point x="1012" y="-7"/>
      <point x="1113" y="40" type="curve"/>
      <point x="1126" y="66"/>
      <point x="1140" y="92"/>
      <point x="1153" y="118" type="curve" smooth="yes"/>
      <point x="1556" y="894" type="line"/>
      <point x="1578" y="934"/>
      <point x="1597" y="972"/>
      <point x="1615" y="1008" type="curve"/>
      <point x="1558" y="1010"/>
      <point x="1436" y="1034"/>
      <point x="1335" y="1046" type="curve" smooth="yes"/>
      <point x="1301" y="1050"/>
      <point x="1270" y="1053"/>
      <point x="1244" y="1053" type="curve" smooth="yes"/>
      <point x="1204" y="1053"/>
      <point x="1165" y="1053"/>
      <point x="1126" y="1052" type="curve"/>
      <point x="1062" y="930"/>
      <point x="912" y="551"/>
      <point x="848" y="413" type="curve"/>
      <point x="789" y="596"/>
      <point x="729" y="779"/>
      <point x="670" y="962" type="curve"/>
      <point x="655" y="992"/>
      <point x="642" y="1022"/>
      <point x="627" y="1052" type="curve"/>
      <point x="594" y="1053"/>
      <point x="561" y="1053"/>
      <point x="528" y="1053" type="curve"/>
      <point x="438" y="1044" type="line" smooth="yes"/>
      <point x="323" y="1032"/>
      <point x="208" y="1021"/>
    </contour>
  </outline>
</glyph>
<glyph name="w" format="1">
  <advance width="2296"/>
  <unicode hex="0077"/>
  <outline>
    <contour>
      <point x="116" y="1009" type="curve"/>
      <point x="227" y="684"/>
      <point x="346" y="247"/>
      <point x="440" y="-18" type="curve"/>
      <point x="476" y="-21"/>
      <point x="516" y="-22"/>
      <point x="556" y="-22" type="curve"/>
      <point x="705" y="-7"/>
      <point x="902" y="6"/>
      <point x="1021" y="20" type="curve"/>
      <point x="1033" y="53"/>
      <point x="1044" y="88"/>
      <point x="1056" y="128" type="curve" smooth="yes"/>
      <point x="1161" y="496" type="line"/>
      <point x="1207" y="301"/>
      <point x="1250" y="112"/>
      <point x="1286" y="-25" type="curve"/>
      <point x="1323" y="-28"/>
      <point x="1361" y="-29"/>
      <point x="1402" y="-29" type="curve"/>
      <point x="1549" y="-14"/>
      <point x="1748" y="-1"/>
      <point x="1865" y="14" type="curve"/>
      <point x="1882" y="50"/>
      <point x="1897" y="88"/>
      <point x="1915" y="129" type="curve"/>
      <point x="2013" y="385"/>
      <point x="2112" y="639"/>
      <point x="2210" y="894" type="curve" smooth="yes"/>
      <point x="2226" y="934"/>
      <point x="2240" y="972"/>
      <point x="2254" y="1008" type="curve"/>
      <point x="2180" y="1011"/>
      <point x="1992" y="1053"/>
      <point x="1890" y="1053" type="curve" smooth="yes"/>
      <point x="1850" y="1053"/>
      <point x="1812" y="1052"/>
      <point x="1774" y="1049" type="curve"/>
      <point x="1766" y="1019"/>
      <point x="1758" y="988"/>
      <point x="1750" y="958" type="curve" smooth="yes"/>
      <point x="1603" y="409" type="line"/>
      <point x="1475" y="958" type="line"/>
      <point x="1454" y="1049" type="line"/>
      <point x="1394" y="1052"/>
      <point x="1333" y="1053"/>
      <point x="1269" y="1053" type="curve"/>
      <point x="1165" y="1037"/>
      <point x="1055" y="1027"/>
      <point x="949" y="1017" type="curve"/>
      <point x="936" y="987"/>
      <point x="925" y="956"/>
      <point x="916" y="924" type="curve" smooth="yes"/>
      <point x="769" y="404" type="line"/>
      <point x="659" y="957" type="line" smooth="yes"/>
      <point x="653" y="988"/>
      <point x="647" y="1018"/>
      <point x="641" y="1049" type="curve"/>
      <point x="609" y="1052"/>
      <point x="577" y="1053"/>
      <point x="542" y="1053" type="curve"/>
      <point x="454" y="1044" type="line" smooth="yes"/>
      <point x="341" y="1032"/>
      <point x="229" y="1021"/>
    </contour>
  </outline>
</glyph>
<glyph name="x" format="1">
  <advance width="1812"/>
  <unicode hex="0078"/>
  <outline>
    <contour>
      <point x="127" y="1012" type="curve"/>
      <point x="152" y="987"/>
      <point x="181" y="962"/>
      <point x="212" y="929" type="curve" smooth="yes"/>
      <point x="348" y="783"/>
      <point x="481" y="641"/>
      <point x="616" y="497" type="curve"/>
      <point x="203" y="101" type="line"/>
      <point x="163" y="65"/>
      <point x="129" y="37"/>
      <point x="99" y="11" type="curve"/>
      <point x="200" y="12"/>
      <point x="417" y="-29"/>
      <point x="534" y="-29" type="curve" smooth="yes"/>
      <point x="570" y="-29"/>
      <point x="605" y="-29"/>
      <point x="641" y="-28" type="curve"/>
      <point x="718" y="31" type="line" smooth="yes"/>
      <point x="743" y="51"/>
      <point x="812" y="132"/>
      <point x="880" y="209" type="curve"/>
      <point x="973" y="78"/>
      <point x="1040" y="6"/>
      <point x="1078" y="-28" type="curve"/>
      <point x="1115" y="-29"/>
      <point x="1152" y="-29"/>
      <point x="1189" y="-29" type="curve"/>
      <point x="1350" y="-18"/>
      <point x="1594" y="6"/>
      <point x="1730" y="12" type="curve"/>
      <point x="1703" y="39"/>
      <point x="1673" y="67"/>
      <point x="1640" y="99" type="curve"/>
      <point x="1216" y="555" type="line"/>
      <point x="1346" y="681"/>
      <point x="1476" y="802"/>
      <point x="1610" y="929" type="curve"/>
      <point x="1648" y="963"/>
      <point x="1679" y="988"/>
      <point x="1707" y="1013" type="curve"/>
      <point x="1610" y="1013"/>
      <point x="1395" y="1053"/>
      <point x="1289" y="1053" type="curve" smooth="yes"/>
      <point x="1255" y="1053"/>
      <point x="1221" y="1053"/>
      <point x="1188" y="1052" type="curve"/>
      <point x="1120" y="997" type="line"/>
      <point x="967" y="829" type="line"/>
      <point x="925" y="885"/>
      <point x="884" y="941"/>
      <point x="842" y="997" type="curve"/>
      <point x="780" y="1052" type="line"/>
      <point x="744" y="1053"/>
      <point x="709" y="1053"/>
      <point x="673" y="1053" type="curve" smooth="yes"/>
      <point x="669" y="1053" type="line" smooth="yes"/>
      <point x="507" y="1042"/>
      <point x="264" y="1018"/>
    </contour>
  </outline>
</glyph>
<glyph name="y" format="1">
  <advance width="1572"/>
  <unicode hex="0079"/>
  <outline>
    <contour>
      <point x="126" y="1017" type="curve"/>
      <point x="137" y="988"/>
      <point x="151" y="959"/>
      <point x="167" y="928" type="curve"/>
      <point x="167" y="924"/>
      <point x="167" y="918"/>
      <point x="171" y="909" type="curve" smooth="yes"/>
      <point x="313" y="607"/>
      <point x="462" y="271"/>
      <point x="600" y="-18" type="curve"/>
      <point x="620" y="-68"/>
      <point x="633" y="-113"/>
      <point x="638" y="-149" type="curve"/>
      <point x="609" y="-255"/>
      <point x="560" y="-321"/>
      <point x="518" y="-341" type="curve" smooth="yes"/>
      <point x="479" y="-361"/>
      <point x="449" y="-344"/>
      <point x="449" y="-290" type="curve" smooth="yes"/>
      <point x="449" y="-272"/>
      <point x="461" y="-248"/>
      <point x="475" y="-233" type="curve"/>
      <point x="445" y="-246"/>
      <point x="404" y="-254"/>
      <point x="373" y="-272" type="curve"/>
      <point x="348" y="-323"/>
      <point x="338" y="-369"/>
      <point x="340" y="-409" type="curve"/>
      <point x="343" y="-538"/>
      <point x="463" y="-609"/>
      <point x="630" y="-606" type="curve"/>
      <point x="683" y="-589"/>
      <point x="729" y="-565"/>
      <point x="771" y="-535" type="curve" smooth="yes"/>
      <point x="920" y="-431"/>
      <point x="1002" y="-263"/>
      <point x="1091" y="-62" type="curve"/>
      <point x="1527" y="909" type="line"/>
      <point x="1543" y="947"/>
      <point x="1553" y="984"/>
      <point x="1561" y="1017" type="curve"/>
      <point x="1441" y="1027"/>
      <point x="1319" y="1036"/>
      <point x="1200" y="1053" type="curve" smooth="yes"/>
      <point x="1196" y="1053" type="line" smooth="yes"/>
      <point x="1169" y="1053"/>
      <point x="1142" y="1053"/>
      <point x="1116" y="1052" type="curve"/>
      <point x="1065" y="928"/>
      <point x="933" y="547"/>
      <point x="883" y="407" type="curve"/>
      <point x="690" y="978" type="line"/>
      <point x="690" y="978"/>
      <point x="690" y="978"/>
      <point x="690" y="978" type="curve"/>
      <point x="654" y="1052" type="line"/>
      <point x="627" y="1053"/>
      <point x="600" y="1053"/>
      <point x="573" y="1053" type="curve"/>
      <point x="481" y="1044" type="line" smooth="yes"/>
      <point x="363" y="1033"/>
      <point x="243" y="1025"/>
    </contour>
  </outline>
</glyph>
<glyph name="z" format="1">
  <advance width="1405"/>
  <unicode hex="007A"/>
  <outline>
    <contour>
      <point x="130" y="55" type="line"/>
      <point x="130" y="52"/>
      <point x="128" y="49"/>
      <point x="128" y="48" type="curve" smooth="yes"/>
      <point x="128" y="9"/>
      <point x="202" y="0"/>
      <point x="255" y="0" type="curve" smooth="yes"/>
      <point x="610" y="0" type="line" smooth="yes"/>
      <point x="726" y="0"/>
      <point x="831" y="4"/>
      <point x="855" y="55" type="curve" smooth="yes"/>
      <point x="949" y="252" type="line" smooth="yes"/>
      <point x="956" y="267"/>
      <point x="983" y="306"/>
      <point x="983" y="320" type="curve" smooth="yes"/>
      <point x="983" y="340"/>
      <point x="971" y="345"/>
      <point x="956" y="345" type="curve" smooth="yes"/>
      <point x="876" y="345"/>
      <point x="799" y="339"/>
      <point x="715" y="339" type="curve" smooth="yes"/>
      <point x="699" y="339"/>
      <point x="664" y="340"/>
      <point x="664" y="345" type="curve"/>
      <point x="918" y="899" type="line" smooth="yes"/>
      <point x="934" y="935"/>
      <point x="983" y="1010"/>
      <point x="983" y="1044" type="curve" smooth="yes"/>
      <point x="983" y="1057"/>
      <point x="964" y="1068"/>
      <point x="949" y="1068" type="curve" smooth="yes"/>
      <point x="716" y="1068"/>
      <point x="494" y="1080"/>
      <point x="259" y="1080" type="curve" smooth="yes"/>
      <point x="230" y="1080"/>
      <point x="196" y="1073"/>
      <point x="185" y="1037" type="curve"/>
      <point x="84" y="792" type="line"/>
      <point x="84" y="781"/>
      <point x="91" y="771"/>
      <point x="104" y="771" type="curve" smooth="yes"/>
      <point x="192" y="771"/>
      <point x="371" y="779"/>
      <point x="483" y="779" type="curve"/>
    </contour>
  </outline>
</glyph>
<glyph name="braceleft" format="1">
  <advance width="1030"/>
  <unicode hex="007B"/>
  <outline>
    <contour>
      <point x="257" y="393" type="curve"/>
      <point x="295" y="135"/>
      <point x="383" y="-139"/>
      <point x="672" y="-139" type="curve" smooth="yes"/>
      <point x="737" y="-139"/>
      <point x="818" y="-137"/>
      <point x="880" y="-131" type="curve"/>
      <point x="891" y="-33"/>
      <point x="911" y="50"/>
      <point x="911" y="151" type="curve"/>
      <point x="800" y="160"/>
      <point x="785" y="224"/>
      <point x="776" y="299" type="curve"/>
      <point x="744" y="316"/>
      <point x="729" y="349"/>
      <point x="729" y="418" type="curve" smooth="yes"/>
      <point x="729" y="430" type="line"/>
      <point x="729" y="430"/>
      <point x="729" y="430"/>
      <point x="729" y="430" type="curve"/>
      <point x="724" y="541"/>
      <point x="701" y="655"/>
      <point x="557" y="717" type="curve"/>
      <point x="783" y="779"/>
      <point x="711" y="1023"/>
      <point x="791" y="1145" type="curve" smooth="yes"/>
      <point x="818" y="1186"/>
      <point x="861" y="1212"/>
      <point x="938" y="1215" type="curve"/>
      <point x="962" y="1243"/>
      <point x="966" y="1396"/>
      <point x="973" y="1470" type="curve"/>
      <point x="973" y="1500"/>
      <point x="972" y="1527"/>
      <point x="970" y="1555" type="curve"/>
      <point x="909" y="1557"/>
      <point x="833" y="1556"/>
      <point x="765" y="1556" type="curve"/>
      <point x="339" y="1540"/>
      <point x="400" y="1123"/>
      <point x="231" y="985" type="curve"/>
      <point x="195" y="924"/>
      <point x="154" y="880"/>
      <point x="73" y="868" type="curve"/>
      <point x="73" y="841"/>
      <point x="56" y="739"/>
      <point x="56" y="682" type="curve" smooth="yes"/>
      <point x="56" y="646"/>
      <point x="60" y="618"/>
      <point x="68" y="591" type="curve"/>
      <point x="179" y="585"/>
      <point x="238" y="519"/>
      <point x="257" y="417" type="curve"/>
      <point x="257" y="409"/>
      <point x="257" y="401"/>
    </contour>
  </outline>
</glyph>
<glyph name="bar" format="1">
  <advance width="595"/>
  <unicode hex="007C"/>
  <outline>
    <contour>
      <point x="193" y="846" type="curve"/>
      <point x="158" y="452"/>
      <point x="140" y="218"/>
      <point x="121" y="-71" type="curve" smooth="yes"/>
      <point x="121" y="-77" type="line" smooth="yes"/>
      <point x="121" y="-100"/>
      <point x="137" y="-108"/>
      <point x="156" y="-108" type="curve" smooth="yes"/>
      <point x="179" y="-108"/>
      <point x="205" y="-97"/>
      <point x="220" y="-92" type="curve"/>
      <point x="442" y="-36" type="line" smooth="yes"/>
      <point x="478" y="-27"/>
      <point x="482" y="-21"/>
      <point x="482" y="-9" type="curve" smooth="yes"/>
      <point x="482" y="14" type="line"/>
      <point x="612" y="1516" type="line"/>
      <point x="612" y="1523"/>
      <point x="612" y="1526"/>
      <point x="601" y="1526" type="curve"/>
      <point x="488" y="1511"/>
      <point x="380" y="1502"/>
      <point x="268" y="1494" type="curve"/>
      <point x="244" y="1489"/>
      <point x="242" y="1476"/>
      <point x="239" y="1432" type="curve" smooth="yes"/>
      <point x="224" y="1232"/>
      <point x="213" y="1041"/>
    </contour>
  </outline>
</glyph>
<glyph name="braceright" format="1">
  <advance width="1031"/>
  <unicode hex="007D"/>
  <outline>
    <contour>
      <point x="782" y="302" type="curve"/>
      <point x="808" y="420"/>
      <point x="845" y="512"/>
      <point x="927" y="549" type="curve" smooth="yes"/>
      <point x="965" y="566"/>
      <point x="1001" y="542"/>
      <point x="1014" y="627" type="curve" smooth="yes"/>
      <point x="1027" y="705"/>
      <point x="1028" y="821"/>
      <point x="1028" y="859" type="curve"/>
      <point x="961" y="871"/>
      <point x="920" y="904"/>
      <point x="883" y="952" type="curve"/>
      <point x="865" y="966"/>
      <point x="850" y="983"/>
      <point x="837" y="1002" type="curve" smooth="yes"/>
      <point x="707" y="1200"/>
      <point x="822" y="1556"/>
      <point x="335" y="1556" type="curve" smooth="yes"/>
      <point x="285" y="1556"/>
      <point x="233" y="1555"/>
      <point x="192" y="1549" type="curve"/>
      <point x="183" y="1463"/>
      <point x="170" y="1408"/>
      <point x="170" y="1320" type="curve" smooth="yes"/>
      <point x="170" y="1284"/>
      <point x="174" y="1255"/>
      <point x="179" y="1228" type="curve"/>
      <point x="494" y="1217"/>
      <point x="214" y="806"/>
      <point x="525" y="722" type="curve"/>
      <point x="403" y="666"/>
      <point x="363" y="575"/>
      <point x="348" y="478" type="curve"/>
      <point x="324" y="311"/>
      <point x="306" y="188"/>
      <point x="134" y="164" type="curve"/>
      <point x="121" y="135"/>
      <point x="119" y="76"/>
      <point x="119" y="28" type="curve" smooth="yes"/>
      <point x="119" y="7"/>
      <point x="120" y="-4"/>
      <point x="120" y="-22" type="curve" smooth="yes"/>
      <point x="120" y="-31"/>
      <point x="119" y="-41"/>
      <point x="119" y="-52" type="curve" smooth="yes"/>
      <point x="119" y="-84"/>
      <point x="122" y="-113"/>
      <point x="127" y="-139" type="curve"/>
      <point x="232" y="-139"/>
      <point x="373" y="-114"/>
      <point x="478" y="-84" type="curve"/>
      <point x="693" y="-52"/>
      <point x="745" y="125"/>
    </contour>
  </outline>
</glyph>
<glyph name="asciitilde" format="1">
  <advance width="1084"/>
  <unicode hex="007E"/>
  <outline>
    <contour>
      <point x="723" y="871" type="curve" smooth="yes"/>
      <point x="638" y="990"/>
      <point x="562" y="996"/>
      <point x="456" y="996" type="curve" smooth="yes"/>
      <point x="268" y="996"/>
      <point x="114" y="827"/>
      <point x="114" y="576" type="curve" smooth="yes"/>
      <point x="114" y="564"/>
      <point x="129" y="559"/>
      <point x="144" y="559" type="curve" smooth="yes"/>
      <point x="224" y="559"/>
      <point x="230" y="562"/>
      <point x="315" y="562" type="curve" smooth="yes"/>
      <point x="332" y="562"/>
      <point x="344" y="574"/>
      <point x="344" y="585" type="curve" smooth="yes"/>
      <point x="344" y="636"/>
      <point x="360" y="695"/>
      <point x="423" y="695" type="curve" smooth="yes"/>
      <point x="458" y="695"/>
      <point x="480" y="690"/>
      <point x="503" y="658" type="curve"/>
      <point x="590" y="531"/>
      <point x="673" y="506"/>
      <point x="758" y="506" type="curve" smooth="yes"/>
      <point x="969" y="506"/>
      <point x="1111" y="728"/>
      <point x="1111" y="920" type="curve" smooth="yes"/>
      <point x="1111" y="935"/>
      <point x="1096" y="939"/>
      <point x="1085" y="939" type="curve" smooth="yes"/>
      <point x="1068" y="939"/>
      <point x="888" y="930"/>
      <point x="881" y="930" type="curve" smooth="yes"/>
      <point x="856" y="930"/>
      <point x="880" y="823"/>
      <point x="797" y="823" type="curve" smooth="yes"/>
      <point x="768" y="823"/>
      <point x="748" y="836"/>
    </contour>
  </outline>
</glyph>
<glyph name="exclamdown" format="1">
  <advance width="550"/>
  <unicode hex="00A1"/>
  <outline>
    <contour>
      <point x="150" y="364" type="curve"/>
      <point x="122" y="244"/>
      <point x="71" y="-53"/>
      <point x="71" y="-58" type="curve" smooth="yes"/>
      <point x="71" y="-65"/>
      <point x="75" y="-68"/>
      <point x="82" y="-68" type="curve" smooth="yes"/>
      <point x="86" y="-68"/>
      <point x="89" y="-68"/>
      <point x="91" y="-67" type="curve" smooth="yes"/>
      <point x="220" y="-35"/>
      <point x="334" y="-1"/>
      <point x="447" y="26" type="curve" smooth="yes"/>
      <point x="471" y="31"/>
      <point x="472" y="43"/>
      <point x="476" y="88" type="curve"/>
      <point x="466" y="1076" type="line" smooth="yes"/>
      <point x="466" y="1083"/>
      <point x="466" y="1086"/>
      <point x="455" y="1086" type="curve"/>
      <point x="399" y="1071"/>
      <point x="350" y="1061"/>
      <point x="298" y="1052" type="curve" smooth="yes"/>
      <point x="274" y="1048"/>
      <point x="272" y="1033"/>
      <point x="269" y="990" type="curve"/>
      <point x="234" y="778"/>
      <point x="193" y="572"/>
    </contour>
    <contour>
      <point x="185" y="1192" type="curve" smooth="yes"/>
      <point x="185" y="1185"/>
      <point x="189" y="1182"/>
      <point x="196" y="1182" type="curve" smooth="yes"/>
      <point x="200" y="1182"/>
      <point x="203" y="1182"/>
      <point x="205" y="1183" type="curve"/>
      <point x="334" y="1208"/>
      <point x="448" y="1235"/>
      <point x="561" y="1256" type="curve" smooth="yes"/>
      <point x="584" y="1260"/>
      <point x="586" y="1274"/>
      <point x="590" y="1318" type="curve" smooth="yes"/>
      <point x="612" y="1592" type="line"/>
      <point x="609" y="1594" type="line" smooth="yes"/>
      <point x="606" y="1595"/>
      <point x="603" y="1598"/>
      <point x="601" y="1602" type="curve"/>
      <point x="597" y="1602"/>
      <point x="594" y="1602"/>
      <point x="592" y="1601" type="curve" smooth="yes"/>
      <point x="476" y="1562"/>
      <point x="347" y="1541"/>
      <point x="234" y="1518" type="curve" smooth="yes"/>
      <point x="210" y="1513"/>
      <point x="208" y="1500"/>
      <point x="205" y="1456" type="curve" smooth="yes"/>
      <point x="184" y="1195"/>
      <point x="201" y="1420"/>
    </contour>
  </outline>
</glyph>
<glyph name="currency" format="1">
  <advance width="1277"/>
  <unicode hex="00A4"/>
  <outline>
    <contour>
      <point x="175" y="819" type="curve" smooth="yes"/>
      <point x="175" y="707"/>
      <point x="207" y="602"/>
      <point x="271" y="518" type="curve"/>
      <point x="227" y="468" type="line" smooth="yes"/>
      <point x="216" y="456"/>
      <point x="211" y="442"/>
      <point x="211" y="430" type="curve" smooth="yes"/>
      <point x="211" y="399"/>
      <point x="319" y="311"/>
      <point x="334" y="303" type="curve"/>
      <point x="337" y="300"/>
      <point x="341" y="298"/>
      <point x="346" y="298" type="curve" smooth="yes"/>
      <point x="364" y="299"/>
      <point x="394" y="322"/>
      <point x="435" y="366" type="curve" smooth="yes"/>
      <point x="448" y="380" type="line"/>
      <point x="512" y="353"/>
      <point x="580" y="338"/>
      <point x="664" y="338" type="curve" smooth="yes"/>
      <point x="777" y="338"/>
      <point x="876" y="361"/>
      <point x="963" y="408" type="curve"/>
      <point x="1032" y="335"/>
      <point x="1070" y="298"/>
      <point x="1093" y="298" type="curve" smooth="yes"/>
      <point x="1095" y="298"/>
      <point x="1171" y="348"/>
      <point x="1221" y="409" type="curve" smooth="yes"/>
      <point x="1226" y="414"/>
      <point x="1228" y="421"/>
      <point x="1228" y="430" type="curve" smooth="yes"/>
      <point x="1228" y="442"/>
      <point x="1223" y="456"/>
      <point x="1212" y="468" type="curve" smooth="yes"/>
      <point x="1133" y="555" type="line"/>
      <point x="1190" y="635"/>
      <point x="1223" y="734"/>
      <point x="1223" y="855" type="curve" smooth="yes"/>
      <point x="1223" y="951"/>
      <point x="1194" y="1040"/>
      <point x="1141" y="1117" type="curve"/>
      <point x="1158" y="1136"/>
      <point x="1172" y="1151"/>
      <point x="1183" y="1162" type="curve" smooth="yes"/>
      <point x="1199" y="1179" type="line" smooth="yes"/>
      <point x="1215" y="1196"/>
      <point x="1223" y="1210"/>
      <point x="1223" y="1223" type="curve" smooth="yes"/>
      <point x="1223" y="1230"/>
      <point x="1219" y="1237"/>
      <point x="1211" y="1242" type="curve" smooth="yes"/>
      <point x="1203" y="1247"/>
      <point x="1095" y="1340"/>
      <point x="1077" y="1353" type="curve"/>
      <point x="1071" y="1359"/>
      <point x="1064" y="1362"/>
      <point x="1057" y="1362" type="curve" smooth="yes"/>
      <point x="1049" y="1362"/>
      <point x="1042" y="1359"/>
      <point x="1037" y="1354" type="curve" smooth="yes"/>
      <point x="962" y="1273" type="line"/>
      <point x="898" y="1305"/>
      <point x="826" y="1324"/>
      <point x="742" y="1324" type="curve" smooth="yes"/>
      <point x="650" y="1324"/>
      <point x="562" y="1304"/>
      <point x="482" y="1267" type="curve"/>
      <point x="402" y="1354" type="line"/>
      <point x="396" y="1358" type="line" smooth="yes"/>
      <point x="393" y="1361"/>
      <point x="388" y="1362"/>
      <point x="382" y="1362" type="curve" smooth="yes"/>
      <point x="375" y="1362"/>
      <point x="368" y="1359"/>
      <point x="362" y="1353" type="curve"/>
      <point x="344" y="1340"/>
      <point x="236" y="1247"/>
      <point x="228" y="1242" type="curve" smooth="yes"/>
      <point x="220" y="1237"/>
      <point x="216" y="1230"/>
      <point x="216" y="1223" type="curve" smooth="yes"/>
      <point x="215" y="1207"/>
      <point x="230" y="1190"/>
      <point x="253" y="1165" type="curve" smooth="yes"/>
      <point x="290" y="1125" type="line"/>
      <point x="218" y="1041"/>
      <point x="175" y="940"/>
    </contour>
    <contour>
      <point x="712" y="1069" type="curve" smooth="yes"/>
      <point x="845" y="1069"/>
      <point x="909" y="959"/>
      <point x="909" y="844" type="curve" smooth="yes"/>
      <point x="909" y="723"/>
      <point x="837" y="597"/>
      <point x="702" y="597" type="curve" smooth="yes"/>
      <point x="565" y="597"/>
      <point x="502" y="703"/>
      <point x="502" y="815" type="curve" smooth="yes"/>
      <point x="502" y="938"/>
      <point x="579" y="1069"/>
    </contour>
  </outline>
</glyph>
